SplineFontDB: 3.2
FontName: FIREBUG
FullName: FIREBUG
FamilyName: FIREBUG
Weight: Book
Copyright: weknow (c) (weknow.deviantart.com). 2013. All Rights Reserved
Version: 1.00;August 17, 2022;FontCreator 11.5.0.2430 64-bit
ItalicAngle: 0
UnderlinePosition: -292
UnderlineWidth: 150
Ascent: 1638
Descent: 410
InvalidEm: 0
sfntRevision: 0x00010000
LayerCount: 2
Layer: 0 1 "Arri+AOgA-re" 1
Layer: 1 1 "Avant" 0
XUID: [1021 769 754472165 6094]
StyleMap: 0x0040
FSType: 0
OS2Version: 3
OS2_WeightWidthSlopeOnly: 0
OS2_UseTypoMetrics: 0
CreationTime: 1660750214
ModificationTime: 1716118393
PfmFamily: 17
TTFWeight: 400
TTFWidth: 5
LineGap: 0
VLineGap: 0
Panose: 2 0 5 0 0 0 0 0 0 0
OS2TypoAscent: 1499
OS2TypoAOffset: 0
OS2TypoDescent: -750
OS2TypoDOffset: 0
OS2TypoLinegap: 205
OS2WinAscent: 1900
OS2WinAOffset: 0
OS2WinDescent: 750
OS2WinDOffset: 0
HheadAscent: 1900
HheadAOffset: 0
HheadDescent: -750
HheadDOffset: 0
OS2SubXSize: 1434
OS2SubYSize: 1331
OS2SubXOff: 0
OS2SubYOff: 307
OS2SupXSize: 1434
OS2SupYSize: 1331
OS2SupXOff: 0
OS2SupYOff: 922
OS2StrikeYSize: 102
OS2StrikeYPos: 530
OS2CapHeight: 1499
OS2XHeight: 1200
OS2Vendor: 'HL  '
OS2CodePages: 20000001.00000000
OS2UnicodeRanges: 00000003.10000000.00000000.00000000
Lookup: 258 0 0 "'kern' Cr+AOkA-nage horizontal dans Latin lookup 0" { "sous-table 'kern' Cr+AOkA-nage horizontal dans Latin lookup 0"  } ['kern' ('latn' <'dflt' > ) ]
DEI: 91125
KernClass2: 18 10 "sous-table 'kern' Cr+AOkA-nage horizontal dans Latin lookup 0"
 50 A Agrave Aacute Acircumflex Atilde Adieresis Aring
 154 B D G H I J M N O Q R U W Igrave Iacute Icircumflex Idieresis Ntilde Ograve Oacute Ocircumflex Otilde Odieresis Oslash Ugrave Uacute Ucircumflex Udieresis
 57 C E K X Z AE Ccedilla Egrave Eacute Ecircumflex Edieresis
 12 F T Y Yacute
 1 L
 1 P
 1 S
 1 V
 169 a e i u w agrave aacute acircumflex atilde adieresis aring ae egrave eacute ecircumflex edieresis igrave iacute icircumflex idieresis ugrave uacute ucircumflex udieresis

StartChar: .notdef
Encoding: 65536 -1 0
Width: 1500
GlyphClass: 2
Flags: W
LayerCount: 2
Fore
SplineSet
600 300 m 0,0,1
 663 300 663 300 706.5 256 c 128,-1,2
 750 212 750 212 750 149 c 0,3,4
 750 87 750 87 706 43.5 c 128,-1,5
 662 0 662 0 600 0 c 0,6,7
 537 0 537 0 493.5 44 c 128,-1,8
 450 88 450 88 450 151 c 0,9,10
 450 213 450 213 494 256.5 c 128,-1,11
 538 300 538 300 600 300 c 0,0,1
750 600 m 1,12,13
 750 538 750 538 706 494 c 128,-1,14
 662 450 662 450 600 450 c 256,15,16
 538 450 538 450 494 494 c 128,-1,17
 450 538 450 538 450 600 c 2,18,-1
 450 751 l 2,19,20
 450 813 450 813 494 856.5 c 128,-1,21
 538 900 538 900 600 900 c 2,22,-1
 838 900 l 1,23,-1
 900 962 l 1,24,-1
 900 1136 l 1,25,-1
 838 1198 l 1,26,-1
 300 1198 l 1,27,28
 300 1136 300 1136 256 1092 c 128,-1,29
 212 1048 212 1048 150 1048 c 256,30,31
 88 1048 88 1048 44 1091.5 c 128,-1,32
 0 1135 0 1135 0 1198 c 2,33,-1
 0 1348 l 2,34,35
 0 1410 0 1410 44 1454 c 128,-1,36
 88 1498 88 1498 150 1498 c 2,37,-1
 900 1498 l 2,38,39
 958 1498 958 1498 1006 1454 c 2,40,-1
 1155 1305 l 2,41,42
 1200 1260 1200 1260 1200 1198 c 2,43,-1
 1200 900 l 2,44,45
 1200 842 1200 842 1156 794 c 2,46,-1
 1007 645 l 2,47,48
 963 600 963 600 900 600 c 2,49,-1
 750 600 l 1,12,13
EndSplineSet
EndChar

StartChar: exclam
Encoding: 33 33 4
Width: 600
GlyphClass: 2
Flags: W
LayerCount: 2
Fore
SplineSet
150 1499 m 256,0,1
 212 1499 212 1499 256 1455.5 c 128,-1,2
 300 1412 300 1412 300 1350 c 2,3,-1
 300 600 l 2,4,5
 300 538 300 538 256 494 c 128,-1,6
 212 450 212 450 150 450 c 256,7,8
 88 450 88 450 44 494 c 128,-1,9
 0 538 0 538 0 600 c 2,10,-1
 0 1350 l 2,11,12
 0 1412 0 1412 44 1455.5 c 128,-1,13
 88 1499 88 1499 150 1499 c 256,0,1
150 300 m 0,14,15
 213 300 213 300 256.5 256 c 128,-1,16
 300 212 300 212 300 149 c 0,17,18
 300 87 300 87 256 43.5 c 128,-1,19
 212 0 212 0 150 0 c 0,20,21
 87 0 87 0 43.5 44 c 128,-1,22
 0 88 0 88 0 151 c 0,23,24
 0 213 0 213 44 256.5 c 128,-1,25
 88 300 88 300 150 300 c 0,14,15
EndSplineSet
EndChar

StartChar: quotedbl
Encoding: 34 34 5
Width: 1001
GlyphClass: 2
Flags: W
LayerCount: 2
Fore
SplineSet
225 1098 m 0,0,1
 194 1098 194 1098 172 1119.5 c 128,-1,2
 150 1141 150 1141 150 1173 c 2,3,-1
 150 1199 l 1,4,5
 87 1199 87 1199 43.5 1242.5 c 128,-1,6
 0 1286 0 1286 0 1350 c 0,7,8
 0 1411 0 1411 44 1455 c 128,-1,9
 88 1499 88 1499 150 1499 c 0,10,11
 213 1499 213 1499 256.5 1455 c 128,-1,12
 300 1411 300 1411 300 1347 c 2,13,-1
 300 1171 l 2,14,15
 300 1141 300 1141 278.5 1119.5 c 128,-1,16
 257 1098 257 1098 225 1098 c 0,0,1
626 1098 m 0,17,18
 595 1098 595 1098 573 1119.5 c 128,-1,19
 551 1141 551 1141 551 1173 c 2,20,-1
 551 1199 l 1,21,22
 488 1199 488 1199 444.5 1242.5 c 128,-1,23
 401 1286 401 1286 401 1350 c 0,24,25
 401 1411 401 1411 445 1455 c 128,-1,26
 489 1499 489 1499 551 1499 c 0,27,28
 614 1499 614 1499 657.5 1455 c 128,-1,29
 701 1411 701 1411 701 1347 c 2,30,-1
 701 1171 l 2,31,32
 701 1141 701 1141 679.5 1119.5 c 128,-1,33
 658 1098 658 1098 626 1098 c 0,17,18
EndSplineSet
EndChar

StartChar: numbersign
Encoding: 35 35 6
Width: 1799
GlyphClass: 2
Flags: W
LayerCount: 2
Fore
SplineSet
248 599 m 1,0,-1
 248 901 l 1,1,-1
 150 901 l 2,2,3
 88 901 88 901 44 945 c 128,-1,4
 0 989 0 989 0 1051 c 256,5,6
 0 1113 0 1113 44 1157 c 128,-1,7
 88 1201 88 1201 150 1201 c 2,8,-1
 248 1201 l 1,9,-1
 248 1349 l 2,10,11
 248 1411 248 1411 292 1455 c 128,-1,12
 336 1499 336 1499 398 1499 c 256,13,14
 460 1499 460 1499 504 1455 c 128,-1,15
 548 1411 548 1411 548 1349 c 2,16,-1
 548 1201 l 1,17,-1
 950 1201 l 1,18,-1
 950 1349 l 2,19,20
 950 1411 950 1411 994 1455 c 128,-1,21
 1038 1499 1038 1499 1100 1499 c 256,22,23
 1162 1499 1162 1499 1206 1455 c 128,-1,24
 1250 1411 1250 1411 1250 1349 c 2,25,-1
 1250 1201 l 1,26,-1
 1349 1201 l 2,27,28
 1412 1201 1412 1201 1455.5 1157 c 128,-1,29
 1499 1113 1499 1113 1499 1051 c 256,30,31
 1499 989 1499 989 1455.5 945 c 128,-1,32
 1412 901 1412 901 1349 901 c 2,33,-1
 1250 901 l 1,34,-1
 1250 599 l 1,35,-1
 1349 599 l 2,36,37
 1412 599 1412 599 1455.5 555 c 128,-1,38
 1499 511 1499 511 1499 449 c 256,39,40
 1499 387 1499 387 1455.5 343 c 128,-1,41
 1412 299 1412 299 1349 299 c 2,42,-1
 1250 299 l 1,43,-1
 1250 150 l 2,44,45
 1250 87 1250 87 1206 43.5 c 128,-1,46
 1162 0 1162 0 1100 0 c 256,47,48
 1038 0 1038 0 994 43.5 c 128,-1,49
 950 87 950 87 950 150 c 2,50,-1
 950 299 l 1,51,-1
 548 299 l 1,52,-1
 548 150 l 2,53,54
 548 87 548 87 504 43.5 c 128,-1,55
 460 0 460 0 398 0 c 256,56,57
 336 0 336 0 292 43.5 c 128,-1,58
 248 87 248 87 248 150 c 2,59,-1
 248 299 l 1,60,-1
 150 299 l 2,61,62
 88 299 88 299 44 343 c 128,-1,63
 0 387 0 387 0 449 c 256,64,65
 0 511 0 511 44 555 c 128,-1,66
 88 599 88 599 150 599 c 2,67,-1
 248 599 l 1,0,-1
548 901 m 1,68,-1
 548 599 l 1,69,-1
 950 599 l 1,70,-1
 950 901 l 1,71,-1
 548 901 l 1,68,-1
EndSplineSet
EndChar

StartChar: dollar
Encoding: 36 36 7
Width: 1500
GlyphClass: 2
Flags: W
LayerCount: 2
Fore
SplineSet
750 858 m 1,0,-1
 1098 742 l 2,1,2
 1149 724 1149 724 1176 681 c 0,3,4
 1200 643 1200 643 1200 598 c 2,5,-1
 1200 150 l 2,6,7
 1200 88 1200 88 1156 44 c 128,-1,8
 1112 0 1112 0 1050 0 c 2,9,-1
 750 0 l 1,10,-1
 750 -49 l 2,11,12
 750 -112 750 -112 706 -155.5 c 128,-1,13
 662 -199 662 -199 600 -199 c 256,14,15
 538 -199 538 -199 494 -155.5 c 128,-1,16
 450 -112 450 -112 450 -49 c 2,17,-1
 450 0 l 1,18,-1
 150 0 l 2,19,20
 88 0 88 0 44 44 c 128,-1,21
 0 88 0 88 0 150 c 2,22,-1
 0 300 l 2,23,24
 0 362 0 362 44 406 c 128,-1,25
 88 450 88 450 150 450 c 0,26,27
 213 450 213 450 256.5 406 c 128,-1,28
 300 362 300 362 300 300 c 1,29,-1
 450 300 l 1,30,-1
 450 642 l 1,31,-1
 108 756 l 2,32,33
 61 771 61 771 31 810 c 128,-1,34
 1 849 1 849 1 900 c 2,35,-1
 1 1350 l 1,36,-1
 0 1350 l 1,37,38
 0 1412 0 1412 44 1456 c 128,-1,39
 88 1500 88 1500 150 1500 c 2,40,-1
 450 1500 l 1,41,-1
 450 1551 l 2,42,43
 450 1613 450 1613 494 1657 c 128,-1,44
 538 1701 538 1701 600 1701 c 256,45,46
 662 1701 662 1701 706 1657 c 128,-1,47
 750 1613 750 1613 750 1551 c 2,48,-1
 750 1500 l 1,49,-1
 1050 1500 l 2,50,51
 1112 1500 1112 1500 1156 1456 c 128,-1,52
 1200 1412 1200 1412 1200 1350 c 2,53,-1
 1200 1200 l 2,54,55
 1200 1138 1200 1138 1156 1094 c 128,-1,56
 1112 1050 1112 1050 1050 1050 c 256,57,58
 988 1050 988 1050 944 1094 c 128,-1,59
 900 1138 900 1138 900 1200 c 1,60,-1
 750 1200 l 1,61,-1
 750 858 l 1,0,-1
450 1200 m 1,62,-1
 300 1200 l 1,63,-1
 300 1007 l 1,64,-1
 450 957 l 1,65,-1
 450 1200 l 1,62,-1
750 300 m 1,66,-1
 901 300 l 1,67,-1
 901 492 l 1,68,-1
 750 542 l 1,69,-1
 750 300 l 1,66,-1
EndSplineSet
EndChar

StartChar: percent
Encoding: 37 37 8
Width: 1500
GlyphClass: 2
Flags: W
LayerCount: 2
Fore
SplineSet
300 238 m 1,0,-1
 300 150 l 2,1,2
 300 88 300 88 256 44 c 128,-1,3
 212 0 212 0 150 0 c 256,4,5
 88 0 88 0 44 44 c 128,-1,6
 0 88 0 88 0 150 c 2,7,-1
 0 300 l 2,8,9
 0 363 0 363 45 407 c 2,10,-1
 900 1262 l 1,11,-1
 900 1350 l 2,12,13
 900 1412 900 1412 943.5 1456 c 128,-1,14
 987 1500 987 1500 1050 1500 c 0,15,16
 1112 1500 1112 1500 1156 1456 c 128,-1,17
 1200 1412 1200 1412 1200 1350 c 2,18,-1
 1200 1200 l 2,19,20
 1200 1140 1200 1140 1156 1094 c 2,21,-1
 300 238 l 1,0,-1
250 1500 m 0,22,23
 355 1500 355 1500 427.5 1426.5 c 128,-1,24
 500 1353 500 1353 500 1248 c 0,25,26
 500 1145 500 1145 427 1072.5 c 128,-1,27
 354 1000 354 1000 250 1000 c 0,28,29
 145 1000 145 1000 72.5 1073 c 128,-1,30
 0 1146 0 1146 0 1251 c 0,31,32
 0 1354 0 1354 73 1427 c 128,-1,33
 146 1500 146 1500 250 1500 c 0,22,23
250 1312 m 256,34,35
 224 1312 224 1312 206 1294 c 128,-1,36
 188 1276 188 1276 188 1250 c 256,37,38
 188 1224 188 1224 206 1205.5 c 128,-1,39
 224 1187 224 1187 250 1187 c 256,40,41
 276 1187 276 1187 294.5 1205 c 128,-1,42
 313 1223 313 1223 313 1249 c 256,43,44
 313 1275 313 1275 294.5 1293.5 c 128,-1,45
 276 1312 276 1312 250 1312 c 256,34,35
949 500 m 0,46,47
 1054 500 1054 500 1126.5 426.5 c 128,-1,48
 1199 353 1199 353 1199 248 c 0,49,50
 1199 145 1199 145 1126 72.5 c 128,-1,51
 1053 0 1053 0 949 0 c 0,52,53
 844 0 844 0 771.5 73 c 128,-1,54
 699 146 699 146 699 251 c 0,55,56
 699 354 699 354 772 427 c 128,-1,57
 845 500 845 500 949 500 c 0,46,47
949 312 m 256,58,59
 923 312 923 312 905 294 c 128,-1,60
 887 276 887 276 887 250 c 256,61,62
 887 224 887 224 905 205.5 c 128,-1,63
 923 187 923 187 949 187 c 256,64,65
 975 187 975 187 993.5 205 c 128,-1,66
 1012 223 1012 223 1012 249 c 256,67,68
 1012 275 1012 275 993.5 293.5 c 128,-1,69
 975 312 975 312 949 312 c 256,58,59
EndSplineSet
EndChar

StartChar: ampersand
Encoding: 38 38 9
Width: 1800
GlyphClass: 2
Flags: W
LayerCount: 2
Fore
SplineSet
970 300 m 1,0,-1
 986 325 l 1,1,-1
 700 638 l 1,2,3
 650 685 650 685 650 751 c 0,4,5
 650 794 650 794 675 833 c 2,6,-1
 750 946 l 1,7,-1
 750 1200 l 1,8,-1
 449 1200 l 1,9,-1
 449 946 l 1,10,-1
 525 833 l 2,11,12
 550 793 550 793 550 750 c 0,13,14
 550 735 550 735 543 699 c 0,15,16
 533 652 533 652 466 615 c 2,17,-1
 299 515 l 1,18,-1
 299 300 l 1,19,-1
 970 300 l 1,0,-1
1050 0 m 2,20,-1
 150 0 l 2,21,22
 88 0 88 0 44 44 c 128,-1,23
 0 88 0 88 0 150 c 2,24,-1
 1 597 l 2,25,26
 1 681 1 681 73 728 c 2,27,-1
 188 797 l 1,28,29
 169 824 169 824 158 850 c 0,30,31
 151 870 151 870 151 897 c 2,32,-1
 151 1350 l 2,33,34
 151 1412 151 1412 194.5 1456 c 128,-1,35
 238 1500 238 1500 300 1500 c 2,36,-1
 900 1500 l 2,37,38
 966 1500 966 1500 1008 1453.5 c 128,-1,39
 1050 1407 1050 1407 1050 1357 c 2,40,-1
 1049 900 l 2,41,42
 1049 853 1049 853 1024 815 c 2,43,-1
 989 764 l 1,44,-1
 1157 581 l 1,45,-1
 1225 683 l 2,46,47
 1273 750 1273 750 1350 750 c 0,48,49
 1393 750 1393 750 1433 725 c 0,50,51
 1500 678 1500 678 1500 601 c 0,52,53
 1500 558 1500 558 1474 517 c 2,54,-1
 1366 353 l 1,55,-1
 1460 251 l 2,56,57
 1499 205 1499 205 1499 149 c 0,58,59
 1499 146 1499 146 1497.5 115 c 128,-1,60
 1496 84 1496 84 1450 40 c 0,61,62
 1406 1 1406 1 1351 1 c 0,63,64
 1347 1 1347 1 1315.5 2 c 128,-1,65
 1284 3 1284 3 1240 49 c 2,66,-1
 1195 98 l 1,67,-1
 1176 69 l 2,68,69
 1129 0 1129 0 1050 0 c 2,20,-1
EndSplineSet
EndChar

StartChar: quotesingle
Encoding: 39 39 10
Width: 600
GlyphClass: 2
Flags: W
LayerCount: 2
Fore
SplineSet
225 1098 m 0,0,1
 194 1098 194 1098 172 1119.5 c 128,-1,2
 150 1141 150 1141 150 1173 c 2,3,-1
 150 1199 l 1,4,5
 87 1199 87 1199 43.5 1242.5 c 128,-1,6
 0 1286 0 1286 0 1350 c 0,7,8
 0 1411 0 1411 44 1455 c 128,-1,9
 88 1499 88 1499 150 1499 c 0,10,11
 213 1499 213 1499 256.5 1455 c 128,-1,12
 300 1411 300 1411 300 1347 c 2,13,-1
 300 1171 l 2,14,15
 300 1141 300 1141 278.5 1119.5 c 128,-1,16
 257 1098 257 1098 225 1098 c 0,0,1
EndSplineSet
EndChar

StartChar: parenleft
Encoding: 40 40 11
Width: 812
GlyphClass: 2
Flags: W
LayerCount: 2
Fore
SplineSet
362 1800 m 2,0,1
 425 1800 425 1800 468.5 1756 c 128,-1,2
 512 1712 512 1712 512 1650 c 256,3,4
 512 1588 512 1588 468.5 1544 c 128,-1,5
 425 1500 425 1500 362 1500 c 1,6,-1
 300 1438 l 1,7,-1
 300 62 l 1,8,-1
 362 0 l 1,9,10
 425 0 425 0 468.5 -44 c 128,-1,11
 512 -88 512 -88 512 -150 c 256,12,13
 512 -212 512 -212 468.5 -256 c 128,-1,14
 425 -300 425 -300 362 -300 c 2,15,-1
 300 -300 l 2,16,17
 237 -300 237 -300 193 -256 c 2,18,-1
 44 -107 l 2,19,20
 0 -60 0 -60 0 0 c 2,21,-1
 0 1500 l 2,22,23
 0 1563 0 1563 45 1607 c 2,24,-1
 194 1756 l 2,25,26
 240 1800 240 1800 300 1800 c 2,27,-1
 362 1800 l 2,0,1
EndSplineSet
EndChar

StartChar: parenright
Encoding: 41 41 12
Width: 812
GlyphClass: 2
Flags: W
LayerCount: 2
Fore
SplineSet
150 1800 m 2,0,-1
 212 1800 l 2,1,2
 272 1800 272 1800 318 1756 c 2,3,-1
 467 1607 l 2,4,5
 512 1563 512 1563 512 1500 c 2,6,-1
 512 0 l 2,7,8
 512 -60 512 -60 468 -107 c 2,9,-1
 319 -256 l 2,10,11
 275 -300 275 -300 212 -300 c 2,12,-1
 150 -300 l 2,13,14
 87 -300 87 -300 43.5 -256 c 128,-1,15
 0 -212 0 -212 0 -150 c 256,16,17
 0 -88 0 -88 43.5 -44 c 128,-1,18
 87 0 87 0 150 0 c 1,19,-1
 212 62 l 1,20,-1
 212 1438 l 1,21,-1
 150 1500 l 1,22,23
 87 1500 87 1500 43.5 1544 c 128,-1,24
 0 1588 0 1588 0 1650 c 256,25,26
 0 1712 0 1712 43.5 1756 c 128,-1,27
 87 1800 87 1800 150 1800 c 2,0,-1
EndSplineSet
EndChar

StartChar: asterisk
Encoding: 42 42 13
Width: 600
GlyphClass: 2
Flags: W
LayerCount: 2
Fore
SplineSet
235 1224 m 0,0,1
 219 1224 219 1224 205 1232 c 2,2,-1
 150 1264 l 1,3,-1
 95 1232 l 2,4,5
 80 1224 80 1224 64 1224 c 0,6,7
 55 1224 55 1224 38 1228.5 c 128,-1,8
 21 1233 21 1233 8 1256 c 0,9,10
 0 1271 0 1271 0 1287 c 0,11,12
 0 1319 0 1319 24 1337 c 1,13,14
 0 1356 0 1356 0 1388 c 0,15,16
 0 1404 0 1404 8 1419 c 0,17,18
 21 1441 21 1441 47 1448 c 0,19,20
 55 1450 55 1450 63 1450 c 0,21,22
 75 1450 75 1450 87 1446 c 1,23,24
 90 1467 90 1467 105 1482 c 0,25,26
 123 1500 123 1500 149 1500 c 256,27,28
 175 1500 175 1500 194 1482 c 0,29,30
 210 1466 210 1466 212 1446 c 1,31,32
 224 1450 224 1450 236 1450 c 0,33,34
 244 1450 244 1450 253 1448 c 0,35,36
 278 1441 278 1441 291 1419 c 0,37,38
 300 1404 300 1404 300 1388 c 0,39,40
 300 1356 300 1356 275 1337 c 1,41,42
 300 1319 300 1319 300 1287 c 0,43,44
 300 1271 300 1271 291 1256 c 0,45,46
 278 1233 278 1233 253 1227 c 0,47,48
 244 1224 244 1224 235 1224 c 0,0,1
EndSplineSet
EndChar

StartChar: plus
Encoding: 43 43 14
Width: 1075
GlyphClass: 2
Flags: W
LayerCount: 2
Fore
SplineSet
537 900 m 1,0,-1
 625 900 l 2,1,2
 687 900 687 900 731 856 c 128,-1,3
 775 812 775 812 775 750 c 256,4,5
 775 688 775 688 731 644 c 128,-1,6
 687 600 687 600 625 600 c 2,7,-1
 537 600 l 1,8,-1
 537 513 l 2,9,10
 537 450 537 450 493 406.5 c 128,-1,11
 449 363 449 363 387 363 c 256,12,13
 325 363 325 363 281 406.5 c 128,-1,14
 237 450 237 450 237 513 c 2,15,-1
 237 600 l 1,16,-1
 150 600 l 2,17,18
 88 600 88 600 44 644 c 128,-1,19
 0 688 0 688 0 750 c 256,20,21
 0 812 0 812 44 856 c 128,-1,22
 88 900 88 900 150 900 c 2,23,-1
 237 900 l 1,24,-1
 237 987 l 2,25,26
 237 1050 237 1050 281 1093.5 c 128,-1,27
 325 1137 325 1137 387 1137 c 256,28,29
 449 1137 449 1137 493 1093.5 c 128,-1,30
 537 1050 537 1050 537 987 c 2,31,-1
 537 900 l 1,0,-1
EndSplineSet
EndChar

StartChar: comma
Encoding: 44 44 15
Width: 600
GlyphClass: 2
Flags: W
LayerCount: 2
Fore
SplineSet
225 -100 m 0,0,1
 194 -100 194 -100 172 -78.5 c 128,-1,2
 150 -57 150 -57 150 -25 c 2,3,-1
 150 1 l 1,4,5
 87 1 87 1 43.5 44.5 c 128,-1,6
 0 88 0 88 0 152 c 0,7,8
 0 213 0 213 44 257 c 128,-1,9
 88 301 88 301 150 301 c 0,10,11
 213 301 213 301 256.5 257 c 128,-1,12
 300 213 300 213 300 149 c 2,13,-1
 300 -27 l 2,14,15
 300 -57 300 -57 278.5 -78.5 c 128,-1,16
 257 -100 257 -100 225 -100 c 0,0,1
EndSplineSet
EndChar

StartChar: hyphen
Encoding: 45 45 16
AltUni2: 0000ad.ffffffff.0 0000ad.ffffffff.0
Width: 1075
GlyphClass: 2
Flags: W
LayerCount: 2
Fore
SplineSet
775 750 m 256,0,1
 775 688 775 688 731 644 c 128,-1,2
 687 600 687 600 625 600 c 2,3,-1
 150 600 l 2,4,5
 88 600 88 600 44 644 c 128,-1,6
 0 688 0 688 0 750 c 256,7,8
 0 812 0 812 44 856 c 128,-1,9
 88 900 88 900 150 900 c 2,10,-1
 625 900 l 2,11,12
 687 900 687 900 731 856 c 128,-1,13
 775 812 775 812 775 750 c 256,0,1
EndSplineSet
EndChar

StartChar: period
Encoding: 46 46 17
Width: 600
GlyphClass: 2
Flags: W
LayerCount: 2
Fore
SplineSet
150 300 m 0,0,1
 213 300 213 300 256 256 c 0,2,3
 300 212 300 212 300 149 c 0,4,5
 300 87 300 87 256 44 c 0,6,7
 212 0 212 0 150 0 c 0,8,9
 87 0 87 0 44 44 c 0,10,11
 0 88 0 88 0 151 c 0,12,13
 0 213 0 213 44 256 c 0,14,15
 88 300 88 300 150 300 c 0,0,1
EndSplineSet
EndChar

StartChar: slash
Encoding: 47 47 18
Width: 1100
GlyphClass: 2
Flags: W
LayerCount: 2
Fore
SplineSet
300 238 m 1,0,-1
 300 150 l 2,1,2
 300 88 300 88 256 44 c 128,-1,3
 212 0 212 0 150 0 c 256,4,5
 88 0 88 0 44 44 c 128,-1,6
 0 88 0 88 0 150 c 2,7,-1
 0 260 l 2,8,9
 0 323 0 323 45 407 c 2,10,-1
 500 1262 l 1,11,-1
 500 1350 l 2,12,13
 500 1412 500 1412 543.5 1456 c 128,-1,14
 587 1500 587 1500 650 1500 c 0,15,16
 712 1500 712 1500 756 1456 c 128,-1,17
 800 1412 800 1412 800 1350 c 2,18,-1
 800 1240 l 2,19,20
 800 1180 800 1180 756 1094 c 2,21,-1
 300 238 l 1,0,-1
EndSplineSet
EndChar

StartChar: zero
Encoding: 48 48 19
Width: 1500
GlyphClass: 2
Flags: W
LayerCount: 2
Fore
SplineSet
900 300 m 1,0,-1
 900 1200 l 1,1,-1
 300 1200 l 1,2,-1
 300 300 l 1,3,-1
 900 300 l 1,0,-1
1050 0 m 2,4,-1
 150 0 l 2,5,6
 88 0 88 0 44 44 c 128,-1,7
 0 88 0 88 0 150 c 2,8,-1
 0 1350 l 2,9,10
 0 1412 0 1412 44 1456 c 128,-1,11
 88 1500 88 1500 150 1500 c 2,12,-1
 1050 1500 l 2,13,14
 1112 1500 1112 1500 1156 1456 c 128,-1,15
 1200 1412 1200 1412 1200 1350 c 2,16,-1
 1200 150 l 2,17,18
 1200 88 1200 88 1156 44 c 128,-1,19
 1112 0 1112 0 1050 0 c 2,4,-1
EndSplineSet
EndChar

StartChar: one
Encoding: 49 49 20
Width: 979
GlyphClass: 2
Flags: W
LayerCount: 2
Fore
SplineSet
529 0 m 0,0,1
 467 0 467 0 423.5 44 c 128,-1,2
 380 88 380 88 380 150 c 2,3,-1
 380 1138 l 1,4,-1
 317 1200 l 1,5,-1
 150 1200 l 2,6,7
 88 1200 88 1200 44 1244 c 128,-1,8
 0 1288 0 1288 0 1350 c 256,9,10
 0 1412 0 1412 44 1456 c 128,-1,11
 88 1500 88 1500 150 1500 c 2,12,-1
 380 1500 l 2,13,14
 442 1500 442 1500 487 1455 c 0,15,16
 561 1380 561 1380 636 1306 c 1,17,18
 679 1257 679 1257 679 1200 c 2,19,-1
 679 150 l 2,20,21
 679 88 679 88 635.5 44 c 128,-1,22
 592 0 592 0 529 0 c 0,0,1
EndSplineSet
EndChar

StartChar: two
Encoding: 50 50 21
Width: 1500
GlyphClass: 2
Flags: W
LayerCount: 2
Fore
SplineSet
1050 0 m 2,0,-1
 150 0 l 2,1,2
 88 0 88 0 44 44 c 128,-1,3
 0 88 0 88 0 150 c 2,4,-1
 0 599 l 2,5,6
 0 644 0 644 26.5 684 c 128,-1,7
 53 724 53 724 103 742 c 2,8,-1
 901 1007 l 1,9,-1
 901 1200 l 1,10,-1
 300 1200 l 1,11,12
 300 1138 300 1138 256 1094 c 128,-1,13
 212 1050 212 1050 150 1050 c 256,14,15
 88 1050 88 1050 44 1094 c 128,-1,16
 0 1138 0 1138 0 1200 c 2,17,-1
 0 1350 l 2,18,19
 0 1412 0 1412 44 1456 c 128,-1,20
 88 1500 88 1500 150 1500 c 2,21,-1
 1050 1500 l 2,22,23
 1112 1500 1112 1500 1156 1456 c 128,-1,24
 1200 1412 1200 1412 1200 1350 c 2,25,-1
 1200 892 l 2,26,27
 1200 795 1200 795 1097 758 c 2,28,-1
 300 492 l 1,29,-1
 300 300 l 1,30,-1
 900 300 l 1,31,32
 900 362 900 362 944 406 c 128,-1,33
 988 450 988 450 1050 450 c 256,34,35
 1112 450 1112 450 1156 406 c 128,-1,36
 1200 362 1200 362 1200 300 c 2,37,-1
 1200 150 l 2,38,39
 1200 88 1200 88 1156 44 c 128,-1,40
 1112 0 1112 0 1050 0 c 2,0,-1
EndSplineSet
EndChar

StartChar: three
Encoding: 51 51 22
Width: 1500
GlyphClass: 2
Flags: W
LayerCount: 2
Fore
SplineSet
1050 0 m 2,0,-1
 150 0 l 2,1,2
 88 0 88 0 44 44 c 128,-1,3
 0 88 0 88 0 150 c 2,4,-1
 0 300 l 2,5,6
 0 362 0 362 44 406 c 128,-1,7
 88 450 88 450 150 450 c 256,8,9
 212 450 212 450 256 406 c 128,-1,10
 300 362 300 362 300 300 c 1,11,-1
 900 300 l 1,12,-1
 900 538 l 1,13,-1
 856 494 l 2,14,15
 807 450 807 450 750 450 c 0,16,17
 692 450 692 450 644 494 c 1,18,19
 600 542 600 542 600 600 c 0,20,21
 600 657 600 657 644 706 c 2,22,-1
 900 962 l 1,23,-1
 900 1200 l 1,24,-1
 300 1200 l 1,25,26
 300 1138 300 1138 256 1094 c 128,-1,27
 212 1050 212 1050 150 1050 c 256,28,29
 88 1050 88 1050 44 1094 c 128,-1,30
 0 1138 0 1138 0 1200 c 2,31,-1
 0 1350 l 2,32,33
 0 1412 0 1412 44 1456 c 128,-1,34
 88 1500 88 1500 150 1500 c 2,35,-1
 1050 1500 l 2,36,37
 1112 1500 1112 1500 1156 1456 c 128,-1,38
 1200 1412 1200 1412 1200 1350 c 2,39,-1
 1200 899 l 2,40,41
 1200 840 1200 840 1156 794 c 2,42,-1
 1112 750 l 1,43,-1
 1155 707 l 2,44,45
 1200 663 1200 663 1200 600 c 2,46,-1
 1200 150 l 2,47,48
 1200 88 1200 88 1156 44 c 128,-1,49
 1112 0 1112 0 1050 0 c 2,0,-1
EndSplineSet
EndChar

StartChar: four
Encoding: 52 52 23
Width: 1500
GlyphClass: 2
Flags: W
LayerCount: 2
Fore
SplineSet
1050 1 m 256,0,1
 988 1 988 1 944 44.5 c 128,-1,2
 900 88 900 88 900 150 c 2,3,-1
 900 450 l 1,4,-1
 450 450 l 2,5,6
 392 450 392 450 344 494 c 2,7,-1
 45 793 l 2,8,9
 0 837 0 837 0 900 c 2,10,-1
 0 1350 l 2,11,12
 0 1412 0 1412 44 1455.5 c 128,-1,13
 88 1499 88 1499 150 1499 c 256,14,15
 212 1499 212 1499 255.5 1455.5 c 128,-1,16
 299 1412 299 1412 299 1350 c 2,17,-1
 299 962 l 1,18,-1
 512 750 l 1,19,-1
 900 750 l 1,20,-1
 900 1350 l 2,21,22
 900 1412 900 1412 944 1456 c 128,-1,23
 988 1500 988 1500 1050 1500 c 256,24,25
 1112 1500 1112 1500 1156 1456 c 128,-1,26
 1200 1412 1200 1412 1200 1350 c 2,27,-1
 1200 150 l 2,28,29
 1200 88 1200 88 1156 44.5 c 128,-1,30
 1112 1 1112 1 1050 1 c 256,0,1
EndSplineSet
EndChar

StartChar: five
Encoding: 53 53 24
Width: 1499
GlyphClass: 2
Flags: W
LayerCount: 2
Fore
SplineSet
1049 0 m 2,0,-1
 150 0 l 2,1,2
 88 0 88 0 44 44 c 128,-1,3
 0 88 0 88 0 150 c 2,4,-1
 0 300 l 2,5,6
 0 362 0 362 44 406 c 128,-1,7
 88 450 88 450 150 450 c 256,8,9
 212 450 212 450 256 406 c 128,-1,10
 300 362 300 362 300 300 c 1,11,-1
 900 300 l 1,12,-1
 900 600 l 1,13,-1
 150 600 l 2,14,15
 83 600 83 600 37 652 c 0,16,17
 0 693 0 693 0 750 c 2,18,-1
 0 1350 l 2,19,20
 0 1412 0 1412 44 1456 c 128,-1,21
 88 1500 88 1500 150 1500 c 2,22,-1
 1049 1500 l 2,23,24
 1112 1500 1112 1500 1155.5 1456 c 128,-1,25
 1199 1412 1199 1412 1199 1350 c 256,26,27
 1199 1288 1199 1288 1155.5 1244 c 128,-1,28
 1112 1200 1112 1200 1049 1200 c 2,29,-1
 299 1200 l 1,30,-1
 299 900 l 1,31,-1
 1049 900 l 2,32,33
 1112 900 1112 900 1155.5 856 c 128,-1,34
 1199 812 1199 812 1199 750 c 2,35,-1
 1199 150 l 2,36,37
 1199 88 1199 88 1155.5 44 c 128,-1,38
 1112 0 1112 0 1049 0 c 2,0,-1
EndSplineSet
EndChar

StartChar: six
Encoding: 54 54 25
Width: 1500
GlyphClass: 2
Flags: W
LayerCount: 2
Fore
SplineSet
1050 0 m 2,0,-1
 150 0 l 2,1,2
 88 0 88 0 44 44 c 128,-1,3
 0 88 0 88 0 150 c 2,4,-1
 0 1350 l 2,5,6
 0 1412 0 1412 44 1456 c 128,-1,7
 88 1500 88 1500 150 1500 c 2,8,-1
 1050 1500 l 2,9,10
 1112 1500 1112 1500 1156 1456 c 128,-1,11
 1200 1412 1200 1412 1200 1350 c 2,12,-1
 1200 1200 l 2,13,14
 1200 1138 1200 1138 1156 1094 c 128,-1,15
 1112 1050 1112 1050 1050 1050 c 256,16,17
 988 1050 988 1050 944 1094 c 128,-1,18
 900 1138 900 1138 900 1200 c 1,19,-1
 299 1200 l 1,20,-1
 299 1007 l 1,21,-1
 1097 742 l 2,22,23
 1148 724 1148 724 1174 684 c 128,-1,24
 1200 644 1200 644 1200 599 c 2,25,-1
 1200 150 l 2,26,27
 1200 88 1200 88 1156 44 c 128,-1,28
 1112 0 1112 0 1050 0 c 2,0,-1
900 300 m 1,29,-1
 900 492 l 1,30,-1
 299 693 l 1,31,-1
 299 300 l 1,32,-1
 900 300 l 1,29,-1
EndSplineSet
EndChar

StartChar: seven
Encoding: 55 55 26
Width: 1500
GlyphClass: 2
Flags: W
LayerCount: 2
Fore
SplineSet
900 300 m 1,0,-1
 900 537 l 1,1,-1
 837 600 l 1,2,-1
 362 600 l 1,3,-1
 299 537 l 1,4,-1
 299 300 l 1,5,-1
 900 300 l 1,0,-1
837 900 m 1,6,-1
 900 962 l 1,7,-1
 900 1200 l 1,8,-1
 299 1200 l 1,9,-1
 299 962 l 1,10,-1
 362 900 l 1,11,-1
 837 900 l 1,6,-1
1050 0 m 2,12,-1
 150 0 l 2,13,14
 88 0 88 0 44 44 c 128,-1,15
 0 88 0 88 0 150 c 2,16,-1
 0 599 l 2,17,18
 0 659 0 659 44 706 c 2,19,-1
 88 750 l 1,20,-1
 45 793 l 2,21,22
 0 837 0 837 0 900 c 2,23,-1
 0 1350 l 2,24,25
 0 1412 0 1412 44 1456 c 128,-1,26
 88 1500 88 1500 150 1500 c 2,27,-1
 1050 1500 l 2,28,29
 1112 1500 1112 1500 1156 1456 c 128,-1,30
 1200 1412 1200 1412 1200 1350 c 2,31,-1
 1200 899 l 2,32,33
 1200 840 1200 840 1156 794 c 2,34,-1
 1112 750 l 1,35,-1
 1155 707 l 2,36,37
 1200 663 1200 663 1200 600 c 2,38,-1
 1200 150 l 2,39,40
 1200 88 1200 88 1156 44 c 128,-1,41
 1112 0 1112 0 1050 0 c 2,12,-1
EndSplineSet
EndChar

StartChar: eight
Encoding: 56 56 27
Width: 1500
GlyphClass: 2
Flags: W
LayerCount: 2
Fore
SplineSet
750 1 m 256,0,1
 688 1 688 1 644.5 44.5 c 128,-1,2
 601 88 601 88 601 150 c 2,3,-1
 601 537 l 1,4,-1
 494 644 l 2,5,6
 450 692 450 692 450 750 c 0,7,8
 450 807 450 807 494 856 c 1,9,10
 543 900 543 900 600 900 c 0,11,12
 658 900 658 900 706 856 c 2,13,-1
 750 812 l 1,14,-1
 901 962 l 1,15,-1
 901 1137 l 1,16,-1
 838 1200 l 1,17,-1
 300 1200 l 1,18,19
 300 1138 300 1138 256 1094 c 128,-1,20
 212 1050 212 1050 150 1050 c 256,21,22
 88 1050 88 1050 44 1094 c 128,-1,23
 0 1138 0 1138 0 1200 c 2,24,-1
 0 1350 l 2,25,26
 0 1412 0 1412 44 1456 c 128,-1,27
 88 1500 88 1500 150 1500 c 2,28,-1
 900 1500 l 2,29,30
 958 1500 958 1500 1006 1456 c 2,31,-1
 1155 1307 l 2,32,33
 1200 1263 1200 1263 1200 1200 c 2,34,-1
 1200 899 l 2,35,36
 1200 840 1200 840 1156 794 c 2,37,-1
 899 537 l 1,38,-1
 899 150 l 2,39,40
 899 88 899 88 855.5 44.5 c 128,-1,41
 812 1 812 1 750 1 c 256,0,1
EndSplineSet
EndChar

StartChar: nine
Encoding: 57 57 28
Width: 1499
GlyphClass: 2
Flags: W
LayerCount: 2
Fore
SplineSet
1050 0 m 2,0,-1
 150 0 l 2,1,2
 88 0 88 0 44 44 c 128,-1,3
 0 88 0 88 0 150 c 2,4,-1
 0 300 l 2,5,6
 0 362 0 362 44 406 c 128,-1,7
 88 450 88 450 150 450 c 256,8,9
 212 450 212 450 256 406 c 128,-1,10
 300 362 300 362 300 300 c 1,11,-1
 900 300 l 1,12,-1
 900 492 l 1,13,-1
 103 758 l 2,14,15
 0 795 0 795 0 892 c 2,16,-1
 0 1350 l 2,17,18
 0 1412 0 1412 44 1456 c 128,-1,19
 88 1500 88 1500 150 1500 c 2,20,-1
 1050 1500 l 2,21,22
 1112 1500 1112 1500 1155.5 1456 c 128,-1,23
 1199 1412 1199 1412 1199 1350 c 2,24,-1
 1199 150 l 2,25,26
 1199 88 1199 88 1155.5 44 c 128,-1,27
 1112 0 1112 0 1050 0 c 2,0,-1
899 807 m 1,28,-1
 899 1200 l 1,29,-1
 299 1200 l 1,30,-1
 299 1007 l 1,31,-1
 899 807 l 1,28,-1
EndSplineSet
EndChar

StartChar: colon
Encoding: 58 58 29
Width: 600
GlyphClass: 2
Flags: W
LayerCount: 2
Fore
SplineSet
150 601 m 0,0,1
 213 601 213 601 256.5 557 c 128,-1,2
 300 513 300 513 300 449 c 0,3,4
 300 388 300 388 256 344.5 c 128,-1,5
 212 301 212 301 150 301 c 0,6,7
 87 301 87 301 43.5 344.5 c 128,-1,8
 0 388 0 388 0 452 c 0,9,10
 0 513 0 513 44 557 c 128,-1,11
 88 601 88 601 150 601 c 0,0,1
150 1200 m 0,12,13
 213 1200 213 1200 256.5 1156 c 128,-1,14
 300 1112 300 1112 300 1048 c 0,15,16
 300 987 300 987 256 943.5 c 128,-1,17
 212 900 212 900 150 900 c 0,18,19
 87 900 87 900 43.5 943.5 c 128,-1,20
 0 987 0 987 0 1051 c 0,21,22
 0 1112 0 1112 44 1156 c 128,-1,23
 88 1200 88 1200 150 1200 c 0,12,13
EndSplineSet
EndChar

StartChar: semicolon
Encoding: 59 59 30
AltUni2: 00037e.ffffffff.0 00037e.ffffffff.0
Width: 600
GlyphClass: 2
Flags: W
LayerCount: 2
Fore
SplineSet
150 900 m 0,0,1
 87 900 87 900 43.5 943.5 c 128,-1,2
 0 987 0 987 0 1051 c 0,3,4
 0 1112 0 1112 44 1156 c 128,-1,5
 88 1200 88 1200 150 1200 c 0,6,7
 213 1200 213 1200 256.5 1156 c 128,-1,8
 300 1112 300 1112 300 1048 c 0,9,10
 300 987 300 987 256 943.5 c 128,-1,11
 212 900 212 900 150 900 c 0,0,1
225 200 m 0,12,13
 194 200 194 200 172 221.5 c 128,-1,14
 150 243 150 243 150 275 c 2,15,-1
 150 301 l 1,16,17
 87 301 87 301 43.5 344.5 c 128,-1,18
 0 388 0 388 0 452 c 0,19,20
 0 513 0 513 44 557 c 128,-1,21
 88 601 88 601 150 601 c 0,22,23
 213 601 213 601 256.5 557 c 128,-1,24
 300 513 300 513 300 449 c 2,25,-1
 300 273 l 2,26,27
 300 243 300 243 278.5 221.5 c 128,-1,28
 257 200 257 200 225 200 c 0,12,13
EndSplineSet
EndChar

StartChar: less
Encoding: 60 60 31
Width: 1170
GlyphClass: 2
Flags: W
LayerCount: 2
Fore
SplineSet
720 150 m 256,0,1
 658 150 658 150 614 194 c 128,-1,2
 570 238 570 238 570 300 c 2,3,-1
 570 370 l 1,4,-1
 0 750 l 1,5,-1
 570 1130 l 1,6,-1
 570 1200 l 2,7,8
 570 1262 570 1262 614 1306 c 128,-1,9
 658 1350 658 1350 720 1350 c 256,10,11
 782 1350 782 1350 826 1306 c 128,-1,12
 870 1262 870 1262 870 1200 c 2,13,-1
 870 1050 l 2,14,15
 870 971 870 971 802 924 c 2,16,-1
 541 750 l 1,17,-1
 802 576 l 2,18,19
 870 529 870 529 870 450 c 2,20,-1
 870 300 l 2,21,22
 870 238 870 238 826 194 c 128,-1,23
 782 150 782 150 720 150 c 256,0,1
EndSplineSet
EndChar

StartChar: equal
Encoding: 61 61 32
Width: 1075
GlyphClass: 2
Flags: W
LayerCount: 2
Fore
SplineSet
775 452 m 256,0,1
 775 390 775 390 731 346 c 128,-1,2
 687 302 687 302 625 302 c 2,3,-1
 150 302 l 2,4,5
 88 302 88 302 44 346 c 128,-1,6
 0 390 0 390 0 452 c 256,7,8
 0 514 0 514 44 558 c 128,-1,9
 88 602 88 602 150 602 c 2,10,-1
 625 602 l 2,11,12
 687 602 687 602 731 558 c 128,-1,13
 775 514 775 514 775 452 c 256,0,1
775 1048 m 256,14,15
 775 986 775 986 731 942 c 128,-1,16
 687 898 687 898 625 898 c 2,17,-1
 150 898 l 2,18,19
 88 898 88 898 44 942 c 128,-1,20
 0 986 0 986 0 1048 c 256,21,22
 0 1110 0 1110 44 1154 c 128,-1,23
 88 1198 88 1198 150 1198 c 2,24,-1
 625 1198 l 2,25,26
 687 1198 687 1198 731 1154 c 128,-1,27
 775 1110 775 1110 775 1048 c 256,14,15
EndSplineSet
EndChar

StartChar: greater
Encoding: 62 62 33
Width: 1170
GlyphClass: 2
Flags: W
LayerCount: 2
Fore
SplineSet
150 150 m 256,0,1
 88 150 88 150 44 194 c 128,-1,2
 0 238 0 238 0 300 c 2,3,-1
 0 450 l 2,4,5
 0 529 0 529 69 576 c 2,6,-1
 330 750 l 1,7,-1
 69 924 l 2,8,9
 0 971 0 971 0 1050 c 2,10,-1
 0 1200 l 2,11,12
 0 1262 0 1262 44 1306 c 128,-1,13
 88 1350 88 1350 150 1350 c 256,14,15
 212 1350 212 1350 256 1306 c 128,-1,16
 300 1262 300 1262 300 1200 c 2,17,-1
 300 1130 l 1,18,-1
 870 750 l 1,19,-1
 300 370 l 1,20,-1
 300 300 l 2,21,22
 300 238 300 238 256 194 c 128,-1,23
 212 150 212 150 150 150 c 256,0,1
EndSplineSet
EndChar

StartChar: question
Encoding: 63 63 34
Width: 1500
GlyphClass: 2
Flags: W
LayerCount: 2
Fore
SplineSet
600 300 m 0,0,1
 663 300 663 300 706.5 256 c 128,-1,2
 750 212 750 212 750 149 c 0,3,4
 750 87 750 87 706 43.5 c 128,-1,5
 662 0 662 0 600 0 c 0,6,7
 537 0 537 0 493.5 44 c 128,-1,8
 450 88 450 88 450 151 c 0,9,10
 450 213 450 213 494 256.5 c 128,-1,11
 538 300 538 300 600 300 c 0,0,1
750 600 m 1,12,13
 750 538 750 538 706 494 c 128,-1,14
 662 450 662 450 600 450 c 256,15,16
 538 450 538 450 494 494 c 128,-1,17
 450 538 450 538 450 600 c 2,18,-1
 450 751 l 2,19,20
 450 813 450 813 494 856.5 c 128,-1,21
 538 900 538 900 600 900 c 2,22,-1
 838 900 l 1,23,-1
 900 962 l 1,24,-1
 900 1136 l 1,25,-1
 838 1198 l 1,26,-1
 300 1198 l 1,27,28
 300 1136 300 1136 256 1092 c 128,-1,29
 212 1048 212 1048 150 1048 c 256,30,31
 88 1048 88 1048 44 1091.5 c 128,-1,32
 0 1135 0 1135 0 1198 c 2,33,-1
 0 1348 l 2,34,35
 0 1410 0 1410 44 1454 c 128,-1,36
 88 1498 88 1498 150 1498 c 2,37,-1
 900 1498 l 2,38,39
 958 1498 958 1498 1006 1454 c 2,40,-1
 1155 1305 l 2,41,42
 1200 1260 1200 1260 1200 1198 c 2,43,-1
 1200 900 l 2,44,45
 1200 842 1200 842 1156 794 c 2,46,-1
 1007 645 l 2,47,48
 963 600 963 600 900 600 c 2,49,-1
 750 600 l 1,12,13
EndSplineSet
EndChar

StartChar: at
Encoding: 64 64 35
Width: 2702
GlyphClass: 2
Flags: W
LayerCount: 2
Fore
SplineSet
2249 -400 m 2,0,-1
 600 -400 l 2,1,2
 534 -400 534 -400 489 -351 c 1,3,-1
 55 5 l 2,4,5
 0 52 0 52 0 113 c 2,6,-1
 0 1343 l 2,7,8
 0 1413 0 1413 51 1457 c 2,9,-1
 493 1847 l 2,10,11
 540 1892 540 1892 600 1892 c 2,12,-1
 1799 1899 l 2,13,14
 1871 1897 1871 1897 1915 1846 c 1,15,-1
 2357 1448 l 1,16,17
 2402 1397 2402 1397 2402 1331 c 2,18,-1
 2402 294 l 2,19,20
 2402 232 2402 232 2357 188 c 128,-1,21
 2312 144 2312 144 2249 144 c 2,22,-1
 758 144 l 2,23,24
 696 144 696 144 652 188 c 128,-1,25
 608 232 608 232 608 294 c 2,26,-1
 608 688 l 2,27,28
 608 777 608 777 711 811 c 2,29,-1
 1410 1044 l 1,30,-1
 908 1044 l 1,31,32
 908 982 908 982 864 938 c 128,-1,33
 820 894 820 894 758 894 c 256,34,35
 696 894 696 894 652 938 c 128,-1,36
 608 982 608 982 608 1044 c 2,37,-1
 608 1194 l 2,38,39
 608 1256 608 1256 652 1300 c 128,-1,40
 696 1344 696 1344 758 1344 c 2,41,-1
 1658 1344 l 2,42,43
 1720 1344 1720 1344 1764 1300 c 128,-1,44
 1808 1256 1808 1256 1808 1194 c 2,45,-1
 1808 444 l 1,46,-1
 2100 444 l 1,47,-1
 2100 1283 l 1,48,-1
 1737 1600 l 1,49,-1
 663 1593 l 1,50,-1
 300 1283 l 1,51,-1
 300 178 l 1,52,-1
 659 -100 l 1,53,-1
 2249 -100 l 2,54,55
 2312 -100 2312 -100 2355.5 -144 c 128,-1,56
 2399 -188 2399 -188 2399 -250 c 256,57,58
 2399 -312 2399 -312 2355.5 -356 c 128,-1,59
 2312 -400 2312 -400 2249 -400 c 2,0,-1
1508 444 m 1,60,-1
 1508 762 l 1,61,-1
 907 562 l 1,62,-1
 907 444 l 1,63,-1
 1508 444 l 1,60,-1
EndSplineSet
EndChar

StartChar: A
Encoding: 65 65 36
Width: 1500
GlyphClass: 2
Flags: W
LayerCount: 2
Fore
SplineSet
1050 0 m 256,0,1
 988 0 988 0 944 44 c 128,-1,2
 900 88 900 88 900 150 c 2,3,-1
 900 350 l 1,4,-1
 300 350 l 1,5,-1
 300 150 l 2,6,7
 300 88 300 88 256 44 c 128,-1,8
 212 0 212 0 150 0 c 256,9,10
 88 0 88 0 44 44 c 128,-1,11
 0 88 0 88 0 150 c 2,12,-1
 0 749 l 2,13,14
 0 798 0 798 31 839 c 2,15,-1
 470 1429 l 2,16,17
 487 1452 487 1452 511 1469 c 0,18,19
 552 1500 552 1500 600 1500 c 0,20,21
 680 1500 680 1500 723 1442 c 2,22,-1
 1166 854 l 2,23,24
 1200 808 1200 808 1200 750 c 2,25,-1
 1200 150 l 2,26,27
 1200 88 1200 88 1156 44 c 128,-1,28
 1112 0 1112 0 1050 0 c 256,0,1
900 650 m 1,29,-1
 900 701 l 1,30,-1
 600 1101 l 1,31,-1
 300 701 l 1,32,-1
 300 650 l 1,33,-1
 900 650 l 1,29,-1
EndSplineSet
EndChar

StartChar: B
Encoding: 66 66 37
Width: 1499
GlyphClass: 2
Flags: W
LayerCount: 2
Fore
SplineSet
900 300 m 1,0,-1
 900 539 l 1,1,-1
 855 494 l 2,2,3
 807 450 807 450 749 450 c 0,4,5
 692 450 692 450 643 494 c 1,6,7
 599 542 599 542 599 600 c 0,8,9
 599 660 599 660 643 706 c 2,10,-1
 900 962 l 1,11,-1
 900 1200 l 1,12,-1
 300 1200 l 1,13,-1
 300 300 l 1,14,-1
 900 300 l 1,0,-1
1049 0 m 2,15,-1
 150 0 l 2,16,17
 87 0 87 0 43.5 44 c 128,-1,18
 0 88 0 88 0 150 c 2,19,-1
 0 1350 l 2,20,21
 0 1412 0 1412 43.5 1456 c 128,-1,22
 87 1500 87 1500 150 1500 c 2,23,-1
 1049 1500 l 2,24,25
 1111 1500 1111 1500 1155 1456 c 128,-1,26
 1199 1412 1199 1412 1199 1350 c 2,27,-1
 1199 901 l 2,28,29
 1199 841 1199 841 1155 794 c 2,30,-1
 1111 750 l 1,31,-1
 1155 706 l 2,32,33
 1199 659 1199 659 1199 599 c 2,34,-1
 1199 150 l 2,35,36
 1199 88 1199 88 1155 44 c 128,-1,37
 1111 0 1111 0 1049 0 c 2,15,-1
EndSplineSet
EndChar

StartChar: C
Encoding: 67 67 38
Width: 1500
GlyphClass: 2
Flags: W
LayerCount: 2
Fore
SplineSet
1050 0 m 2,0,-1
 300 0 l 2,1,2
 237 0 237 0 193 44 c 2,3,-1
 44 193 l 2,4,5
 0 240 0 240 0 300 c 2,6,-1
 0 1199 l 2,7,8
 0 1262 0 1262 45 1306 c 2,9,-1
 194 1455 l 2,10,11
 240 1499 240 1499 300 1499 c 2,12,-1
 1050 1499 l 2,13,14
 1112 1499 1112 1499 1156 1455 c 128,-1,15
 1200 1411 1200 1411 1200 1349 c 2,16,-1
 1200 1199 l 2,17,18
 1200 1137 1200 1137 1156 1093 c 128,-1,19
 1112 1049 1112 1049 1050 1049 c 256,20,21
 988 1049 988 1049 944 1093 c 128,-1,22
 900 1137 900 1137 900 1199 c 1,23,-1
 362 1199 l 1,24,-1
 300 1137 l 1,25,-1
 300 362 l 1,26,-1
 362 300 l 1,27,-1
 908 300 l 1,28,29
 952 399 952 399 1050 399 c 0,30,31
 1112 399 1112 399 1156 355.5 c 128,-1,32
 1200 312 1200 312 1200 250 c 2,33,-1
 1200 150 l 2,34,35
 1200 87 1200 87 1156 43.5 c 128,-1,36
 1112 0 1112 0 1050 0 c 2,0,-1
EndSplineSet
EndChar

StartChar: D
Encoding: 68 68 39
Width: 1500
GlyphClass: 2
Flags: W
LayerCount: 2
Fore
SplineSet
838 300 m 1,0,-1
 900 362 l 1,1,-1
 900 1137 l 1,2,-1
 838 1199 l 1,3,-1
 300 1199 l 1,4,-1
 300 300 l 1,5,-1
 838 300 l 1,0,-1
900 0 m 2,6,-1
 150 0 l 2,7,8
 88 0 88 0 44 43.5 c 128,-1,9
 0 87 0 87 0 150 c 2,10,-1
 0 1349 l 2,11,12
 0 1411 0 1411 44 1455 c 128,-1,13
 88 1499 88 1499 150 1499 c 2,14,-1
 900 1499 l 2,15,16
 961 1499 961 1499 1006 1455 c 2,17,-1
 1155 1306 l 2,18,19
 1200 1262 1200 1262 1200 1199 c 2,20,-1
 1200 300 l 2,21,22
 1200 240 1200 240 1156 193 c 2,23,-1
 1007 44 l 2,24,25
 963 0 963 0 900 0 c 2,6,-1
EndSplineSet
EndChar

StartChar: E
Encoding: 69 69 40
Width: 1501
GlyphClass: 2
Flags: W
LayerCount: 2
Fore
SplineSet
1051 0 m 2,0,-1
 151 0 l 2,1,2
 89 0 89 0 45 44 c 128,-1,3
 1 88 1 88 1 150 c 2,4,-1
 0 599 l 2,5,6
 0 658 0 658 45 706 c 2,7,-1
 89 750 l 1,8,-1
 45 794 l 2,9,10
 0 841 0 841 0 900 c 2,11,-1
 1 1350 l 2,12,13
 1 1412 1 1412 45 1456 c 128,-1,14
 89 1500 89 1500 151 1500 c 2,15,-1
 1051 1500 l 2,16,17
 1113 1500 1113 1500 1157 1456 c 128,-1,18
 1201 1412 1201 1412 1201 1350 c 2,19,-1
 1201 1200 l 2,20,21
 1201 1138 1201 1138 1157 1094 c 128,-1,22
 1113 1050 1113 1050 1051 1050 c 0,23,24
 988 1050 988 1050 944.5 1094 c 128,-1,25
 901 1138 901 1138 901 1200 c 1,26,-1
 300 1200 l 1,27,-1
 300 962 l 1,28,-1
 557 706 l 2,29,30
 601 661 601 661 601 600 c 0,31,32
 601 542 601 542 554.5 496 c 128,-1,33
 508 450 508 450 451 450 c 0,34,35
 393 450 393 450 345 494 c 2,36,-1
 300 539 l 1,37,-1
 300 300 l 1,38,-1
 1051 300 l 2,39,40
 1113 300 1113 300 1157 256 c 128,-1,41
 1201 212 1201 212 1201 150 c 256,42,43
 1201 88 1201 88 1157 44 c 128,-1,44
 1113 0 1113 0 1051 0 c 2,0,-1
EndSplineSet
EndChar

StartChar: F
Encoding: 70 70 41
Width: 1500
GlyphClass: 2
Flags: W
LayerCount: 2
Fore
SplineSet
150 0 m 256,0,1
 88 0 88 0 44 43.5 c 128,-1,2
 0 87 0 87 0 149 c 2,3,-1
 0 600 l 2,4,5
 0 658 0 658 44 705 c 2,6,-1
 88 749 l 1,7,-1
 44 793 l 2,8,9
 0 839 0 839 0 897 c 2,10,-1
 0 1349 l 2,11,12
 0 1411 0 1411 44 1455 c 128,-1,13
 88 1499 88 1499 150 1499 c 2,14,-1
 1050 1499 l 2,15,16
 1112 1499 1112 1499 1156 1455 c 128,-1,17
 1200 1411 1200 1411 1200 1349 c 2,18,-1
 1200 1199 l 2,19,20
 1200 1137 1200 1137 1156 1093 c 128,-1,21
 1112 1049 1112 1049 1050 1049 c 256,22,23
 988 1049 988 1049 944 1093 c 128,-1,24
 900 1137 900 1137 900 1199 c 1,25,-1
 300 1199 l 1,26,-1
 300 961 l 1,27,-1
 556 705 l 2,28,29
 600 656 600 656 600 599 c 0,30,31
 600 541 600 541 556 493 c 0,32,33
 514 449 514 449 450 449 c 0,34,35
 390 449 390 449 344 493 c 2,36,-1
 300 538 l 1,37,-1
 300 149 l 2,38,39
 300 87 300 87 256 43.5 c 128,-1,40
 212 0 212 0 150 0 c 256,0,1
EndSplineSet
EndChar

StartChar: G
Encoding: 71 71 42
Width: 1499
GlyphClass: 2
Flags: W
LayerCount: 2
Fore
SplineSet
1049 0 m 2,0,-1
 150 0 l 2,1,2
 88 0 88 0 44 44 c 128,-1,3
 0 88 0 88 0 150 c 2,4,-1
 0 1350 l 2,5,6
 0 1412 0 1412 44 1456 c 128,-1,7
 88 1500 88 1500 150 1500 c 2,8,-1
 1049 1500 l 2,9,10
 1112 1500 1112 1500 1155.5 1456 c 128,-1,11
 1199 1412 1199 1412 1199 1350 c 2,12,-1
 1199 1200 l 2,13,14
 1199 1138 1199 1138 1155 1094 c 128,-1,15
 1111 1050 1111 1050 1049 1050 c 0,16,17
 988 1050 988 1050 944 1094 c 128,-1,18
 900 1138 900 1138 900 1200 c 1,19,-1
 300 1200 l 1,20,-1
 300 300 l 1,21,-1
 900 300 l 1,22,-1
 900 600 l 1,23,-1
 825 600 l 1,24,-1
 699 488 l 2,25,26
 654 449 654 449 599 449 c 0,27,28
 531 449 531 449 488 500 c 0,29,30
 450 545 450 545 450 600 c 0,31,32
 450 668 450 668 500 712 c 2,33,-1
 663 857 l 2,34,35
 710 900 710 900 768 900 c 2,36,-1
 1049 900 l 2,37,38
 1112 900 1112 900 1155.5 856 c 128,-1,39
 1199 812 1199 812 1199 750 c 2,40,-1
 1199 150 l 2,41,42
 1199 88 1199 88 1155.5 44 c 128,-1,43
 1112 0 1112 0 1049 0 c 2,0,-1
EndSplineSet
EndChar

StartChar: H
Encoding: 72 72 43
Width: 1500
GlyphClass: 2
Flags: W
LayerCount: 2
Fore
SplineSet
1050 0 m 256,0,1
 988 0 988 0 944 43.5 c 128,-1,2
 900 87 900 87 900 150 c 2,3,-1
 900 599 l 1,4,-1
 300 599 l 1,5,-1
 300 150 l 2,6,7
 300 87 300 87 256 43.5 c 128,-1,8
 212 0 212 0 150 0 c 256,9,10
 88 0 88 0 44 43.5 c 128,-1,11
 0 87 0 87 0 150 c 2,12,-1
 0 1349 l 2,13,14
 0 1411 0 1411 44 1455 c 128,-1,15
 88 1499 88 1499 150 1499 c 256,16,17
 212 1499 212 1499 256 1455 c 128,-1,18
 300 1411 300 1411 300 1349 c 2,19,-1
 300 899 l 1,20,-1
 900 899 l 1,21,-1
 900 1349 l 2,22,23
 900 1411 900 1411 944 1455 c 128,-1,24
 988 1499 988 1499 1050 1499 c 256,25,26
 1112 1499 1112 1499 1156 1455 c 128,-1,27
 1200 1411 1200 1411 1200 1349 c 2,28,-1
 1200 150 l 2,29,30
 1200 87 1200 87 1156 43.5 c 128,-1,31
 1112 0 1112 0 1050 0 c 256,0,1
EndSplineSet
EndChar

StartChar: I
Encoding: 73 73 44
Width: 600
GlyphClass: 2
Flags: W
LayerCount: 2
Fore
SplineSet
150 0 m 256,0,1
 88 0 88 0 44 43.5 c 128,-1,2
 0 87 0 87 0 150 c 2,3,-1
 0 1349 l 2,4,5
 0 1411 0 1411 44 1455 c 128,-1,6
 88 1499 88 1499 150 1499 c 256,7,8
 212 1499 212 1499 256 1455 c 128,-1,9
 300 1411 300 1411 300 1349 c 2,10,-1
 300 150 l 2,11,12
 300 87 300 87 256 43.5 c 128,-1,13
 212 0 212 0 150 0 c 256,0,1
EndSplineSet
EndChar

StartChar: J
Encoding: 74 74 45
Width: 1500
GlyphClass: 2
Flags: W
LayerCount: 2
Fore
SplineSet
900 0 m 2,0,-1
 150 0 l 2,1,2
 88 0 88 0 44 43.5 c 128,-1,3
 0 87 0 87 0 150 c 2,4,-1
 0 250 l 2,5,6
 0 312 0 312 44 355.5 c 128,-1,7
 88 399 88 399 150 399 c 0,8,9
 248 399 248 399 291 300 c 1,10,-1
 838 300 l 1,11,-1
 900 362 l 1,12,-1
 900 1137 l 1,13,-1
 838 1199 l 1,14,-1
 300 1199 l 1,15,16
 300 1137 300 1137 256 1093 c 128,-1,17
 212 1049 212 1049 150 1049 c 256,18,19
 88 1049 88 1049 44 1093 c 128,-1,20
 0 1137 0 1137 0 1199 c 2,21,-1
 0 1349 l 2,22,23
 0 1411 0 1411 44 1455 c 128,-1,24
 88 1499 88 1499 150 1499 c 2,25,-1
 900 1499 l 2,26,27
 960 1499 960 1499 1006 1455 c 2,28,-1
 1155 1306 l 2,29,30
 1200 1262 1200 1262 1200 1199 c 2,31,-1
 1200 300 l 2,32,33
 1200 239 1200 239 1156 193 c 2,34,-1
 1007 44 l 2,35,36
 963 0 963 0 900 0 c 2,0,-1
EndSplineSet
EndChar

StartChar: K
Encoding: 75 75 46
Width: 1500
GlyphClass: 2
Flags: W
LayerCount: 2
Fore
SplineSet
1050 0 m 0,0,1
 960 0 960 0 917 83 c 2,2,-1
 658 600 l 1,3,-1
 300 600 l 1,4,-1
 300 150 l 2,5,6
 300 88 300 88 256.5 44 c 128,-1,7
 213 0 213 0 150 0 c 0,8,9
 88 0 88 0 44 44 c 128,-1,10
 0 88 0 88 0 150 c 2,11,-1
 0 1350 l 2,12,13
 0 1412 0 1412 44 1456 c 128,-1,14
 88 1500 88 1500 150 1500 c 0,15,16
 213 1500 213 1500 256.5 1456 c 128,-1,17
 300 1412 300 1412 300 1350 c 2,18,-1
 300 900 l 1,19,-1
 658 900 l 1,20,-1
 917 1416 l 2,21,22
 946 1473 946 1473 1003 1491 c 0,23,24
 1026 1498 1026 1498 1050 1498 c 0,25,26
 1086 1498 1086 1498 1117 1483 c 0,27,28
 1173 1453 1173 1453 1192 1397 c 0,29,30
 1200 1373 1200 1373 1200 1349 c 0,31,32
 1200 1316 1200 1316 1184 1283 c 2,33,-1
 917 750 l 1,34,-1
 1184 217 l 2,35,36
 1200 184 1200 184 1200 149 c 0,37,38
 1200 60 1200 60 1117 16 c 0,39,40
 1086 0 1086 0 1050 0 c 0,0,1
EndSplineSet
EndChar

StartChar: L
Encoding: 76 76 47
Width: 1499
GlyphClass: 2
Flags: W
LayerCount: 2
Fore
SplineSet
1049 0 m 2,0,-1
 300 0 l 2,1,2
 237 0 237 0 193 44 c 2,3,-1
 44 193 l 2,4,5
 0 239 0 239 0 300 c 2,6,-1
 0 1349 l 2,7,8
 0 1411 0 1411 44 1455 c 128,-1,9
 88 1499 88 1499 150 1499 c 256,10,11
 212 1499 212 1499 256 1455 c 128,-1,12
 300 1411 300 1411 300 1349 c 2,13,-1
 300 362 l 1,14,-1
 362 300 l 1,15,-1
 908 300 l 1,16,17
 952 399 952 399 1049 399 c 0,18,19
 1112 399 1112 399 1155.5 355.5 c 128,-1,20
 1199 312 1199 312 1199 250 c 2,21,-1
 1199 150 l 2,22,23
 1199 87 1199 87 1155.5 43.5 c 128,-1,24
 1112 0 1112 0 1049 0 c 2,0,-1
EndSplineSet
EndChar

StartChar: M
Encoding: 77 77 48
Width: 2400
GlyphClass: 2
Flags: W
LayerCount: 2
Fore
SplineSet
1950 0 m 0,0,1
 1887 0 1887 0 1843.5 43.5 c 128,-1,2
 1800 87 1800 87 1800 150 c 2,3,-1
 1800 1137 l 1,4,-1
 1737 1199 l 1,5,-1
 1200 1199 l 1,6,-1
 1200 150 l 2,7,8
 1200 87 1200 87 1156 43.5 c 128,-1,9
 1112 0 1112 0 1050 0 c 256,10,11
 988 0 988 0 944 43.5 c 128,-1,12
 900 87 900 87 900 150 c 2,13,-1
 900 1199 l 1,14,-1
 362 1199 l 1,15,-1
 300 1137 l 1,16,-1
 300 150 l 2,17,18
 300 87 300 87 256 43.5 c 128,-1,19
 212 0 212 0 150 0 c 256,20,21
 88 0 88 0 44 43.5 c 128,-1,22
 0 87 0 87 0 150 c 2,23,-1
 0 1199 l 2,24,25
 0 1259 0 1259 44 1305 c 2,26,-1
 193 1454 l 2,27,28
 237 1499 237 1499 300 1499 c 2,29,-1
 1800 1499 l 2,30,31
 1862 1499 1862 1499 1907 1454 c 2,32,-1
 2056 1305 l 2,33,34
 2100 1259 2100 1259 2100 1199 c 2,35,-1
 2100 150 l 2,36,37
 2100 87 2100 87 2056 43.5 c 128,-1,38
 2012 0 2012 0 1950 0 c 0,0,1
EndSplineSet
EndChar

StartChar: N
Encoding: 78 78 49
Width: 1500
GlyphClass: 2
Flags: W
LayerCount: 2
Fore
SplineSet
1050 0 m 0,0,1
 973 0 973 0 923 71 c 2,2,-1
 300 900 l 1,3,-1
 300 150 l 2,4,5
 300 87 300 87 256.5 43.5 c 128,-1,6
 213 0 213 0 150 0 c 0,7,8
 88 0 88 0 44 43.5 c 128,-1,9
 0 87 0 87 0 150 c 2,10,-1
 0 1349 l 2,11,12
 0 1411 0 1411 44 1455 c 128,-1,13
 88 1499 88 1499 150 1499 c 0,14,15
 227 1499 227 1499 278 1428 c 2,16,-1
 900 598 l 1,17,-1
 900 1349 l 2,18,19
 900 1411 900 1411 944 1455 c 128,-1,20
 988 1499 988 1499 1050 1499 c 256,21,22
 1112 1499 1112 1499 1156 1455 c 128,-1,23
 1200 1411 1200 1411 1200 1349 c 2,24,-1
 1200 150 l 2,25,26
 1200 87 1200 87 1156 43.5 c 128,-1,27
 1112 0 1112 0 1050 0 c 0,0,1
EndSplineSet
EndChar

StartChar: O
Encoding: 79 79 50
Width: 1500
GlyphClass: 2
Flags: W
LayerCount: 2
Fore
SplineSet
838 300 m 1,0,-1
 900 362 l 1,1,-1
 900 1137 l 1,2,-1
 838 1199 l 1,3,-1
 362 1199 l 1,4,-1
 300 1137 l 1,5,-1
 300 362 l 1,6,-1
 362 300 l 1,7,-1
 838 300 l 1,0,-1
900 0 m 2,8,-1
 300 0 l 2,9,10
 242 0 242 0 194 44 c 2,11,-1
 45 193 l 2,12,13
 0 237 0 237 0 300 c 2,14,-1
 0 1199 l 2,15,16
 0 1257 0 1257 44 1305 c 2,17,-1
 193 1454 l 2,18,19
 237 1499 237 1499 300 1499 c 2,20,-1
 900 1499 l 2,21,22
 960 1499 960 1499 1006 1455 c 2,23,-1
 1155 1306 l 2,24,25
 1200 1262 1200 1262 1200 1199 c 2,26,-1
 1200 300 l 2,27,28
 1200 240 1200 240 1156 193 c 2,29,-1
 1007 44 l 2,30,31
 963 0 963 0 900 0 c 2,8,-1
EndSplineSet
EndChar

StartChar: P
Encoding: 80 80 51
Width: 1500
GlyphClass: 2
Flags: W
LayerCount: 2
Fore
SplineSet
150 0 m 256,0,1
 88 0 88 0 44 43.5 c 128,-1,2
 0 87 0 87 0 150 c 2,3,-1
 0 1349 l 2,4,5
 0 1411 0 1411 44 1455 c 128,-1,6
 88 1499 88 1499 150 1499 c 2,7,-1
 1050 1499 l 2,8,9
 1112 1499 1112 1499 1156 1455 c 128,-1,10
 1200 1411 1200 1411 1200 1349 c 2,11,-1
 1200 899 l 2,12,13
 1200 837 1200 837 1155 792 c 2,14,-1
 856 493 l 2,15,16
 809 449 809 449 750 449 c 2,17,-1
 300 449 l 1,18,-1
 300 150 l 2,19,20
 300 87 300 87 256 43.5 c 128,-1,21
 212 0 212 0 150 0 c 256,0,1
688 749 m 1,22,-1
 900 962 l 1,23,-1
 900 1199 l 1,24,-1
 300 1199 l 1,25,-1
 300 749 l 1,26,-1
 688 749 l 1,22,-1
EndSplineSet
EndChar

StartChar: Q
Encoding: 81 81 52
Width: 1500
GlyphClass: 2
Flags: W
LayerCount: 2
Fore
SplineSet
1050 0 m 0,0,1
 1007 0 1007 0 965 27 c 2,2,-1
 517 326 l 2,3,4
 450 374 450 374 450 452 c 2,5,-1
 450 751 l 2,6,7
 450 813 450 813 494 857 c 128,-1,8
 538 901 538 901 600 901 c 256,9,10
 662 901 662 901 706 857 c 128,-1,11
 750 813 750 813 750 751 c 2,12,-1
 750 531 l 1,13,-1
 900 431 l 1,14,-1
 900 1201 l 1,15,-1
 300 1201 l 1,16,-1
 300 301 l 1,17,-1
 450 301 l 2,18,19
 512 301 512 301 556 257 c 128,-1,20
 600 213 600 213 600 151 c 256,21,22
 600 89 600 89 556 45 c 128,-1,23
 512 1 512 1 450 1 c 2,24,-1
 150 1 l 2,25,26
 88 1 88 1 44 45 c 128,-1,27
 0 89 0 89 0 151 c 2,28,-1
 0 1351 l 2,29,30
 0 1413 0 1413 44 1457 c 128,-1,31
 88 1501 88 1501 150 1501 c 2,32,-1
 1050 1501 l 2,33,34
 1112 1501 1112 1501 1156 1457 c 128,-1,35
 1200 1413 1200 1413 1200 1351 c 2,36,-1
 1200 151 l 2,37,38
 1200 91 1200 91 1162 51 c 0,39,40
 1114 0 1114 0 1050 0 c 0,0,1
EndSplineSet
EndChar

StartChar: R
Encoding: 82 82 53
Width: 1500
GlyphClass: 2
Flags: W
LayerCount: 2
Fore
SplineSet
150 0 m 256,0,1
 88 0 88 0 44 44 c 128,-1,2
 0 88 0 88 0 150 c 2,3,-1
 0 1350 l 2,4,5
 0 1412 0 1412 44 1456 c 128,-1,6
 88 1500 88 1500 150 1500 c 2,7,-1
 1050 1500 l 2,8,9
 1112 1500 1112 1500 1156 1456 c 128,-1,10
 1200 1412 1200 1412 1200 1350 c 2,11,-1
 1200 898 l 2,12,13
 1200 840 1200 840 1156 794 c 2,14,-1
 1112 750 l 1,15,-1
 1156 706 l 2,16,17
 1200 659 1200 659 1200 601 c 2,18,-1
 1199 150 l 2,19,20
 1199 88 1199 88 1155 44.5 c 128,-1,21
 1111 1 1111 1 1050 1 c 0,22,23
 988 1 988 1 944 44.5 c 128,-1,24
 900 88 900 88 900 150 c 2,25,-1
 900 538 l 1,26,-1
 856 494 l 2,27,28
 807 450 807 450 750 450 c 0,29,30
 692 450 692 450 644 494 c 1,31,32
 600 542 600 542 600 600 c 0,33,34
 600 659 600 659 644 706 c 2,35,-1
 900 962 l 1,36,-1
 900 1200 l 1,37,-1
 300 1200 l 1,38,-1
 300 150 l 2,39,40
 300 88 300 88 256 44 c 128,-1,41
 212 0 212 0 150 0 c 256,0,1
EndSplineSet
EndChar

StartChar: S
Encoding: 83 83 54
Width: 1500
GlyphClass: 2
Flags: W
LayerCount: 2
Fore
SplineSet
1050 0 m 2,0,-1
 150 0 l 2,1,2
 88 0 88 0 44 44 c 128,-1,3
 0 88 0 88 0 150 c 2,4,-1
 0 300 l 2,5,6
 0 362 0 362 44 406 c 128,-1,7
 88 450 88 450 150 450 c 0,8,9
 213 450 213 450 256.5 406 c 128,-1,10
 300 362 300 362 300 300 c 1,11,-1
 901 300 l 1,12,-1
 901 492 l 1,13,-1
 108 756 l 2,14,15
 61 771 61 771 31 810 c 128,-1,16
 1 849 1 849 1 900 c 2,17,-1
 1 1350 l 1,18,-1
 0 1350 l 1,19,20
 0 1412 0 1412 44 1456 c 128,-1,21
 88 1500 88 1500 150 1500 c 2,22,-1
 1050 1500 l 2,23,24
 1112 1500 1112 1500 1156 1456 c 128,-1,25
 1200 1412 1200 1412 1200 1350 c 2,26,-1
 1200 1200 l 2,27,28
 1200 1138 1200 1138 1156 1094 c 128,-1,29
 1112 1050 1112 1050 1050 1050 c 256,30,31
 988 1050 988 1050 944 1094 c 128,-1,32
 900 1138 900 1138 900 1200 c 1,33,-1
 300 1200 l 1,34,-1
 300 1007 l 1,35,-1
 1098 742 l 2,36,37
 1149 724 1149 724 1176 681 c 0,38,39
 1200 643 1200 643 1200 598 c 2,40,-1
 1200 150 l 2,41,42
 1200 88 1200 88 1156 44 c 128,-1,43
 1112 0 1112 0 1050 0 c 2,0,-1
EndSplineSet
EndChar

StartChar: T
Encoding: 84 84 55
Width: 1500
GlyphClass: 2
Flags: W
LayerCount: 2
Fore
SplineSet
600 0 m 256,0,1
 538 0 538 0 494 43.5 c 128,-1,2
 450 87 450 87 450 150 c 2,3,-1
 450 1199 l 1,4,-1
 300 1199 l 1,5,6
 300 1137 300 1137 256 1093.5 c 128,-1,7
 212 1050 212 1050 150 1050 c 0,8,9
 89 1050 89 1050 44.5 1093.5 c 128,-1,10
 0 1137 0 1137 0 1199 c 2,11,-1
 0 1349 l 2,12,13
 0 1411 0 1411 44 1455 c 128,-1,14
 88 1499 88 1499 150 1499 c 2,15,-1
 1050 1499 l 2,16,17
 1112 1499 1112 1499 1156 1455 c 128,-1,18
 1200 1411 1200 1411 1200 1349 c 2,19,-1
 1200 1199 l 2,20,21
 1200 1137 1200 1137 1156 1093 c 128,-1,22
 1112 1049 1112 1049 1050 1049 c 256,23,24
 988 1049 988 1049 944 1093 c 128,-1,25
 900 1137 900 1137 900 1199 c 1,26,-1
 750 1199 l 1,27,-1
 750 150 l 2,28,29
 750 87 750 87 706 43.5 c 128,-1,30
 662 0 662 0 600 0 c 256,0,1
EndSplineSet
EndChar

StartChar: U
Encoding: 85 85 56
Width: 1500
GlyphClass: 2
Flags: W
LayerCount: 2
Fore
SplineSet
900 0 m 2,0,-1
 300 0 l 2,1,2
 240 0 240 0 194 44 c 2,3,-1
 45 193 l 2,4,5
 0 237 0 237 0 300 c 2,6,-1
 0 1349 l 2,7,8
 0 1411 0 1411 44 1455 c 128,-1,9
 88 1499 88 1499 150 1499 c 256,10,11
 212 1499 212 1499 256 1455 c 128,-1,12
 300 1411 300 1411 300 1349 c 2,13,-1
 300 362 l 1,14,-1
 362 300 l 1,15,-1
 838 300 l 1,16,-1
 900 362 l 1,17,-1
 900 1349 l 2,18,19
 900 1411 900 1411 944 1455 c 128,-1,20
 988 1499 988 1499 1050 1499 c 256,21,22
 1112 1499 1112 1499 1156 1455 c 128,-1,23
 1200 1411 1200 1411 1200 1349 c 2,24,-1
 1200 300 l 2,25,26
 1200 240 1200 240 1156 193 c 2,27,-1
 1007 44 l 2,28,29
 963 0 963 0 900 0 c 2,0,-1
EndSplineSet
EndChar

StartChar: V
Encoding: 86 86 57
Width: 1500
GlyphClass: 2
Flags: W
LayerCount: 2
Fore
SplineSet
601 0 m 0,0,1
 527 0 527 0 480 60 c 2,2,-1
 39 650 l 1,3,4
 0 692 0 692 0 750 c 2,5,-1
 0 1350 l 2,6,7
 0 1412 0 1412 44 1456 c 128,-1,8
 88 1500 88 1500 150 1500 c 256,9,10
 212 1500 212 1500 256 1456 c 128,-1,11
 300 1412 300 1412 300 1350 c 2,12,-1
 300 799 l 1,13,-1
 600 399 l 1,14,-1
 900 799 l 1,15,-1
 900 1350 l 2,16,17
 900 1412 900 1412 944 1456 c 128,-1,18
 988 1500 988 1500 1050 1500 c 256,19,20
 1112 1500 1112 1500 1156 1456 c 128,-1,21
 1200 1412 1200 1412 1200 1350 c 2,22,-1
 1200 750 l 2,23,24
 1200 692 1200 692 1161 650 c 1,25,-1
 720 60 l 2,26,27
 673 0 673 0 601 0 c 0,0,1
EndSplineSet
EndChar

StartChar: W
Encoding: 87 87 58
Width: 2400
GlyphClass: 2
Flags: W
LayerCount: 2
Fore
SplineSet
1800 0 m 2,0,-1
 300 0 l 2,1,2
 237 0 237 0 193 45 c 2,3,-1
 44 194 l 2,4,5
 0 240 0 240 0 300 c 2,6,-1
 0 1350 l 2,7,8
 0 1412 0 1412 44 1456 c 128,-1,9
 88 1500 88 1500 150 1500 c 256,10,11
 212 1500 212 1500 256 1456 c 128,-1,12
 300 1412 300 1412 300 1350 c 2,13,-1
 300 362 l 1,14,-1
 362 300 l 1,15,-1
 900 300 l 1,16,-1
 900 1350 l 2,17,18
 900 1412 900 1412 944 1456 c 128,-1,19
 988 1500 988 1500 1050 1500 c 256,20,21
 1112 1500 1112 1500 1156 1456 c 128,-1,22
 1200 1412 1200 1412 1200 1350 c 2,23,-1
 1200 300 l 1,24,-1
 1737 300 l 1,25,-1
 1800 362 l 1,26,-1
 1800 1350 l 2,27,28
 1800 1412 1800 1412 1843.5 1456 c 128,-1,29
 1887 1500 1887 1500 1950 1500 c 0,30,31
 2012 1500 2012 1500 2056 1456 c 128,-1,32
 2100 1412 2100 1412 2100 1350 c 2,33,-1
 2100 300 l 2,34,35
 2100 240 2100 240 2056 194 c 2,36,-1
 1907 45 l 2,37,38
 1862 0 1862 0 1800 0 c 2,0,-1
EndSplineSet
EndChar

StartChar: X
Encoding: 88 88 59
Width: 1500
GlyphClass: 2
Flags: W
LayerCount: 2
Fore
SplineSet
1050 0 m 0,0,1
 987 0 987 0 943.5 44 c 128,-1,2
 900 88 900 88 900 150 c 2,3,-1
 900 238 l 1,4,-1
 600 538 l 1,5,-1
 300 238 l 1,6,-1
 300 150 l 2,7,8
 300 88 300 88 256 44 c 128,-1,9
 212 0 212 0 150 0 c 256,10,11
 88 0 88 0 44 44 c 128,-1,12
 0 88 0 88 0 150 c 2,13,-1
 0 300 l 2,14,15
 0 363 0 363 45 407 c 2,16,-1
 388 750 l 1,17,-1
 45 1093 l 2,18,19
 0 1137 0 1137 0 1200 c 2,20,-1
 0 1350 l 2,21,22
 0 1412 0 1412 44 1456 c 128,-1,23
 88 1500 88 1500 150 1500 c 256,24,25
 212 1500 212 1500 256 1456 c 128,-1,26
 300 1412 300 1412 300 1350 c 2,27,-1
 300 1262 l 1,28,-1
 600 962 l 1,29,-1
 900 1262 l 1,30,-1
 900 1350 l 2,31,32
 900 1412 900 1412 943.5 1456 c 128,-1,33
 987 1500 987 1500 1050 1500 c 0,34,35
 1112 1500 1112 1500 1156 1456 c 128,-1,36
 1200 1412 1200 1412 1200 1350 c 2,37,-1
 1200 1200 l 2,38,39
 1200 1140 1200 1140 1156 1094 c 2,40,-1
 812 750 l 1,41,-1
 1156 406 l 2,42,43
 1200 360 1200 360 1200 300 c 2,44,-1
 1200 150 l 2,45,46
 1200 88 1200 88 1156 44 c 128,-1,47
 1112 0 1112 0 1050 0 c 0,0,1
EndSplineSet
EndChar

StartChar: Y
Encoding: 89 89 60
Width: 1500
GlyphClass: 2
Flags: W
LayerCount: 2
Fore
SplineSet
600 0 m 256,0,1
 538 0 538 0 494 44 c 128,-1,2
 450 88 450 88 450 150 c 2,3,-1
 450 688 l 1,4,-1
 45 1093 l 2,5,6
 0 1137 0 1137 0 1200 c 2,7,-1
 0 1350 l 2,8,9
 0 1412 0 1412 44 1456 c 128,-1,10
 88 1500 88 1500 150 1500 c 0,11,12
 213 1500 213 1500 256.5 1456 c 128,-1,13
 300 1412 300 1412 300 1350 c 2,14,-1
 300 1262 l 1,15,-1
 600 962 l 1,16,-1
 900 1262 l 1,17,-1
 900 1350 l 2,18,19
 900 1412 900 1412 944 1456 c 128,-1,20
 988 1500 988 1500 1050 1500 c 256,21,22
 1112 1500 1112 1500 1156 1456 c 128,-1,23
 1200 1412 1200 1412 1200 1350 c 2,24,-1
 1200 1200 l 2,25,26
 1200 1140 1200 1140 1156 1094 c 2,27,-1
 750 688 l 1,28,-1
 750 150 l 2,29,30
 750 88 750 88 706 44 c 128,-1,31
 662 0 662 0 600 0 c 256,0,1
EndSplineSet
EndChar

StartChar: Z
Encoding: 90 90 61
Width: 1499
GlyphClass: 2
Flags: W
LayerCount: 2
Fore
SplineSet
1049 0 m 2,0,-1
 150 0 l 2,1,2
 102 0 102 0 60 30 c 0,3,4
 0 78 0 78 0 150 c 0,5,6
 0 197 0 197 30 240 c 2,7,-1
 750 1200 l 1,8,-1
 300 1200 l 1,9,10
 300 1138 300 1138 256 1094 c 128,-1,11
 212 1050 212 1050 150 1050 c 256,12,13
 88 1050 88 1050 44 1094 c 128,-1,14
 0 1138 0 1138 0 1200 c 2,15,-1
 0 1350 l 2,16,17
 0 1412 0 1412 44 1456 c 128,-1,18
 88 1500 88 1500 150 1500 c 2,19,-1
 1049 1500 l 2,20,21
 1112 1500 1112 1500 1155.5 1456 c 128,-1,22
 1199 1412 1199 1412 1199 1350 c 0,23,24
 1199 1292 1199 1292 1161 1250 c 1,25,-1
 449 300 l 1,26,-1
 900 300 l 1,27,28
 900 362 900 362 943.5 406 c 128,-1,29
 987 450 987 450 1049 450 c 0,30,31
 1112 450 1112 450 1155.5 406 c 128,-1,32
 1199 362 1199 362 1199 300 c 2,33,-1
 1199 150 l 2,34,35
 1199 88 1199 88 1155.5 44 c 128,-1,36
 1112 0 1112 0 1049 0 c 2,0,-1
EndSplineSet
EndChar

StartChar: bracketleft
Encoding: 91 91 62
Width: 975
GlyphClass: 2
Flags: W
LayerCount: 2
Fore
SplineSet
525 -199 m 2,0,-1
 150 -199 l 2,1,2
 88 -199 88 -199 44 -155.5 c 128,-1,3
 0 -112 0 -112 0 -49 c 2,4,-1
 0 1551 l 2,5,6
 0 1613 0 1613 44 1657 c 128,-1,7
 88 1701 88 1701 150 1701 c 2,8,-1
 525 1701 l 2,9,10
 587 1701 587 1701 631 1657 c 128,-1,11
 675 1613 675 1613 675 1551 c 256,12,13
 675 1489 675 1489 631 1445 c 128,-1,14
 587 1401 587 1401 525 1401 c 2,15,-1
 300 1401 l 1,16,-1
 300 101 l 1,17,-1
 525 101 l 2,18,19
 587 101 587 101 631 57 c 128,-1,20
 675 13 675 13 675 -49 c 256,21,22
 675 -111 675 -111 631 -155 c 128,-1,23
 587 -199 587 -199 525 -199 c 2,0,-1
EndSplineSet
EndChar

StartChar: backslash
Encoding: 92 92 63
Width: 1100
GlyphClass: 2
Flags: W
LayerCount: 2
Fore
SplineSet
500 238 m 1,0,-1
 44 1094 l 2,1,2
 0 1180 0 1180 0 1240 c 2,3,-1
 0 1350 l 2,4,5
 0 1412 0 1412 44 1456 c 128,-1,6
 88 1500 88 1500 150 1500 c 256,7,8
 212 1500 212 1500 256 1456 c 128,-1,9
 300 1412 300 1412 300 1350 c 2,10,-1
 300 1262 l 1,11,-1
 755 407 l 2,12,13
 800 323 800 323 800 260 c 2,14,-1
 800 150 l 2,15,16
 800 88 800 88 756 44 c 128,-1,17
 712 0 712 0 650 0 c 0,18,19
 587 0 587 0 543.5 44 c 128,-1,20
 500 88 500 88 500 150 c 2,21,-1
 500 238 l 1,0,-1
EndSplineSet
EndChar

StartChar: bracketright
Encoding: 93 93 64
Width: 975
GlyphClass: 2
Flags: W
LayerCount: 2
Fore
SplineSet
150 -199 m 2,0,1
 88 -199 88 -199 44 -155 c 128,-1,2
 0 -111 0 -111 0 -49 c 256,3,4
 0 13 0 13 44 57 c 128,-1,5
 88 101 88 101 150 101 c 2,6,-1
 375 101 l 1,7,-1
 375 1401 l 1,8,-1
 150 1401 l 2,9,10
 88 1401 88 1401 44 1445 c 128,-1,11
 0 1489 0 1489 0 1551 c 256,12,13
 0 1613 0 1613 44 1657 c 128,-1,14
 88 1701 88 1701 150 1701 c 2,15,-1
 525 1701 l 2,16,17
 587 1701 587 1701 631 1657 c 128,-1,18
 675 1613 675 1613 675 1551 c 2,19,-1
 675 -49 l 2,20,21
 675 -112 675 -112 631 -155.5 c 128,-1,22
 587 -199 587 -199 525 -199 c 2,23,-1
 150 -199 l 2,0,1
EndSplineSet
EndChar

StartChar: asciicircum
Encoding: 94 94 65
Width: 900
GlyphClass: 2
Flags: W
LayerCount: 2
Fore
SplineSet
450 1051 m 0,0,1
 392 1051 392 1051 344 1095 c 2,2,-1
 300 1139 l 1,3,-1
 256 1095 l 2,4,5
 208 1051 208 1051 150 1051 c 256,6,7
 92 1051 92 1051 44 1095 c 1,8,9
 0 1143 0 1143 0 1201 c 256,10,11
 0 1259 0 1259 44 1307 c 2,12,-1
 194 1457 l 2,13,14
 242 1501 242 1501 300 1501 c 0,15,16
 357 1501 357 1501 407 1457 c 1,17,-1
 556 1307 l 2,18,19
 600 1259 600 1259 600 1201 c 256,20,21
 600 1143 600 1143 556 1095 c 1,22,23
 507 1051 507 1051 450 1051 c 0,0,1
EndSplineSet
EndChar

StartChar: underscore
Encoding: 95 95 66
Width: 1500
GlyphClass: 2
Flags: W
LayerCount: 2
Fore
SplineSet
1050 -401 m 2,0,-1
 150 -401 l 2,1,2
 88 -401 88 -401 44 -357 c 128,-1,3
 0 -313 0 -313 0 -251 c 256,4,5
 0 -189 0 -189 44 -145 c 128,-1,6
 88 -101 88 -101 150 -101 c 2,7,-1
 1050 -101 l 2,8,9
 1112 -101 1112 -101 1156 -145 c 128,-1,10
 1200 -189 1200 -189 1200 -251 c 256,11,12
 1200 -313 1200 -313 1156 -357 c 128,-1,13
 1112 -401 1112 -401 1050 -401 c 2,0,-1
EndSplineSet
EndChar

StartChar: grave
Encoding: 96 96 67
Width: 750
GlyphClass: 2
Flags: W
LayerCount: 2
Fore
SplineSet
300 1051 m 0,0,1
 242 1051 242 1051 194 1095 c 2,2,-1
 44 1245 l 2,3,4
 0 1293 0 1293 0 1351 c 0,5,6
 0 1408 0 1408 44 1457 c 1,7,8
 92 1501 92 1501 150 1501 c 0,9,10
 207 1501 207 1501 256 1457 c 2,11,-1
 406 1307 l 2,12,13
 450 1259 450 1259 450 1201 c 256,14,15
 450 1143 450 1143 406 1095 c 1,16,17
 357 1051 357 1051 300 1051 c 0,0,1
EndSplineSet
EndChar

StartChar: a
Encoding: 97 97 68
Width: 1500
GlyphClass: 2
Flags: W
LayerCount: 2
Fore
SplineSet
1050 0 m 2,0,-1
 150 0 l 2,1,2
 88 0 88 0 44 44 c 128,-1,3
 0 88 0 88 0 150 c 1,4,-1
 1 150 l 1,5,-1
 1 525 l 2,6,7
 1 576 1 576 30.5 615 c 128,-1,8
 60 654 60 654 108 668 c 2,9,-1
 803 900 l 1,10,-1
 300 900 l 1,11,12
 300 838 300 838 256 794 c 128,-1,13
 212 750 212 750 150 750 c 256,14,15
 88 750 88 750 44 793.5 c 128,-1,16
 0 837 0 837 0 900 c 2,17,-1
 0 1050 l 2,18,19
 0 1112 0 1112 44 1156 c 128,-1,20
 88 1200 88 1200 150 1200 c 2,21,-1
 1050 1200 l 2,22,23
 1112 1200 1112 1200 1156 1156 c 128,-1,24
 1200 1112 1200 1112 1200 1050 c 1,25,-1
 1199 1050 l 1,26,-1
 1199 913 l 2,27,28
 1200 906 1200 906 1200 150 c 0,29,30
 1200 88 1200 88 1156 44 c 128,-1,31
 1112 0 1112 0 1050 0 c 2,0,-1
900 300 m 1,32,-1
 900 617 l 1,33,-1
 299 417 l 1,34,-1
 299 300 l 1,35,-1
 900 300 l 1,32,-1
EndSplineSet
EndChar

StartChar: b
Encoding: 98 98 69
Width: 1499
GlyphClass: 2
Flags: W
LayerCount: 2
Fore
SplineSet
899 0 m 0,0,1
 142 0 142 0 136.5 0.5 c 128,-1,2
 131 1 131 1 127 2 c 0,3,4
 104 4 104 4 75 20 c 0,5,6
 0 66 0 66 0 150 c 2,7,-1
 0 1350 l 2,8,9
 0 1412 0 1412 43.5 1455.5 c 128,-1,10
 87 1499 87 1499 150 1499 c 0,11,12
 212 1499 212 1499 256 1455.5 c 128,-1,13
 300 1412 300 1412 300 1350 c 2,14,-1
 300 1200 l 1,15,-1
 899 1200 l 2,16,17
 962 1200 962 1200 1006 1155 c 2,18,-1
 1155 1006 l 2,19,20
 1199 957 1199 957 1199 900 c 2,21,-1
 1199 300 l 2,22,23
 1199 237 1199 237 1154 193 c 2,24,-1
 1005 44 l 2,25,26
 957 0 957 0 899 0 c 0,0,1
837 300 m 1,27,-1
 899 362 l 1,28,-1
 899 838 l 1,29,-1
 837 900 l 1,30,-1
 300 900 l 1,31,-1
 300 300 l 1,32,-1
 837 300 l 1,27,-1
EndSplineSet
EndChar

StartChar: c
Encoding: 99 99 70
Width: 1500
GlyphClass: 2
Flags: W
LayerCount: 2
Fore
SplineSet
1050 0 m 2,0,-1
 300 0 l 2,1,2
 237 0 237 0 193 45 c 2,3,-1
 44 194 l 2,4,5
 0 242 0 242 0 300 c 2,6,-1
 0 900 l 2,7,8
 0 962 0 962 45 1007 c 2,9,-1
 194 1156 l 2,10,11
 243 1200 243 1200 300 1200 c 2,12,-1
 1050 1200 l 2,13,14
 1112 1200 1112 1200 1156 1156 c 128,-1,15
 1200 1112 1200 1112 1200 1050 c 2,16,-1
 1200 900 l 2,17,18
 1200 837 1200 837 1156 793.5 c 128,-1,19
 1112 750 1112 750 1050 750 c 256,20,21
 988 750 988 750 944 794 c 128,-1,22
 900 838 900 838 900 900 c 1,23,-1
 362 900 l 1,24,-1
 300 838 l 1,25,-1
 300 362 l 1,26,-1
 362 300 l 1,27,-1
 909 300 l 1,28,29
 952 400 952 400 1050 400 c 0,30,31
 1112 400 1112 400 1156 356 c 128,-1,32
 1200 312 1200 312 1200 250 c 2,33,-1
 1200 150 l 2,34,35
 1200 88 1200 88 1156 44 c 128,-1,36
 1112 0 1112 0 1050 0 c 2,0,-1
EndSplineSet
EndChar

StartChar: d
Encoding: 100 100 71
Width: 1500
GlyphClass: 2
Flags: W
LayerCount: 2
Fore
SplineSet
900 300 m 1,0,-1
 900 900 l 1,1,-1
 362 900 l 1,2,-1
 300 838 l 1,3,-1
 300 362 l 1,4,-1
 362 300 l 1,5,-1
 900 300 l 1,0,-1
1050 0 m 2,6,-1
 300 0 l 2,7,8
 242 0 242 0 194 44 c 2,9,-1
 45 193 l 2,10,11
 0 237 0 237 0 300 c 2,12,-1
 0 900 l 2,13,14
 0 957 0 957 44 1006 c 2,15,-1
 193 1155 l 2,16,17
 237 1200 237 1200 300 1200 c 2,18,-1
 900 1200 l 1,19,-1
 900 1350 l 2,20,21
 900 1412 900 1412 944 1455.5 c 128,-1,22
 988 1499 988 1499 1050 1499 c 256,23,24
 1112 1499 1112 1499 1156 1455.5 c 128,-1,25
 1200 1412 1200 1412 1200 1350 c 2,26,-1
 1200 150 l 2,27,28
 1200 66 1200 66 1124 20 c 0,29,30
 1089 0 1089 0 1050 0 c 2,6,-1
EndSplineSet
EndChar

StartChar: e
Encoding: 101 101 72
Width: 1499
GlyphClass: 2
Flags: W
LayerCount: 2
Fore
SplineSet
1049 0 m 2,0,-1
 150 0 l 2,1,2
 88 0 88 0 44 44 c 128,-1,3
 0 88 0 88 0 150 c 2,4,-1
 0 1050 l 2,5,6
 0 1112 0 1112 43.5 1156 c 128,-1,7
 87 1200 87 1200 150 1200 c 2,8,-1
 1049 1200 l 2,9,10
 1112 1200 1112 1200 1155.5 1156 c 128,-1,11
 1199 1112 1199 1112 1199 1050 c 2,12,-1
 1199 675 l 2,13,14
 1199 624 1199 624 1169 585 c 128,-1,15
 1139 546 1139 546 1091 531 c 2,16,-1
 397 300 l 1,17,-1
 899 300 l 1,18,19
 899 362 899 362 943 406 c 128,-1,20
 987 450 987 450 1049 450 c 0,21,22
 1112 450 1112 450 1155.5 406 c 128,-1,23
 1199 362 1199 362 1199 300 c 2,24,-1
 1199 150 l 2,25,26
 1199 88 1199 88 1155.5 44 c 128,-1,27
 1112 0 1112 0 1049 0 c 2,0,-1
300 582 m 1,28,-1
 900 782 l 1,29,-1
 900 900 l 1,30,-1
 300 900 l 1,31,-1
 300 582 l 1,28,-1
EndSplineSet
EndChar

StartChar: f
Encoding: 102 102 73
Width: 1500
GlyphClass: 2
Flags: W
LayerCount: 2
Fore
SplineSet
450 0 m 256,0,1
 388 0 388 0 344.5 44 c 128,-1,2
 301 88 301 88 301 150 c 2,3,-1
 301 537 l 1,4,-1
 44 794 l 2,5,6
 0 840 0 840 0 899 c 0,7,8
 1 913 1 913 1 1201 c 0,9,10
 1 1263 1 1263 45 1307 c 2,11,-1
 194 1456 l 1,12,13
 243 1499 243 1499 300 1499 c 2,14,-1
 1050 1499 l 2,15,16
 1112 1499 1112 1499 1156 1455.5 c 128,-1,17
 1200 1412 1200 1412 1200 1350 c 2,18,-1
 1200 1200 l 2,19,20
 1200 1137 1200 1137 1156 1093.5 c 128,-1,21
 1112 1050 1112 1050 1050 1050 c 256,22,23
 988 1050 988 1050 944 1093.5 c 128,-1,24
 900 1137 900 1137 900 1200 c 1,25,-1
 362 1200 l 1,26,-1
 300 1137 l 1,27,-1
 300 962 l 1,28,-1
 450 812 l 1,29,-1
 494 856 l 2,30,31
 543 900 543 900 600 900 c 0,32,33
 658 900 658 900 706 856 c 1,34,35
 750 807 750 807 750 750 c 0,36,37
 750 692 750 692 706 644 c 2,38,-1
 600 537 l 1,39,-1
 600 150 l 2,40,41
 600 88 600 88 556 44 c 128,-1,42
 512 0 512 0 450 0 c 256,0,1
EndSplineSet
EndChar

StartChar: g
Encoding: 103 103 74
Width: 1500
GlyphClass: 2
Flags: W
LayerCount: 2
Fore
SplineSet
900 -750 m 2,0,-1
 150 -750 l 2,1,2
 88 -750 88 -750 44 -706 c 128,-1,3
 0 -662 0 -662 0 -600 c 2,4,-1
 0 -500 l 2,5,6
 0 -438 0 -438 44 -394 c 128,-1,7
 88 -350 88 -350 150 -350 c 0,8,9
 248 -350 248 -350 291 -450 c 1,10,-1
 838 -450 l 1,11,-1
 900 -388 l 1,12,-1
 900 0 l 1,13,-1
 300 0 l 2,14,15
 237 0 237 0 193 45 c 2,16,-1
 44 194 l 2,17,18
 0 242 0 242 0 300 c 2,19,-1
 0 900 l 2,20,21
 0 962 0 962 45 1007 c 2,22,-1
 194 1156 l 2,23,24
 242 1200 242 1200 300 1200 c 2,25,-1
 1050 1200 l 2,26,27
 1112 1200 1112 1200 1156 1156 c 128,-1,28
 1200 1112 1200 1112 1200 1050 c 2,29,-1
 1200 -450 l 2,30,31
 1200 -508 1200 -508 1156 -556 c 2,32,-1
 1007 -705 l 2,33,34
 962 -750 962 -750 900 -750 c 2,0,-1
900 300 m 1,35,-1
 900 900 l 1,36,-1
 362 900 l 1,37,-1
 300 838 l 1,38,-1
 300 362 l 1,39,-1
 362 300 l 1,40,-1
 900 300 l 1,35,-1
EndSplineSet
EndChar

StartChar: h
Encoding: 104 104 75
Width: 1499
GlyphClass: 2
Flags: W
LayerCount: 2
Fore
SplineSet
1049 0 m 256,0,1
 987 0 987 0 943 44 c 128,-1,2
 899 88 899 88 899 150 c 2,3,-1
 899 838 l 1,4,-1
 837 900 l 1,5,-1
 300 900 l 1,6,-1
 300 150 l 2,7,8
 300 88 300 88 256 44 c 128,-1,9
 212 0 212 0 150 0 c 0,10,11
 87 0 87 0 43.5 44 c 128,-1,12
 0 88 0 88 0 150 c 2,13,-1
 0 1350 l 2,14,15
 0 1412 0 1412 43.5 1455.5 c 128,-1,16
 87 1499 87 1499 150 1499 c 0,17,18
 212 1499 212 1499 256 1455.5 c 128,-1,19
 300 1412 300 1412 300 1350 c 2,20,-1
 300 1200 l 1,21,-1
 899 1200 l 2,22,23
 962 1200 962 1200 1006 1155 c 2,24,-1
 1155 1006 l 2,25,26
 1199 957 1199 957 1199 900 c 2,27,-1
 1199 150 l 2,28,29
 1199 88 1199 88 1155 44 c 128,-1,30
 1111 0 1111 0 1049 0 c 256,0,1
EndSplineSet
EndChar

StartChar: i
Encoding: 105 105 76
Width: 600
GlyphClass: 2
Flags: W
LayerCount: 2
Fore
SplineSet
150 0 m 256,0,1
 88 0 88 0 44 44 c 128,-1,2
 0 88 0 88 0 150 c 2,3,-1
 0 900 l 2,4,5
 0 962 0 962 44 1006 c 128,-1,6
 88 1050 88 1050 150 1050 c 256,7,8
 212 1050 212 1050 256 1006 c 128,-1,9
 300 962 300 962 300 900 c 2,10,-1
 300 150 l 2,11,12
 300 88 300 88 256 44 c 128,-1,13
 212 0 212 0 150 0 c 256,0,1
150 1199 m 0,14,15
 88 1199 88 1199 44 1243 c 128,-1,16
 0 1287 0 1287 0 1348 c 0,17,18
 0 1412 0 1412 43.5 1455.5 c 128,-1,19
 87 1499 87 1499 150 1499 c 0,20,21
 212 1499 212 1499 256 1455.5 c 128,-1,22
 300 1412 300 1412 300 1351 c 0,23,24
 300 1287 300 1287 256.5 1243 c 128,-1,25
 213 1199 213 1199 150 1199 c 0,14,15
EndSplineSet
EndChar

StartChar: j
Encoding: 106 106 77
Width: 1500
GlyphClass: 2
Flags: W
LayerCount: 2
Fore
SplineSet
900 -750 m 2,0,-1
 150 -750 l 2,1,2
 88 -750 88 -750 44 -706 c 128,-1,3
 0 -662 0 -662 0 -600 c 2,4,-1
 0 -500 l 2,5,6
 0 -438 0 -438 44 -394 c 128,-1,7
 88 -350 88 -350 150 -350 c 0,8,9
 248 -350 248 -350 291 -450 c 1,10,-1
 838 -450 l 1,11,-1
 900 -388 l 1,12,-1
 900 763 l 1,13,-1
 838 825 l 1,14,-1
 750 825 l 1,15,16
 750 763 750 763 706 719 c 128,-1,17
 662 675 662 675 600 675 c 256,18,19
 538 675 538 675 494 719 c 128,-1,20
 450 763 450 763 450 825 c 2,21,-1
 450 975 l 2,22,23
 450 1037 450 1037 494 1081 c 128,-1,24
 538 1125 538 1125 600 1125 c 2,25,-1
 900 1125 l 2,26,27
 957 1125 957 1125 1006 1081 c 2,28,-1
 1155 932 l 2,29,30
 1200 887 1200 887 1200 825 c 2,31,-1
 1200 -450 l 2,32,33
 1200 -508 1200 -508 1156 -556 c 2,34,-1
 1007 -705 l 2,35,36
 963 -750 963 -750 900 -750 c 2,0,-1
600 1199 m 0,37,38
 538 1199 538 1199 494 1243 c 128,-1,39
 450 1287 450 1287 450 1348 c 0,40,41
 450 1412 450 1412 493.5 1455.5 c 128,-1,42
 537 1499 537 1499 600 1499 c 0,43,44
 662 1499 662 1499 706 1455.5 c 128,-1,45
 750 1412 750 1412 750 1351 c 0,46,47
 750 1287 750 1287 706.5 1243 c 128,-1,48
 663 1199 663 1199 600 1199 c 0,37,38
EndSplineSet
EndChar

StartChar: k
Encoding: 107 107 78
Width: 1500
GlyphClass: 2
Flags: W
LayerCount: 2
Fore
SplineSet
1050 0 m 0,0,1
 1035 0 1035 0 998 7 c 128,-1,2
 961 14 961 14 925 67 c 2,3,-1
 669 450 l 1,4,-1
 300 450 l 1,5,-1
 300 150 l 2,6,7
 300 88 300 88 256 44 c 128,-1,8
 212 0 212 0 150 0 c 256,9,10
 88 0 88 0 44 44 c 128,-1,11
 0 88 0 88 0 150 c 2,12,-1
 0 1350 l 2,13,14
 0 1412 0 1412 44 1455.5 c 128,-1,15
 88 1499 88 1499 150 1499 c 256,16,17
 212 1499 212 1499 256 1455.5 c 128,-1,18
 300 1412 300 1412 300 1350 c 2,19,-1
 300 750 l 1,20,-1
 669 750 l 1,21,-1
 925 1133 l 2,22,23
 971 1200 971 1200 1048 1200 c 0,24,25
 1092 1200 1092 1200 1133 1174 c 0,26,27
 1200 1128 1200 1128 1200 1050 c 0,28,29
 1200 1007 1200 1007 1174 966 c 2,30,-1
 930 600 l 1,31,-1
 1174 233 l 2,32,33
 1200 192 1200 192 1200 149 c 0,34,35
 1200 134 1200 134 1192.5 98 c 128,-1,36
 1185 62 1185 62 1133 25 c 0,37,38
 1093 0 1093 0 1050 0 c 0,0,1
EndSplineSet
EndChar

StartChar: l
Encoding: 108 108 79
Width: 980
GlyphClass: 2
Flags: W
LayerCount: 2
Fore
SplineSet
530 0 m 2,0,-1
 300 0 l 2,1,2
 237 0 237 0 193 45 c 2,3,-1
 44 194 l 2,4,5
 0 242 0 242 0 300 c 2,6,-1
 0 1350 l 2,7,8
 0 1412 0 1412 44 1455.5 c 128,-1,9
 88 1499 88 1499 150 1499 c 256,10,11
 212 1499 212 1499 256 1455.5 c 128,-1,12
 300 1412 300 1412 300 1350 c 2,13,-1
 300 362 l 1,14,-1
 362 300 l 1,15,-1
 530 300 l 2,16,17
 592 300 592 300 636 256 c 128,-1,18
 680 212 680 212 680 150 c 256,19,20
 680 88 680 88 636 44 c 128,-1,21
 592 0 592 0 530 0 c 2,0,-1
EndSplineSet
EndChar

StartChar: m
Encoding: 109 109 80
Width: 2400
GlyphClass: 2
Flags: W
LayerCount: 2
Fore
SplineSet
1950 0 m 256,0,1
 1888 0 1888 0 1844 44 c 128,-1,2
 1800 88 1800 88 1800 150 c 2,3,-1
 1800 838 l 1,4,-1
 1738 900 l 1,5,-1
 1200 900 l 1,6,-1
 1200 150 l 2,7,8
 1200 88 1200 88 1156 44 c 128,-1,9
 1112 0 1112 0 1050 0 c 256,10,11
 988 0 988 0 944 44 c 128,-1,12
 900 88 900 88 900 150 c 2,13,-1
 900 900 l 1,14,-1
 362 900 l 1,15,-1
 300 838 l 1,16,-1
 300 150 l 2,17,18
 300 88 300 88 256 44 c 128,-1,19
 212 0 212 0 150 0 c 256,20,21
 88 0 88 0 44 44 c 128,-1,22
 0 88 0 88 0 150 c 2,23,-1
 0 900 l 2,24,25
 0 957 0 957 44 1006 c 2,26,-1
 193 1155 l 2,27,28
 237 1200 237 1200 300 1200 c 2,29,-1
 1800 1200 l 2,30,31
 1863 1200 1863 1200 1907 1155 c 2,32,-1
 2056 1006 l 2,33,34
 2100 957 2100 957 2100 900 c 2,35,-1
 2100 150 l 2,36,37
 2100 88 2100 88 2056 44 c 128,-1,38
 2012 0 2012 0 1950 0 c 256,0,1
EndSplineSet
EndChar

StartChar: n
Encoding: 110 110 81
Width: 1499
GlyphClass: 2
Flags: W
LayerCount: 2
Fore
SplineSet
1049 0 m 256,0,1
 987 0 987 0 943 44 c 128,-1,2
 899 88 899 88 899 150 c 2,3,-1
 899 838 l 1,4,-1
 837 900 l 1,5,-1
 299 900 l 1,6,-1
 299 150 l 2,7,8
 299 88 299 88 255.5 44 c 128,-1,9
 212 0 212 0 150 0 c 0,10,11
 87 0 87 0 43.5 44 c 128,-1,12
 0 88 0 88 0 150 c 2,13,-1
 0 1050 l 2,14,15
 0 1112 0 1112 43.5 1156 c 128,-1,16
 87 1200 87 1200 150 1200 c 2,17,-1
 899 1200 l 2,18,19
 962 1200 962 1200 1006 1155 c 2,20,-1
 1155 1006 l 2,21,22
 1199 957 1199 957 1199 900 c 2,23,-1
 1199 150 l 2,24,25
 1199 88 1199 88 1155 44 c 128,-1,26
 1111 0 1111 0 1049 0 c 256,0,1
EndSplineSet
EndChar

StartChar: o
Encoding: 111 111 82
Width: 1500
GlyphClass: 2
Flags: W
LayerCount: 2
Fore
SplineSet
838 300 m 1,0,-1
 900 362 l 1,1,-1
 900 838 l 1,2,-1
 838 900 l 1,3,-1
 362 900 l 1,4,-1
 300 838 l 1,5,-1
 300 362 l 1,6,-1
 362 300 l 1,7,-1
 838 300 l 1,0,-1
900 0 m 2,8,-1
 300 0 l 2,9,10
 242 0 242 0 194 44 c 2,11,-1
 45 193 l 2,12,13
 0 237 0 237 0 300 c 2,14,-1
 0 900 l 2,15,16
 0 957 0 957 44 1006 c 2,17,-1
 193 1155 l 2,18,19
 237 1200 237 1200 300 1200 c 2,20,-1
 900 1200 l 2,21,22
 957 1200 957 1200 1006 1156 c 2,23,-1
 1155 1007 l 2,24,25
 1200 962 1200 962 1200 900 c 2,26,-1
 1200 300 l 2,27,28
 1200 242 1200 242 1156 194 c 2,29,-1
 1007 45 l 2,30,31
 963 0 963 0 900 0 c 2,8,-1
EndSplineSet
EndChar

StartChar: p
Encoding: 112 112 83
Width: 1500
GlyphClass: 2
Flags: W
LayerCount: 2
Fore
SplineSet
150 -750 m 256,0,1
 88 -750 88 -750 44 -706 c 128,-1,2
 0 -662 0 -662 0 -600 c 2,3,-1
 0 1050 l 2,4,5
 0 1112 0 1112 44 1156 c 128,-1,6
 88 1200 88 1200 150 1200 c 2,7,-1
 900 1200 l 2,8,9
 963 1200 963 1200 1007 1155 c 2,10,-1
 1156 1006 l 2,11,12
 1200 960 1200 960 1200 901 c 2,13,-1
 1200 300 l 2,14,15
 1200 237 1200 237 1155 193 c 2,16,-1
 1006 44 l 2,17,18
 957 0 957 0 900 0 c 2,19,-1
 300 0 l 1,20,-1
 300 -600 l 2,21,22
 300 -662 300 -662 256 -706 c 128,-1,23
 212 -750 212 -750 150 -750 c 256,0,1
837 300 m 1,24,-1
 900 362 l 1,25,-1
 900 837 l 1,26,-1
 837 900 l 1,27,-1
 300 900 l 1,28,-1
 300 300 l 1,29,-1
 837 300 l 1,24,-1
EndSplineSet
EndChar

StartChar: q
Encoding: 113 113 84
Width: 1500
GlyphClass: 2
Flags: W
LayerCount: 2
Fore
SplineSet
1050 -750 m 0,0,1
 988 -750 988 -750 944 -706 c 128,-1,2
 900 -662 900 -662 900 -600 c 2,3,-1
 900 0 l 1,4,-1
 301 0 l 2,5,6
 243 0 243 0 195 44 c 2,7,-1
 46 193 l 2,8,9
 1 237 1 237 1 300 c 2,10,-1
 0 898 l 2,11,12
 0 959 0 959 45 1006 c 2,13,-1
 194 1155 l 2,14,15
 238 1200 238 1200 301 1200 c 2,16,-1
 1050 1200 l 2,17,18
 1113 1200 1113 1200 1156.5 1156 c 128,-1,19
 1200 1112 1200 1112 1200 1050 c 2,20,-1
 1200 -600 l 2,21,22
 1200 -662 1200 -662 1156.5 -706 c 128,-1,23
 1113 -750 1113 -750 1050 -750 c 0,0,1
900 300 m 1,24,-1
 900 900 l 1,25,-1
 362 900 l 1,26,-1
 300 837 l 1,27,-1
 300 362 l 1,28,-1
 362 300 l 1,29,-1
 900 300 l 1,24,-1
EndSplineSet
EndChar

StartChar: r
Encoding: 114 114 85
Width: 1500
GlyphClass: 2
Flags: W
LayerCount: 2
Fore
SplineSet
150 0 m 256,0,1
 88 0 88 0 44.5 44 c 128,-1,2
 1 88 1 88 1 150 c 2,3,-1
 1 1050 l 1,4,-1
 0 1050 l 1,5,6
 0 1112 0 1112 44 1156 c 128,-1,7
 88 1200 88 1200 150 1200 c 2,8,-1
 1050 1200 l 2,9,10
 1112 1200 1112 1200 1156 1156 c 128,-1,11
 1200 1112 1200 1112 1200 1050 c 2,12,-1
 1200 900 l 2,13,14
 1200 837 1200 837 1156 793.5 c 128,-1,15
 1112 750 1112 750 1050 750 c 256,16,17
 988 750 988 750 944 794 c 128,-1,18
 900 838 900 838 900 900 c 1,19,-1
 299 900 l 1,20,-1
 299 150 l 2,21,22
 299 88 299 88 255.5 44 c 128,-1,23
 212 0 212 0 150 0 c 256,0,1
EndSplineSet
EndChar

StartChar: s
Encoding: 115 115 86
Width: 1500
GlyphClass: 2
Flags: W
LayerCount: 2
Fore
SplineSet
1050 0 m 2,0,-1
 150 0 l 2,1,2
 88 0 88 0 44 44 c 128,-1,3
 0 88 0 88 0 150 c 2,4,-1
 0 300 l 2,5,6
 0 362 0 362 44 406 c 128,-1,7
 88 450 88 450 150 450 c 256,8,9
 212 450 212 450 256 406 c 128,-1,10
 300 362 300 362 300 300 c 1,11,-1
 803 300 l 1,12,-1
 108 531 l 2,13,14
 60 546 60 546 30.5 585 c 128,-1,15
 1 624 1 624 1 675 c 2,16,-1
 1 1050 l 1,17,-1
 0 1050 l 1,18,19
 0 1112 0 1112 44 1156 c 128,-1,20
 88 1200 88 1200 150 1200 c 2,21,-1
 1050 1200 l 2,22,23
 1112 1200 1112 1200 1156 1156 c 128,-1,24
 1200 1112 1200 1112 1200 1050 c 2,25,-1
 1200 900 l 2,26,27
 1200 837 1200 837 1156 793.5 c 128,-1,28
 1112 750 1112 750 1050 750 c 256,29,30
 988 750 988 750 944 794 c 128,-1,31
 900 838 900 838 900 900 c 1,32,-1
 299 900 l 1,33,-1
 299 782 l 1,34,-1
 1097 517 l 2,35,36
 1148 499 1148 499 1176 456 c 0,37,38
 1200 419 1200 419 1200 374 c 2,39,-1
 1200 150 l 2,40,41
 1200 88 1200 88 1156 44 c 128,-1,42
 1112 0 1112 0 1050 0 c 2,0,-1
EndSplineSet
EndChar

StartChar: t
Encoding: 116 116 87
Width: 1499
GlyphClass: 2
Flags: W
LayerCount: 2
Fore
SplineSet
1049 0 m 2,0,-1
 300 0 l 2,1,2
 242 0 242 0 194 44 c 2,3,-1
 45 193 l 2,4,5
 0 237 0 237 0 300 c 2,6,-1
 0 599 l 2,7,8
 0 659 0 659 44 706 c 2,9,-1
 150 812 l 1,10,-1
 150 1350 l 2,11,12
 150 1411 150 1411 194 1455 c 128,-1,13
 238 1499 238 1499 300 1499 c 0,14,15
 361 1499 361 1499 405 1455 c 128,-1,16
 449 1411 449 1411 449 1350 c 2,17,-1
 449 1111 l 1,18,-1
 493 1156 l 1,19,20
 542 1200 542 1200 599 1200 c 0,21,22
 657 1200 657 1200 706 1156 c 1,23,24
 749 1107 749 1107 749 1050 c 0,25,26
 749 992 749 992 706 944 c 2,27,-1
 299 537 l 1,28,-1
 299 362 l 1,29,-1
 362 300 l 1,30,-1
 899 300 l 1,31,32
 899 362 899 362 943 406 c 128,-1,33
 987 450 987 450 1049 450 c 0,34,35
 1112 450 1112 450 1155.5 406 c 128,-1,36
 1199 362 1199 362 1199 300 c 2,37,-1
 1199 150 l 2,38,39
 1199 88 1199 88 1155.5 44 c 128,-1,40
 1112 0 1112 0 1049 0 c 2,0,-1
EndSplineSet
EndChar

StartChar: u
Encoding: 117 117 88
Width: 1500
GlyphClass: 2
Flags: W
LayerCount: 2
Fore
SplineSet
900 0 m 2,0,-1
 300 0 l 2,1,2
 243 0 243 0 194 44 c 2,3,-1
 45 193 l 2,4,5
 0 237 0 237 0 300 c 2,6,-1
 0 1050 l 2,7,8
 0 1112 0 1112 44 1156 c 128,-1,9
 88 1200 88 1200 150 1200 c 256,10,11
 212 1200 212 1200 256 1156 c 128,-1,12
 300 1112 300 1112 300 1050 c 2,13,-1
 300 362 l 1,14,-1
 362 300 l 1,15,-1
 838 300 l 1,16,-1
 900 362 l 1,17,-1
 900 1050 l 2,18,19
 900 1112 900 1112 944 1156 c 128,-1,20
 988 1200 988 1200 1050 1200 c 256,21,22
 1112 1200 1112 1200 1156 1156 c 128,-1,23
 1200 1112 1200 1112 1200 1050 c 2,24,-1
 1200 300 l 2,25,26
 1200 242 1200 242 1156 194 c 2,27,-1
 1007 45 l 2,28,29
 963 0 963 0 900 0 c 2,0,-1
EndSplineSet
EndChar

StartChar: v
Encoding: 118 118 89
Width: 1500
GlyphClass: 2
Flags: W
LayerCount: 2
Fore
SplineSet
599 0 m 0,0,1
 539 0 539 0 494 44 c 2,2,-1
 45 493 l 2,3,4
 0 537 0 537 0 600 c 2,5,-1
 0 1050 l 2,6,7
 0 1112 0 1112 44 1156 c 128,-1,8
 88 1200 88 1200 150 1200 c 256,9,10
 212 1200 212 1200 256 1156 c 128,-1,11
 300 1112 300 1112 300 1050 c 2,12,-1
 300 662 l 1,13,-1
 600 362 l 1,14,-1
 900 662 l 1,15,-1
 900 1050 l 2,16,17
 900 1112 900 1112 944 1156 c 128,-1,18
 988 1200 988 1200 1050 1200 c 256,19,20
 1112 1200 1112 1200 1156 1156 c 128,-1,21
 1200 1112 1200 1112 1200 1050 c 2,22,-1
 1200 600 l 2,23,24
 1200 542 1200 542 1156 494 c 2,25,-1
 707 45 l 2,26,27
 660 0 660 0 599 0 c 0,0,1
EndSplineSet
EndChar

StartChar: w
Encoding: 119 119 90
Width: 2400
GlyphClass: 2
Flags: W
LayerCount: 2
Fore
SplineSet
1800 0 m 2,0,-1
 300 0 l 2,1,2
 237 0 237 0 193 45 c 2,3,-1
 44 194 l 2,4,5
 0 242 0 242 0 300 c 2,6,-1
 0 1050 l 2,7,8
 0 1112 0 1112 44 1156 c 128,-1,9
 88 1200 88 1200 150 1200 c 256,10,11
 212 1200 212 1200 256 1156 c 128,-1,12
 300 1112 300 1112 300 1050 c 2,13,-1
 300 362 l 1,14,-1
 362 300 l 1,15,-1
 900 300 l 1,16,-1
 900 1050 l 2,17,18
 900 1112 900 1112 944 1156 c 128,-1,19
 988 1200 988 1200 1050 1200 c 256,20,21
 1112 1200 1112 1200 1156 1156 c 128,-1,22
 1200 1112 1200 1112 1200 1050 c 2,23,-1
 1200 300 l 1,24,-1
 1737 300 l 1,25,-1
 1800 362 l 1,26,-1
 1800 1050 l 2,27,28
 1800 1112 1800 1112 1843.5 1156 c 128,-1,29
 1887 1200 1887 1200 1950 1200 c 0,30,31
 2012 1200 2012 1200 2056 1156 c 128,-1,32
 2100 1112 2100 1112 2100 1050 c 2,33,-1
 2100 300 l 2,34,35
 2100 242 2100 242 2056 194 c 2,36,-1
 1907 45 l 2,37,38
 1862 0 1862 0 1800 0 c 2,0,-1
EndSplineSet
EndChar

StartChar: x
Encoding: 120 120 91
Width: 1500
GlyphClass: 2
Flags: W
LayerCount: 2
Fore
SplineSet
1050 0 m 0,0,1
 987 0 987 0 943.5 44 c 128,-1,2
 900 88 900 88 900 150 c 2,3,-1
 900 220 l 1,4,-1
 600 419 l 1,5,-1
 300 220 l 1,6,-1
 300 150 l 2,7,8
 300 88 300 88 256 44 c 128,-1,9
 212 0 212 0 150 0 c 256,10,11
 88 0 88 0 44 44 c 128,-1,12
 0 88 0 88 0 150 c 2,13,-1
 0 300 l 2,14,15
 0 379 0 379 68 426 c 2,16,-1
 329 600 l 1,17,-1
 68 774 l 2,18,19
 0 820 0 820 0 900 c 2,20,-1
 0 1050 l 2,21,22
 0 1112 0 1112 44 1156 c 128,-1,23
 88 1200 88 1200 150 1200 c 256,24,25
 212 1200 212 1200 256 1156 c 128,-1,26
 300 1112 300 1112 300 1050 c 2,27,-1
 300 980 l 1,28,-1
 600 780 l 1,29,-1
 900 980 l 1,30,-1
 900 1050 l 2,31,32
 900 1112 900 1112 943.5 1156 c 128,-1,33
 987 1200 987 1200 1050 1200 c 0,34,35
 1112 1200 1112 1200 1156 1156 c 128,-1,36
 1200 1112 1200 1112 1200 1050 c 2,37,-1
 1200 901 l 2,38,39
 1199 823 1199 823 1133 775 c 2,40,-1
 870 600 l 1,41,-1
 1133 425 l 1,42,43
 1199 376 1199 376 1200 298 c 2,44,-1
 1200 150 l 2,45,46
 1200 88 1200 88 1156 44 c 128,-1,47
 1112 0 1112 0 1050 0 c 0,0,1
EndSplineSet
EndChar

StartChar: y
Encoding: 121 121 92
Width: 1500
GlyphClass: 2
Flags: W
LayerCount: 2
Fore
SplineSet
900 -750 m 2,0,-1
 150 -750 l 2,1,2
 88 -750 88 -750 44 -706 c 128,-1,3
 0 -662 0 -662 0 -600 c 2,4,-1
 0 -500 l 2,5,6
 0 -438 0 -438 44 -394 c 128,-1,7
 88 -350 88 -350 150 -350 c 0,8,9
 248 -350 248 -350 292 -450 c 1,10,-1
 838 -450 l 1,11,-1
 900 -388 l 1,12,-1
 900 0 l 1,13,-1
 300 0 l 2,14,15
 243 0 243 0 194 44 c 2,16,-1
 45 193 l 2,17,18
 0 237 0 237 0 300 c 2,19,-1
 0 1050 l 2,20,21
 0 1112 0 1112 44 1156 c 128,-1,22
 88 1200 88 1200 150 1200 c 0,23,24
 213 1200 213 1200 256.5 1156 c 128,-1,25
 300 1112 300 1112 300 1050 c 2,26,-1
 300 362 l 1,27,-1
 362 300 l 1,28,-1
 838 300 l 1,29,-1
 900 362 l 1,30,-1
 900 1050 l 2,31,32
 900 1112 900 1112 944 1156 c 128,-1,33
 988 1200 988 1200 1050 1200 c 256,34,35
 1112 1200 1112 1200 1156 1156 c 128,-1,36
 1200 1112 1200 1112 1200 1050 c 2,37,-1
 1200 -450 l 2,38,39
 1200 -508 1200 -508 1156 -556 c 2,40,-1
 1007 -705 l 2,41,42
 963 -750 963 -750 900 -750 c 2,0,-1
EndSplineSet
EndChar

StartChar: z
Encoding: 122 122 93
Width: 1500
GlyphClass: 2
Flags: W
LayerCount: 2
Fore
SplineSet
1050 0 m 2,0,-1
 150 0 l 2,1,2
 93 0 93 0 44 44 c 1,3,4
 0 92 0 92 0 150 c 0,5,6
 0 207 0 207 44 256 c 2,7,-1
 688 900 l 1,8,-1
 300 900 l 1,9,10
 300 838 300 838 256 794 c 128,-1,11
 212 750 212 750 150 750 c 256,12,13
 88 750 88 750 44 793.5 c 128,-1,14
 0 837 0 837 0 900 c 2,15,-1
 0 1050 l 2,16,17
 0 1112 0 1112 44 1156 c 128,-1,18
 88 1200 88 1200 150 1200 c 2,19,-1
 1050 1200 l 2,20,21
 1112 1200 1112 1200 1156 1156 c 128,-1,22
 1200 1112 1200 1112 1200 1050 c 0,23,24
 1200 987 1200 987 1155 943 c 2,25,-1
 512 300 l 1,26,-1
 900 300 l 1,27,28
 900 362 900 362 944 406 c 128,-1,29
 988 450 988 450 1050 450 c 256,30,31
 1112 450 1112 450 1156 406 c 128,-1,32
 1200 362 1200 362 1200 300 c 2,33,-1
 1200 150 l 2,34,35
 1200 88 1200 88 1156 44 c 128,-1,36
 1112 0 1112 0 1050 0 c 2,0,-1
EndSplineSet
EndChar

StartChar: braceleft
Encoding: 123 123 94
Width: 1125
GlyphClass: 2
Flags: W
LayerCount: 2
Fore
SplineSet
675 -199 m 2,0,-1
 300 -199 l 2,1,2
 238 -199 238 -199 194 -155.5 c 128,-1,3
 150 -112 150 -112 150 -49 c 2,4,-1
 150 539 l 1,5,-1
 44 645 l 2,6,7
 0 693 0 693 0 751 c 0,8,9
 0 808 0 808 45 858 c 2,10,-1
 150 963 l 1,11,-1
 150 1551 l 2,12,13
 150 1613 150 1613 194 1657 c 128,-1,14
 238 1701 238 1701 300 1701 c 2,15,-1
 675 1701 l 2,16,17
 737 1701 737 1701 781 1657 c 128,-1,18
 825 1613 825 1613 825 1551 c 256,19,20
 825 1489 825 1489 781 1445 c 128,-1,21
 737 1401 737 1401 675 1401 c 2,22,-1
 450 1401 l 1,23,-1
 450 901 l 2,24,25
 450 843 450 843 406 795 c 2,26,-1
 362 751 l 1,27,-1
 406 707 l 2,28,29
 450 659 450 659 450 601 c 2,30,-1
 450 101 l 1,31,-1
 675 101 l 2,32,33
 737 101 737 101 781 57 c 128,-1,34
 825 13 825 13 825 -49 c 256,35,36
 825 -111 825 -111 781 -155 c 128,-1,37
 737 -199 737 -199 675 -199 c 2,0,-1
EndSplineSet
EndChar

StartChar: bar
Encoding: 124 124 95
Width: 600
GlyphClass: 2
Flags: W
LayerCount: 2
Fore
SplineSet
0 1551 m 2,0,1
 0 1613 0 1613 44 1657 c 128,-1,2
 88 1701 88 1701 150 1701 c 256,3,4
 212 1701 212 1701 256 1657 c 128,-1,5
 300 1613 300 1613 300 1551 c 2,6,-1
 300 -49 l 2,7,8
 300 -112 300 -112 256 -155.5 c 128,-1,9
 212 -199 212 -199 150 -199 c 256,10,11
 88 -199 88 -199 44 -155.5 c 128,-1,12
 0 -112 0 -112 0 -49 c 2,13,-1
 0 1551 l 2,0,1
EndSplineSet
EndChar

StartChar: braceright
Encoding: 125 125 96
Width: 1125
GlyphClass: 2
Flags: W
LayerCount: 2
Fore
SplineSet
150 -199 m 2,0,1
 88 -199 88 -199 44 -155 c 128,-1,2
 0 -111 0 -111 0 -49 c 256,3,4
 0 13 0 13 44 57 c 128,-1,5
 88 101 88 101 150 101 c 2,6,-1
 375 101 l 1,7,-1
 375 601 l 2,8,9
 375 659 375 659 419 707 c 2,10,-1
 463 751 l 1,11,-1
 419 795 l 2,12,13
 375 843 375 843 375 901 c 2,14,-1
 375 1401 l 1,15,-1
 150 1401 l 2,16,17
 88 1401 88 1401 44 1445 c 128,-1,18
 0 1489 0 1489 0 1551 c 256,19,20
 0 1613 0 1613 44 1657 c 128,-1,21
 88 1701 88 1701 150 1701 c 2,22,-1
 525 1701 l 2,23,24
 587 1701 587 1701 631 1657 c 128,-1,25
 675 1613 675 1613 675 1551 c 2,26,-1
 675 963 l 1,27,-1
 781 858 l 1,28,29
 825 808 825 808 825 751 c 0,30,31
 825 693 825 693 781 645 c 2,32,-1
 675 539 l 1,33,-1
 675 -49 l 2,34,35
 675 -112 675 -112 631 -155.5 c 128,-1,36
 587 -199 587 -199 525 -199 c 2,37,-1
 150 -199 l 2,0,1
EndSplineSet
EndChar

StartChar: asciitilde
Encoding: 126 126 97
Width: 1050
GlyphClass: 2
Flags: W
LayerCount: 2
Fore
SplineSet
450 525 m 0,0,1
 392 525 392 525 344 569 c 2,2,-1
 300 613 l 1,3,-1
 256 569 l 2,4,5
 208 525 208 525 150 525 c 256,6,7
 92 525 92 525 44 569 c 1,8,9
 0 617 0 617 0 675 c 256,10,11
 0 733 0 733 44 781 c 2,12,-1
 194 931 l 2,13,14
 240 975 240 975 300 975 c 256,15,16
 360 975 360 975 406 931 c 2,17,-1
 450 887 l 1,18,-1
 494 931 l 2,19,20
 542 975 542 975 600 975 c 0,21,22
 657 975 657 975 706 931 c 1,23,24
 750 882 750 882 750 825 c 0,25,26
 750 767 750 767 706 719 c 2,27,-1
 556 569 l 2,28,29
 507 525 507 525 450 525 c 0,0,1
EndSplineSet
EndChar

StartChar: Agrave
Encoding: 192 192 128
Width: 1500
GlyphClass: 2
Flags: W
LayerCount: 2
Fore
SplineSet
1050 0 m 256,0,1
 988 0 988 0 944 44 c 128,-1,2
 900 88 900 88 900 150 c 2,3,-1
 900 350 l 1,4,-1
 300 350 l 1,5,-1
 300 150 l 2,6,7
 300 88 300 88 256 44 c 128,-1,8
 212 0 212 0 150 0 c 256,9,10
 88 0 88 0 44 44 c 128,-1,11
 0 88 0 88 0 150 c 2,12,-1
 0 749 l 2,13,14
 0 798 0 798 31 839 c 2,15,-1
 470 1429 l 2,16,17
 487 1452 487 1452 511 1469 c 0,18,19
 552 1500 552 1500 600 1500 c 0,20,21
 680 1500 680 1500 723 1442 c 2,22,-1
 1166 854 l 2,23,24
 1200 808 1200 808 1200 750 c 2,25,-1
 1200 150 l 2,26,27
 1200 88 1200 88 1156 44 c 128,-1,28
 1112 0 1112 0 1050 0 c 256,0,1
900 650 m 1,29,-1
 900 701 l 1,30,-1
 600 1101 l 1,31,-1
 300 701 l 1,32,-1
 300 650 l 1,33,-1
 900 650 l 1,29,-1
600 1609 m 256,34,35
 571 1609 571 1609 547 1631 c 2,36,-1
 472 1706 l 2,37,38
 450 1730 450 1730 450 1759 c 256,39,40
 450 1788 450 1788 472 1812 c 0,41,42
 496 1834 496 1834 525 1834 c 256,43,44
 554 1834 554 1834 578 1812 c 2,45,-1
 653 1737 l 2,46,47
 675 1713 675 1713 675 1684 c 256,48,49
 675 1655 675 1655 653 1631 c 0,50,51
 629 1609 629 1609 600 1609 c 256,34,35
EndSplineSet
EndChar

StartChar: Aacute
Encoding: 193 193 129
Width: 1500
GlyphClass: 2
Flags: W
LayerCount: 2
Fore
SplineSet
1050 0 m 256,0,1
 988 0 988 0 944 44 c 128,-1,2
 900 88 900 88 900 150 c 2,3,-1
 900 350 l 1,4,-1
 300 350 l 1,5,-1
 300 150 l 2,6,7
 300 88 300 88 256 44 c 128,-1,8
 212 0 212 0 150 0 c 256,9,10
 88 0 88 0 44 44 c 128,-1,11
 0 88 0 88 0 150 c 2,12,-1
 0 749 l 2,13,14
 0 798 0 798 31 839 c 2,15,-1
 470 1429 l 2,16,17
 487 1452 487 1452 511 1469 c 0,18,19
 552 1500 552 1500 600 1500 c 0,20,21
 680 1500 680 1500 723 1442 c 2,22,-1
 1166 854 l 2,23,24
 1200 808 1200 808 1200 750 c 2,25,-1
 1200 150 l 2,26,27
 1200 88 1200 88 1156 44 c 128,-1,28
 1112 0 1112 0 1050 0 c 256,0,1
900 650 m 1,29,-1
 900 701 l 1,30,-1
 600 1101 l 1,31,-1
 300 701 l 1,32,-1
 300 650 l 1,33,-1
 900 650 l 1,29,-1
675 1834 m 256,34,35
 704 1834 704 1834 728 1812 c 0,36,37
 750 1788 750 1788 750 1759 c 256,38,39
 750 1730 750 1730 728 1706 c 2,40,-1
 653 1631 l 2,41,42
 629 1609 629 1609 600 1609 c 256,43,44
 571 1609 571 1609 547 1631 c 0,45,46
 525 1656 525 1656 525 1684 c 0,47,48
 525 1713 525 1713 547 1737 c 2,49,-1
 622 1812 l 2,50,51
 646 1834 646 1834 675 1834 c 256,34,35
EndSplineSet
EndChar

StartChar: Acircumflex
Encoding: 194 194 130
Width: 1500
GlyphClass: 2
Flags: W
LayerCount: 2
Fore
SplineSet
1050 0 m 256,0,1
 988 0 988 0 944 44 c 128,-1,2
 900 88 900 88 900 150 c 2,3,-1
 900 350 l 1,4,-1
 300 350 l 1,5,-1
 300 150 l 2,6,7
 300 88 300 88 256 44 c 128,-1,8
 212 0 212 0 150 0 c 256,9,10
 88 0 88 0 44 44 c 128,-1,11
 0 88 0 88 0 150 c 2,12,-1
 0 749 l 2,13,14
 0 798 0 798 31 839 c 2,15,-1
 470 1429 l 2,16,17
 487 1452 487 1452 511 1469 c 0,18,19
 552 1500 552 1500 600 1500 c 0,20,21
 680 1500 680 1500 723 1442 c 2,22,-1
 1166 854 l 2,23,24
 1200 808 1200 808 1200 750 c 2,25,-1
 1200 150 l 2,26,27
 1200 88 1200 88 1156 44 c 128,-1,28
 1112 0 1112 0 1050 0 c 256,0,1
900 650 m 1,29,-1
 900 701 l 1,30,-1
 600 1101 l 1,31,-1
 300 701 l 1,32,-1
 300 650 l 1,33,-1
 900 650 l 1,29,-1
675 1609 m 256,34,35
 646 1609 646 1609 622 1631 c 2,36,-1
 600 1653 l 1,37,-1
 578 1631 l 2,38,39
 554 1609 554 1609 525 1609 c 256,40,41
 496 1609 496 1609 472 1631 c 0,42,43
 450 1655 450 1655 450 1684 c 256,44,45
 450 1713 450 1713 472 1737 c 2,46,-1
 547 1812 l 2,47,48
 571 1834 571 1834 600 1834 c 256,49,50
 629 1834 629 1834 653 1812 c 2,51,-1
 728 1737 l 2,52,53
 750 1713 750 1713 750 1684 c 256,54,55
 750 1655 750 1655 728 1631 c 0,56,57
 704 1609 704 1609 675 1609 c 256,34,35
EndSplineSet
EndChar

StartChar: Atilde
Encoding: 195 195 131
Width: 1500
GlyphClass: 2
Flags: W
LayerCount: 2
Fore
SplineSet
1050 0 m 256,0,1
 988 0 988 0 944 44 c 128,-1,2
 900 88 900 88 900 150 c 2,3,-1
 900 350 l 1,4,-1
 300 350 l 1,5,-1
 300 150 l 2,6,7
 300 88 300 88 256 44 c 128,-1,8
 212 0 212 0 150 0 c 256,9,10
 88 0 88 0 44 44 c 128,-1,11
 0 88 0 88 0 150 c 2,12,-1
 0 749 l 2,13,14
 0 798 0 798 31 839 c 2,15,-1
 470 1429 l 2,16,17
 487 1452 487 1452 511 1469 c 0,18,19
 552 1500 552 1500 600 1500 c 0,20,21
 680 1500 680 1500 723 1442 c 2,22,-1
 1166 854 l 2,23,24
 1200 808 1200 808 1200 750 c 2,25,-1
 1200 150 l 2,26,27
 1200 88 1200 88 1156 44 c 128,-1,28
 1112 0 1112 0 1050 0 c 256,0,1
900 650 m 1,29,-1
 900 701 l 1,30,-1
 600 1101 l 1,31,-1
 300 701 l 1,32,-1
 300 650 l 1,33,-1
 900 650 l 1,29,-1
630 1600 m 256,34,35
 607 1600 607 1600 588 1618 c 2,36,-1
 570 1635 l 1,37,-1
 552 1618 l 2,38,39
 533 1600 533 1600 510 1600 c 256,40,41
 487 1600 487 1600 468 1618 c 0,42,43
 450 1637 450 1637 450 1660 c 256,44,45
 450 1683 450 1683 468 1702 c 2,46,-1
 528 1762 l 2,47,48
 546 1780 546 1780 570 1780 c 256,49,50
 594 1780 594 1780 612 1762 c 2,51,-1
 630 1745 l 1,52,-1
 648 1762 l 2,53,54
 667 1780 667 1780 690 1780 c 256,55,56
 713 1780 713 1780 732 1762 c 0,57,58
 750 1743 750 1743 750 1720 c 256,59,60
 750 1697 750 1697 732 1678 c 2,61,-1
 672 1618 l 2,62,63
 653 1600 653 1600 630 1600 c 256,34,35
EndSplineSet
EndChar

StartChar: Adieresis
Encoding: 196 196 132
Width: 1500
GlyphClass: 2
Flags: W
LayerCount: 2
Fore
SplineSet
1050 0 m 256,0,1
 988 0 988 0 944 44 c 128,-1,2
 900 88 900 88 900 150 c 2,3,-1
 900 350 l 1,4,-1
 300 350 l 1,5,-1
 300 150 l 2,6,7
 300 88 300 88 256 44 c 128,-1,8
 212 0 212 0 150 0 c 256,9,10
 88 0 88 0 44 44 c 128,-1,11
 0 88 0 88 0 150 c 2,12,-1
 0 749 l 2,13,14
 0 798 0 798 31 839 c 2,15,-1
 470 1429 l 2,16,17
 487 1452 487 1452 511 1469 c 0,18,19
 552 1500 552 1500 600 1500 c 0,20,21
 680 1500 680 1500 723 1442 c 2,22,-1
 1166 854 l 2,23,24
 1200 808 1200 808 1200 750 c 2,25,-1
 1200 150 l 2,26,27
 1200 88 1200 88 1156 44 c 128,-1,28
 1112 0 1112 0 1050 0 c 256,0,1
900 650 m 1,29,-1
 900 701 l 1,30,-1
 600 1101 l 1,31,-1
 300 701 l 1,32,-1
 300 650 l 1,33,-1
 900 650 l 1,29,-1
513 1725 m 256,34,35
 539 1725 539 1725 557 1707 c 0,36,37
 575 1688 575 1688 575 1662 c 256,38,39
 575 1636 575 1636 557 1618 c 0,40,41
 538 1600 538 1600 513 1600 c 0,42,43
 486 1600 486 1600 468 1618 c 0,44,45
 450 1637 450 1637 450 1663 c 256,46,47
 450 1689 450 1689 468 1707 c 0,48,49
 487 1725 487 1725 513 1725 c 256,34,35
688 1725 m 256,50,51
 714 1725 714 1725 732 1707 c 0,52,53
 750 1688 750 1688 750 1662 c 256,54,55
 750 1636 750 1636 732 1618 c 0,56,57
 713 1600 713 1600 688 1600 c 0,58,59
 661 1600 661 1600 643 1618 c 0,60,61
 625 1637 625 1637 625 1663 c 256,62,63
 625 1689 625 1689 643 1707 c 0,64,65
 662 1725 662 1725 688 1725 c 256,50,51
EndSplineSet
EndChar

StartChar: Aring
Encoding: 197 197 133
Width: 1500
GlyphClass: 2
Flags: W
LayerCount: 2
Fore
SplineSet
1050 0 m 256,0,1
 988 0 988 0 944 44 c 128,-1,2
 900 88 900 88 900 150 c 2,3,-1
 900 350 l 1,4,-1
 300 350 l 1,5,-1
 300 150 l 2,6,7
 300 88 300 88 256 44 c 128,-1,8
 212 0 212 0 150 0 c 256,9,10
 88 0 88 0 44 44 c 128,-1,11
 0 88 0 88 0 150 c 2,12,-1
 0 749 l 2,13,14
 0 798 0 798 31 839 c 2,15,-1
 470 1429 l 2,16,17
 487 1452 487 1452 511 1469 c 0,18,19
 552 1500 552 1500 600 1500 c 0,20,21
 680 1500 680 1500 723 1442 c 2,22,-1
 1166 854 l 2,23,24
 1200 808 1200 808 1200 750 c 2,25,-1
 1200 150 l 2,26,27
 1200 88 1200 88 1156 44 c 128,-1,28
 1112 0 1112 0 1050 0 c 256,0,1
900 650 m 1,29,-1
 900 701 l 1,30,-1
 600 1101 l 1,31,-1
 300 701 l 1,32,-1
 300 650 l 1,33,-1
 900 650 l 1,29,-1
600 1825 m 0,34,35
 647 1825 647 1825 680 1792 c 128,-1,36
 713 1759 713 1759 713 1711 c 0,37,38
 713 1665 713 1665 680 1632.5 c 128,-1,39
 647 1600 647 1600 600 1600 c 256,40,41
 553 1600 553 1600 520.5 1632.5 c 128,-1,42
 488 1665 488 1665 488 1713 c 0,43,44
 488 1759 488 1759 521 1792 c 128,-1,45
 554 1825 554 1825 600 1825 c 0,34,35
600 1763 m 256,46,47
 579 1763 579 1763 564.5 1748 c 128,-1,48
 550 1733 550 1733 550 1713 c 0,49,50
 550 1692 550 1692 564.5 1677.5 c 128,-1,51
 579 1663 579 1663 600 1663 c 256,52,53
 621 1663 621 1663 635.5 1677.5 c 128,-1,54
 650 1692 650 1692 650 1712 c 0,55,56
 650 1733 650 1733 635.5 1748 c 128,-1,57
 621 1763 621 1763 600 1763 c 256,46,47
EndSplineSet
EndChar

StartChar: AE
Encoding: 198 198 134
Width: 2400
GlyphClass: 2
Flags: W
LayerCount: 2
Fore
SplineSet
900 650 m 1,0,-1
 900 701 l 1,1,-1
 600 1101 l 1,2,-1
 300 701 l 1,3,-1
 300 650 l 1,4,-1
 900 650 l 1,0,-1
1200 300 m 1,5,-1
 1950 300 l 2,6,7
 2012 300 2012 300 2056 256 c 128,-1,8
 2100 212 2100 212 2100 150 c 256,9,10
 2100 88 2100 88 2056 44 c 128,-1,11
 2012 0 2012 0 1950 0 c 2,12,-1
 1050 0 l 2,13,14
 988 0 988 0 944 44 c 128,-1,15
 900 88 900 88 900 150 c 2,16,-1
 900 350 l 1,17,-1
 300 350 l 1,18,-1
 300 150 l 2,19,20
 300 88 300 88 256 44 c 128,-1,21
 212 0 212 0 150 0 c 256,22,23
 88 0 88 0 44 44 c 128,-1,24
 0 88 0 88 0 150 c 2,25,-1
 0 749 l 2,26,27
 0 798 0 798 31 839 c 2,28,-1
 470 1429 l 2,29,30
 487 1452 487 1452 511 1469 c 0,31,32
 552 1500 552 1500 600 1500 c 0,33,34
 680 1500 680 1500 723 1442 c 2,35,-1
 900 1207 l 1,36,-1
 900 1350 l 2,37,38
 900 1412 900 1412 944 1456 c 128,-1,39
 988 1500 988 1500 1050 1500 c 2,40,-1
 1950 1500 l 2,41,42
 2012 1500 2012 1500 2056 1456 c 128,-1,43
 2100 1412 2100 1412 2100 1350 c 2,44,-1
 2100 1200 l 2,45,46
 2100 1138 2100 1138 2056 1094 c 128,-1,47
 2012 1050 2012 1050 1950 1050 c 0,48,49
 1887 1050 1887 1050 1843.5 1094 c 128,-1,50
 1800 1138 1800 1138 1800 1200 c 1,51,-1
 1199 1200 l 1,52,-1
 1199 962 l 1,53,-1
 1456 706 l 2,54,55
 1500 661 1500 661 1500 600 c 0,56,57
 1500 542 1500 542 1453.5 496 c 128,-1,58
 1407 450 1407 450 1350 450 c 0,59,60
 1292 450 1292 450 1244 494 c 2,61,-1
 1200 538 l 1,62,-1
 1200 300 l 1,5,-1
EndSplineSet
EndChar

StartChar: Ccedilla
Encoding: 199 199 135
Width: 1500
GlyphClass: 2
Flags: W
LayerCount: 2
Fore
SplineSet
551 0 m 1,0,-1
 300 0 l 2,1,2
 237 0 237 0 193 44 c 2,3,-1
 44 193 l 2,4,5
 0 240 0 240 0 300 c 2,6,-1
 0 1199 l 2,7,8
 0 1262 0 1262 45 1306 c 2,9,-1
 194 1455 l 2,10,11
 240 1499 240 1499 300 1499 c 2,12,-1
 1050 1499 l 2,13,14
 1112 1499 1112 1499 1156 1455 c 128,-1,15
 1200 1411 1200 1411 1200 1349 c 2,16,-1
 1200 1199 l 2,17,18
 1200 1137 1200 1137 1156 1093 c 128,-1,19
 1112 1049 1112 1049 1050 1049 c 256,20,21
 988 1049 988 1049 944 1093 c 128,-1,22
 900 1137 900 1137 900 1199 c 1,23,-1
 362 1199 l 1,24,-1
 300 1137 l 1,25,-1
 300 362 l 1,26,-1
 362 300 l 1,27,-1
 908 300 l 1,28,29
 952 399 952 399 1050 399 c 0,30,31
 1112 399 1112 399 1156 355.5 c 128,-1,32
 1200 312 1200 312 1200 250 c 2,33,-1
 1200 150 l 2,34,35
 1200 87 1200 87 1156 43.5 c 128,-1,36
 1112 0 1112 0 1050 0 c 2,37,-1
 651 0 l 1,38,-1
 651 -8 l 1,39,40
 682 -19 682 -19 706 -44 c 0,41,42
 750 -88 750 -88 750 -152 c 0,43,44
 750 -213 750 -213 706 -256.5 c 128,-1,45
 662 -300 662 -300 600 -300 c 0,46,47
 537 -300 537 -300 494 -256 c 0,48,49
 450 -213 450 -213 450 -150 c 1,50,-1
 550 -150 l 1,51,52
 550 -171 550 -171 564.5 -185.5 c 128,-1,53
 579 -200 579 -200 600 -200 c 256,54,55
 621 -200 621 -200 635.5 -185.5 c 128,-1,56
 650 -171 650 -171 650 -151 c 0,57,58
 650 -130 650 -130 635.5 -115 c 128,-1,59
 621 -100 621 -100 600 -100 c 1,60,-1
 551 0 l 1,0,-1
EndSplineSet
EndChar

StartChar: Egrave
Encoding: 200 200 136
Width: 1501
GlyphClass: 2
Flags: W
LayerCount: 2
Fore
SplineSet
1051 0 m 2,0,-1
 151 0 l 2,1,2
 89 0 89 0 45 44 c 128,-1,3
 1 88 1 88 1 150 c 2,4,-1
 0 599 l 2,5,6
 0 658 0 658 45 706 c 2,7,-1
 89 750 l 1,8,-1
 45 794 l 2,9,10
 0 841 0 841 0 900 c 2,11,-1
 1 1350 l 2,12,13
 1 1412 1 1412 45 1456 c 128,-1,14
 89 1500 89 1500 151 1500 c 2,15,-1
 1051 1500 l 2,16,17
 1113 1500 1113 1500 1157 1456 c 128,-1,18
 1201 1412 1201 1412 1201 1350 c 2,19,-1
 1201 1200 l 2,20,21
 1201 1138 1201 1138 1157 1094 c 128,-1,22
 1113 1050 1113 1050 1051 1050 c 0,23,24
 988 1050 988 1050 944.5 1094 c 128,-1,25
 901 1138 901 1138 901 1200 c 1,26,-1
 300 1200 l 1,27,-1
 300 962 l 1,28,-1
 557 706 l 2,29,30
 601 661 601 661 601 600 c 0,31,32
 601 542 601 542 554.5 496 c 128,-1,33
 508 450 508 450 451 450 c 0,34,35
 393 450 393 450 345 494 c 2,36,-1
 300 539 l 1,37,-1
 300 300 l 1,38,-1
 1051 300 l 2,39,40
 1113 300 1113 300 1157 256 c 128,-1,41
 1201 212 1201 212 1201 150 c 256,42,43
 1201 88 1201 88 1157 44 c 128,-1,44
 1113 0 1113 0 1051 0 c 2,0,-1
600 1609 m 256,45,46
 571 1609 571 1609 547 1631 c 2,47,-1
 472 1706 l 2,48,49
 450 1730 450 1730 450 1759 c 256,50,51
 450 1788 450 1788 472 1812 c 0,52,53
 496 1834 496 1834 525 1834 c 256,54,55
 554 1834 554 1834 578 1812 c 2,56,-1
 653 1737 l 2,57,58
 675 1713 675 1713 675 1684 c 256,59,60
 675 1655 675 1655 653 1631 c 0,61,62
 629 1609 629 1609 600 1609 c 256,45,46
EndSplineSet
EndChar

StartChar: Eacute
Encoding: 201 201 137
Width: 1501
GlyphClass: 2
Flags: W
LayerCount: 2
Fore
SplineSet
1051 0 m 2,0,-1
 151 0 l 2,1,2
 89 0 89 0 45 44 c 128,-1,3
 1 88 1 88 1 150 c 2,4,-1
 0 599 l 2,5,6
 0 658 0 658 45 706 c 2,7,-1
 89 750 l 1,8,-1
 45 794 l 2,9,10
 0 841 0 841 0 900 c 2,11,-1
 1 1350 l 2,12,13
 1 1412 1 1412 45 1456 c 128,-1,14
 89 1500 89 1500 151 1500 c 2,15,-1
 1051 1500 l 2,16,17
 1113 1500 1113 1500 1157 1456 c 128,-1,18
 1201 1412 1201 1412 1201 1350 c 2,19,-1
 1201 1200 l 2,20,21
 1201 1138 1201 1138 1157 1094 c 128,-1,22
 1113 1050 1113 1050 1051 1050 c 0,23,24
 988 1050 988 1050 944.5 1094 c 128,-1,25
 901 1138 901 1138 901 1200 c 1,26,-1
 300 1200 l 1,27,-1
 300 962 l 1,28,-1
 557 706 l 2,29,30
 601 661 601 661 601 600 c 0,31,32
 601 542 601 542 554.5 496 c 128,-1,33
 508 450 508 450 451 450 c 0,34,35
 393 450 393 450 345 494 c 2,36,-1
 300 539 l 1,37,-1
 300 300 l 1,38,-1
 1051 300 l 2,39,40
 1113 300 1113 300 1157 256 c 128,-1,41
 1201 212 1201 212 1201 150 c 256,42,43
 1201 88 1201 88 1157 44 c 128,-1,44
 1113 0 1113 0 1051 0 c 2,0,-1
675 1834 m 256,45,46
 704 1834 704 1834 728 1812 c 0,47,48
 750 1788 750 1788 750 1759 c 256,49,50
 750 1730 750 1730 728 1706 c 2,51,-1
 653 1631 l 2,52,53
 629 1609 629 1609 600 1609 c 256,54,55
 571 1609 571 1609 547 1631 c 0,56,57
 525 1656 525 1656 525 1684 c 0,58,59
 525 1713 525 1713 547 1737 c 2,60,-1
 622 1812 l 2,61,62
 646 1834 646 1834 675 1834 c 256,45,46
EndSplineSet
EndChar

StartChar: Ecircumflex
Encoding: 202 202 138
Width: 1501
GlyphClass: 2
Flags: W
LayerCount: 2
Fore
SplineSet
1051 0 m 2,0,-1
 151 0 l 2,1,2
 89 0 89 0 45 44 c 128,-1,3
 1 88 1 88 1 150 c 2,4,-1
 0 599 l 2,5,6
 0 658 0 658 45 706 c 2,7,-1
 89 750 l 1,8,-1
 45 794 l 2,9,10
 0 841 0 841 0 900 c 2,11,-1
 1 1350 l 2,12,13
 1 1412 1 1412 45 1456 c 128,-1,14
 89 1500 89 1500 151 1500 c 2,15,-1
 1051 1500 l 2,16,17
 1113 1500 1113 1500 1157 1456 c 128,-1,18
 1201 1412 1201 1412 1201 1350 c 2,19,-1
 1201 1200 l 2,20,21
 1201 1138 1201 1138 1157 1094 c 128,-1,22
 1113 1050 1113 1050 1051 1050 c 0,23,24
 988 1050 988 1050 944.5 1094 c 128,-1,25
 901 1138 901 1138 901 1200 c 1,26,-1
 300 1200 l 1,27,-1
 300 962 l 1,28,-1
 557 706 l 2,29,30
 601 661 601 661 601 600 c 0,31,32
 601 542 601 542 554.5 496 c 128,-1,33
 508 450 508 450 451 450 c 0,34,35
 393 450 393 450 345 494 c 2,36,-1
 300 539 l 1,37,-1
 300 300 l 1,38,-1
 1051 300 l 2,39,40
 1113 300 1113 300 1157 256 c 128,-1,41
 1201 212 1201 212 1201 150 c 256,42,43
 1201 88 1201 88 1157 44 c 128,-1,44
 1113 0 1113 0 1051 0 c 2,0,-1
675 1609 m 256,45,46
 646 1609 646 1609 622 1631 c 2,47,-1
 600 1653 l 1,48,-1
 578 1631 l 2,49,50
 554 1609 554 1609 525 1609 c 256,51,52
 496 1609 496 1609 472 1631 c 0,53,54
 450 1655 450 1655 450 1684 c 256,55,56
 450 1713 450 1713 472 1737 c 2,57,-1
 547 1812 l 2,58,59
 571 1834 571 1834 600 1834 c 256,60,61
 629 1834 629 1834 653 1812 c 2,62,-1
 728 1737 l 2,63,64
 750 1713 750 1713 750 1684 c 256,65,66
 750 1655 750 1655 728 1631 c 0,67,68
 704 1609 704 1609 675 1609 c 256,45,46
EndSplineSet
EndChar

StartChar: Edieresis
Encoding: 203 203 139
Width: 1501
GlyphClass: 2
Flags: W
LayerCount: 2
Fore
SplineSet
1051 0 m 2,0,-1
 151 0 l 2,1,2
 89 0 89 0 45 44 c 128,-1,3
 1 88 1 88 1 150 c 2,4,-1
 0 599 l 2,5,6
 0 658 0 658 45 706 c 2,7,-1
 89 750 l 1,8,-1
 45 794 l 2,9,10
 0 841 0 841 0 900 c 2,11,-1
 1 1350 l 2,12,13
 1 1412 1 1412 45 1456 c 128,-1,14
 89 1500 89 1500 151 1500 c 2,15,-1
 1051 1500 l 2,16,17
 1113 1500 1113 1500 1157 1456 c 128,-1,18
 1201 1412 1201 1412 1201 1350 c 2,19,-1
 1201 1200 l 2,20,21
 1201 1138 1201 1138 1157 1094 c 128,-1,22
 1113 1050 1113 1050 1051 1050 c 0,23,24
 988 1050 988 1050 944.5 1094 c 128,-1,25
 901 1138 901 1138 901 1200 c 1,26,-1
 300 1200 l 1,27,-1
 300 962 l 1,28,-1
 557 706 l 2,29,30
 601 661 601 661 601 600 c 0,31,32
 601 542 601 542 554.5 496 c 128,-1,33
 508 450 508 450 451 450 c 0,34,35
 393 450 393 450 345 494 c 2,36,-1
 300 539 l 1,37,-1
 300 300 l 1,38,-1
 1051 300 l 2,39,40
 1113 300 1113 300 1157 256 c 128,-1,41
 1201 212 1201 212 1201 150 c 256,42,43
 1201 88 1201 88 1157 44 c 128,-1,44
 1113 0 1113 0 1051 0 c 2,0,-1
513 1725 m 256,45,46
 539 1725 539 1725 557 1707 c 0,47,48
 575 1688 575 1688 575 1662 c 256,49,50
 575 1636 575 1636 557 1618 c 0,51,52
 538 1600 538 1600 513 1600 c 0,53,54
 486 1600 486 1600 468 1618 c 0,55,56
 450 1637 450 1637 450 1663 c 256,57,58
 450 1689 450 1689 468 1707 c 0,59,60
 487 1725 487 1725 513 1725 c 256,45,46
688 1725 m 256,61,62
 714 1725 714 1725 732 1707 c 0,63,64
 750 1688 750 1688 750 1662 c 256,65,66
 750 1636 750 1636 732 1618 c 0,67,68
 713 1600 713 1600 688 1600 c 0,69,70
 661 1600 661 1600 643 1618 c 0,71,72
 625 1637 625 1637 625 1663 c 256,73,74
 625 1689 625 1689 643 1707 c 0,75,76
 662 1725 662 1725 688 1725 c 256,61,62
EndSplineSet
EndChar

StartChar: Igrave
Encoding: 204 204 140
Width: 600
GlyphClass: 2
Flags: W
LayerCount: 2
Fore
SplineSet
150 0 m 256,0,1
 88 0 88 0 44 43.5 c 128,-1,2
 0 87 0 87 0 150 c 2,3,-1
 0 1349 l 2,4,5
 0 1411 0 1411 44 1455 c 128,-1,6
 88 1499 88 1499 150 1499 c 256,7,8
 212 1499 212 1499 256 1455 c 128,-1,9
 300 1411 300 1411 300 1349 c 2,10,-1
 300 150 l 2,11,12
 300 87 300 87 256 43.5 c 128,-1,13
 212 0 212 0 150 0 c 256,0,1
150 1609 m 256,14,15
 121 1609 121 1609 97 1631 c 2,16,-1
 22 1706 l 2,17,18
 0 1730 0 1730 0 1759 c 256,19,20
 0 1788 0 1788 22 1812 c 0,21,22
 46 1834 46 1834 75 1834 c 256,23,24
 104 1834 104 1834 128 1812 c 2,25,-1
 203 1737 l 2,26,27
 225 1713 225 1713 225 1684 c 256,28,29
 225 1655 225 1655 203 1631 c 0,30,31
 179 1609 179 1609 150 1609 c 256,14,15
EndSplineSet
EndChar

StartChar: Iacute
Encoding: 205 205 141
Width: 600
GlyphClass: 2
Flags: W
LayerCount: 2
Fore
SplineSet
150 0 m 256,0,1
 88 0 88 0 44 43.5 c 128,-1,2
 0 87 0 87 0 150 c 2,3,-1
 0 1349 l 2,4,5
 0 1411 0 1411 44 1455 c 128,-1,6
 88 1499 88 1499 150 1499 c 256,7,8
 212 1499 212 1499 256 1455 c 128,-1,9
 300 1411 300 1411 300 1349 c 2,10,-1
 300 150 l 2,11,12
 300 87 300 87 256 43.5 c 128,-1,13
 212 0 212 0 150 0 c 256,0,1
225 1834 m 256,14,15
 254 1834 254 1834 278 1812 c 0,16,17
 300 1788 300 1788 300 1759 c 256,18,19
 300 1730 300 1730 278 1706 c 2,20,-1
 203 1631 l 2,21,22
 179 1609 179 1609 150 1609 c 256,23,24
 121 1609 121 1609 97 1631 c 0,25,26
 75 1656 75 1656 75 1684 c 0,27,28
 75 1713 75 1713 97 1737 c 2,29,-1
 172 1812 l 2,30,31
 196 1834 196 1834 225 1834 c 256,14,15
EndSplineSet
EndChar

StartChar: Icircumflex
Encoding: 206 206 142
Width: 600
GlyphClass: 2
Flags: W
LayerCount: 2
Fore
SplineSet
150 0 m 256,0,1
 88 0 88 0 44 43.5 c 128,-1,2
 0 87 0 87 0 150 c 2,3,-1
 0 1349 l 2,4,5
 0 1411 0 1411 44 1455 c 128,-1,6
 88 1499 88 1499 150 1499 c 256,7,8
 212 1499 212 1499 256 1455 c 128,-1,9
 300 1411 300 1411 300 1349 c 2,10,-1
 300 150 l 2,11,12
 300 87 300 87 256 43.5 c 128,-1,13
 212 0 212 0 150 0 c 256,0,1
225 1609 m 256,14,15
 196 1609 196 1609 172 1631 c 2,16,-1
 150 1653 l 1,17,-1
 128 1631 l 2,18,19
 104 1609 104 1609 75 1609 c 256,20,21
 46 1609 46 1609 22 1631 c 0,22,23
 0 1655 0 1655 0 1684 c 256,24,25
 0 1713 0 1713 22 1737 c 2,26,-1
 97 1812 l 2,27,28
 121 1834 121 1834 150 1834 c 256,29,30
 179 1834 179 1834 203 1812 c 2,31,-1
 278 1737 l 2,32,33
 300 1713 300 1713 300 1684 c 256,34,35
 300 1655 300 1655 278 1631 c 0,36,37
 254 1609 254 1609 225 1609 c 256,14,15
EndSplineSet
EndChar

StartChar: Idieresis
Encoding: 207 207 143
Width: 600
GlyphClass: 2
Flags: W
LayerCount: 2
Fore
SplineSet
150 0 m 256,0,1
 88 0 88 0 44 43.5 c 128,-1,2
 0 87 0 87 0 150 c 2,3,-1
 0 1349 l 2,4,5
 0 1411 0 1411 44 1455 c 128,-1,6
 88 1499 88 1499 150 1499 c 256,7,8
 212 1499 212 1499 256 1455 c 128,-1,9
 300 1411 300 1411 300 1349 c 2,10,-1
 300 150 l 2,11,12
 300 87 300 87 256 43.5 c 128,-1,13
 212 0 212 0 150 0 c 256,0,1
63 1725 m 256,14,15
 89 1725 89 1725 107 1707 c 0,16,17
 125 1688 125 1688 125 1662 c 256,18,19
 125 1636 125 1636 107 1618 c 0,20,21
 88 1600 88 1600 63 1600 c 0,22,23
 36 1600 36 1600 18 1618 c 0,24,25
 0 1637 0 1637 0 1663 c 256,26,27
 0 1689 0 1689 18 1707 c 0,28,29
 37 1725 37 1725 63 1725 c 256,14,15
238 1725 m 256,30,31
 264 1725 264 1725 282 1707 c 0,32,33
 300 1688 300 1688 300 1662 c 256,34,35
 300 1636 300 1636 282 1618 c 0,36,37
 263 1600 263 1600 238 1600 c 0,38,39
 211 1600 211 1600 193 1618 c 0,40,41
 175 1637 175 1637 175 1663 c 256,42,43
 175 1689 175 1689 193 1707 c 0,44,45
 212 1725 212 1725 238 1725 c 256,30,31
EndSplineSet
EndChar

StartChar: Ntilde
Encoding: 209 209 145
Width: 1500
GlyphClass: 2
Flags: W
LayerCount: 2
Fore
SplineSet
1050 0 m 0,0,1
 973 0 973 0 923 71 c 2,2,-1
 300 900 l 1,3,-1
 300 150 l 2,4,5
 300 87 300 87 256.5 43.5 c 128,-1,6
 213 0 213 0 150 0 c 0,7,8
 88 0 88 0 44 43.5 c 128,-1,9
 0 87 0 87 0 150 c 2,10,-1
 0 1349 l 2,11,12
 0 1411 0 1411 44 1455 c 128,-1,13
 88 1499 88 1499 150 1499 c 0,14,15
 227 1499 227 1499 278 1428 c 2,16,-1
 900 598 l 1,17,-1
 900 1349 l 2,18,19
 900 1411 900 1411 944 1455 c 128,-1,20
 988 1499 988 1499 1050 1499 c 256,21,22
 1112 1499 1112 1499 1156 1455 c 128,-1,23
 1200 1411 1200 1411 1200 1349 c 2,24,-1
 1200 150 l 2,25,26
 1200 87 1200 87 1156 43.5 c 128,-1,27
 1112 0 1112 0 1050 0 c 0,0,1
630 1600 m 256,28,29
 607 1600 607 1600 588 1618 c 2,30,-1
 570 1635 l 1,31,-1
 552 1618 l 2,32,33
 533 1600 533 1600 510 1600 c 256,34,35
 487 1600 487 1600 468 1618 c 0,36,37
 450 1637 450 1637 450 1660 c 256,38,39
 450 1683 450 1683 468 1702 c 2,40,-1
 528 1762 l 2,41,42
 546 1780 546 1780 570 1780 c 256,43,44
 594 1780 594 1780 612 1762 c 2,45,-1
 630 1745 l 1,46,-1
 648 1762 l 2,47,48
 667 1780 667 1780 690 1780 c 256,49,50
 713 1780 713 1780 732 1762 c 0,51,52
 750 1743 750 1743 750 1720 c 256,53,54
 750 1697 750 1697 732 1678 c 2,55,-1
 672 1618 l 2,56,57
 653 1600 653 1600 630 1600 c 256,28,29
EndSplineSet
EndChar

StartChar: Ograve
Encoding: 210 210 146
Width: 1500
GlyphClass: 2
Flags: W
LayerCount: 2
Fore
SplineSet
838 300 m 1,0,-1
 900 362 l 1,1,-1
 900 1137 l 1,2,-1
 838 1199 l 1,3,-1
 362 1199 l 1,4,-1
 300 1137 l 1,5,-1
 300 362 l 1,6,-1
 362 300 l 1,7,-1
 838 300 l 1,0,-1
900 0 m 2,8,-1
 300 0 l 2,9,10
 242 0 242 0 194 44 c 2,11,-1
 45 193 l 2,12,13
 0 237 0 237 0 300 c 2,14,-1
 0 1199 l 2,15,16
 0 1257 0 1257 44 1305 c 2,17,-1
 193 1454 l 2,18,19
 237 1499 237 1499 300 1499 c 2,20,-1
 900 1499 l 2,21,22
 960 1499 960 1499 1006 1455 c 2,23,-1
 1155 1306 l 2,24,25
 1200 1262 1200 1262 1200 1199 c 2,26,-1
 1200 300 l 2,27,28
 1200 240 1200 240 1156 193 c 2,29,-1
 1007 44 l 2,30,31
 963 0 963 0 900 0 c 2,8,-1
600 1609 m 256,32,33
 571 1609 571 1609 547 1631 c 2,34,-1
 472 1706 l 2,35,36
 450 1730 450 1730 450 1759 c 256,37,38
 450 1788 450 1788 472 1812 c 0,39,40
 496 1834 496 1834 525 1834 c 256,41,42
 554 1834 554 1834 578 1812 c 2,43,-1
 653 1737 l 2,44,45
 675 1713 675 1713 675 1684 c 256,46,47
 675 1655 675 1655 653 1631 c 0,48,49
 629 1609 629 1609 600 1609 c 256,32,33
EndSplineSet
EndChar

StartChar: Oacute
Encoding: 211 211 147
Width: 1500
GlyphClass: 2
Flags: W
LayerCount: 2
Fore
SplineSet
838 300 m 1,0,-1
 900 362 l 1,1,-1
 900 1137 l 1,2,-1
 838 1199 l 1,3,-1
 362 1199 l 1,4,-1
 300 1137 l 1,5,-1
 300 362 l 1,6,-1
 362 300 l 1,7,-1
 838 300 l 1,0,-1
900 0 m 2,8,-1
 300 0 l 2,9,10
 242 0 242 0 194 44 c 2,11,-1
 45 193 l 2,12,13
 0 237 0 237 0 300 c 2,14,-1
 0 1199 l 2,15,16
 0 1257 0 1257 44 1305 c 2,17,-1
 193 1454 l 2,18,19
 237 1499 237 1499 300 1499 c 2,20,-1
 900 1499 l 2,21,22
 960 1499 960 1499 1006 1455 c 2,23,-1
 1155 1306 l 2,24,25
 1200 1262 1200 1262 1200 1199 c 2,26,-1
 1200 300 l 2,27,28
 1200 240 1200 240 1156 193 c 2,29,-1
 1007 44 l 2,30,31
 963 0 963 0 900 0 c 2,8,-1
675 1834 m 256,32,33
 704 1834 704 1834 728 1812 c 0,34,35
 750 1788 750 1788 750 1759 c 256,36,37
 750 1730 750 1730 728 1706 c 2,38,-1
 653 1631 l 2,39,40
 629 1609 629 1609 600 1609 c 256,41,42
 571 1609 571 1609 547 1631 c 0,43,44
 525 1656 525 1656 525 1684 c 0,45,46
 525 1713 525 1713 547 1737 c 2,47,-1
 622 1812 l 2,48,49
 646 1834 646 1834 675 1834 c 256,32,33
EndSplineSet
EndChar

StartChar: Ocircumflex
Encoding: 212 212 148
Width: 1500
GlyphClass: 2
Flags: W
LayerCount: 2
Fore
SplineSet
838 300 m 1,0,-1
 900 362 l 1,1,-1
 900 1137 l 1,2,-1
 838 1199 l 1,3,-1
 362 1199 l 1,4,-1
 300 1137 l 1,5,-1
 300 362 l 1,6,-1
 362 300 l 1,7,-1
 838 300 l 1,0,-1
900 0 m 2,8,-1
 300 0 l 2,9,10
 242 0 242 0 194 44 c 2,11,-1
 45 193 l 2,12,13
 0 237 0 237 0 300 c 2,14,-1
 0 1199 l 2,15,16
 0 1257 0 1257 44 1305 c 2,17,-1
 193 1454 l 2,18,19
 237 1499 237 1499 300 1499 c 2,20,-1
 900 1499 l 2,21,22
 960 1499 960 1499 1006 1455 c 2,23,-1
 1155 1306 l 2,24,25
 1200 1262 1200 1262 1200 1199 c 2,26,-1
 1200 300 l 2,27,28
 1200 240 1200 240 1156 193 c 2,29,-1
 1007 44 l 2,30,31
 963 0 963 0 900 0 c 2,8,-1
675 1609 m 256,32,33
 646 1609 646 1609 622 1631 c 2,34,-1
 600 1653 l 1,35,-1
 578 1631 l 2,36,37
 554 1609 554 1609 525 1609 c 256,38,39
 496 1609 496 1609 472 1631 c 0,40,41
 450 1655 450 1655 450 1684 c 256,42,43
 450 1713 450 1713 472 1737 c 2,44,-1
 547 1812 l 2,45,46
 571 1834 571 1834 600 1834 c 256,47,48
 629 1834 629 1834 653 1812 c 2,49,-1
 728 1737 l 2,50,51
 750 1713 750 1713 750 1684 c 256,52,53
 750 1655 750 1655 728 1631 c 0,54,55
 704 1609 704 1609 675 1609 c 256,32,33
EndSplineSet
EndChar

StartChar: Otilde
Encoding: 213 213 149
Width: 1500
GlyphClass: 2
Flags: W
LayerCount: 2
Fore
SplineSet
838 300 m 1,0,-1
 900 362 l 1,1,-1
 900 1137 l 1,2,-1
 838 1199 l 1,3,-1
 362 1199 l 1,4,-1
 300 1137 l 1,5,-1
 300 362 l 1,6,-1
 362 300 l 1,7,-1
 838 300 l 1,0,-1
900 0 m 2,8,-1
 300 0 l 2,9,10
 242 0 242 0 194 44 c 2,11,-1
 45 193 l 2,12,13
 0 237 0 237 0 300 c 2,14,-1
 0 1199 l 2,15,16
 0 1257 0 1257 44 1305 c 2,17,-1
 193 1454 l 2,18,19
 237 1499 237 1499 300 1499 c 2,20,-1
 900 1499 l 2,21,22
 960 1499 960 1499 1006 1455 c 2,23,-1
 1155 1306 l 2,24,25
 1200 1262 1200 1262 1200 1199 c 2,26,-1
 1200 300 l 2,27,28
 1200 240 1200 240 1156 193 c 2,29,-1
 1007 44 l 2,30,31
 963 0 963 0 900 0 c 2,8,-1
630 1600 m 256,32,33
 607 1600 607 1600 588 1618 c 2,34,-1
 570 1635 l 1,35,-1
 552 1618 l 2,36,37
 533 1600 533 1600 510 1600 c 256,38,39
 487 1600 487 1600 468 1618 c 0,40,41
 450 1637 450 1637 450 1660 c 256,42,43
 450 1683 450 1683 468 1702 c 2,44,-1
 528 1762 l 2,45,46
 546 1780 546 1780 570 1780 c 256,47,48
 594 1780 594 1780 612 1762 c 2,49,-1
 630 1745 l 1,50,-1
 648 1762 l 2,51,52
 667 1780 667 1780 690 1780 c 256,53,54
 713 1780 713 1780 732 1762 c 0,55,56
 750 1743 750 1743 750 1720 c 256,57,58
 750 1697 750 1697 732 1678 c 2,59,-1
 672 1618 l 2,60,61
 653 1600 653 1600 630 1600 c 256,32,33
EndSplineSet
EndChar

StartChar: Odieresis
Encoding: 214 214 150
Width: 1500
GlyphClass: 2
Flags: W
LayerCount: 2
Fore
SplineSet
838 300 m 1,0,-1
 900 362 l 1,1,-1
 900 1137 l 1,2,-1
 838 1199 l 1,3,-1
 362 1199 l 1,4,-1
 300 1137 l 1,5,-1
 300 362 l 1,6,-1
 362 300 l 1,7,-1
 838 300 l 1,0,-1
900 0 m 2,8,-1
 300 0 l 2,9,10
 242 0 242 0 194 44 c 2,11,-1
 45 193 l 2,12,13
 0 237 0 237 0 300 c 2,14,-1
 0 1199 l 2,15,16
 0 1257 0 1257 44 1305 c 2,17,-1
 193 1454 l 2,18,19
 237 1499 237 1499 300 1499 c 2,20,-1
 900 1499 l 2,21,22
 960 1499 960 1499 1006 1455 c 2,23,-1
 1155 1306 l 2,24,25
 1200 1262 1200 1262 1200 1199 c 2,26,-1
 1200 300 l 2,27,28
 1200 240 1200 240 1156 193 c 2,29,-1
 1007 44 l 2,30,31
 963 0 963 0 900 0 c 2,8,-1
513 1725 m 256,32,33
 539 1725 539 1725 557 1707 c 0,34,35
 575 1688 575 1688 575 1662 c 256,36,37
 575 1636 575 1636 557 1618 c 0,38,39
 538 1600 538 1600 513 1600 c 0,40,41
 486 1600 486 1600 468 1618 c 0,42,43
 450 1637 450 1637 450 1663 c 256,44,45
 450 1689 450 1689 468 1707 c 0,46,47
 487 1725 487 1725 513 1725 c 256,32,33
688 1725 m 256,48,49
 714 1725 714 1725 732 1707 c 0,50,51
 750 1688 750 1688 750 1662 c 256,52,53
 750 1636 750 1636 732 1618 c 0,54,55
 713 1600 713 1600 688 1600 c 0,56,57
 661 1600 661 1600 643 1618 c 0,58,59
 625 1637 625 1637 625 1663 c 256,60,61
 625 1689 625 1689 643 1707 c 0,62,63
 662 1725 662 1725 688 1725 c 256,48,49
EndSplineSet
EndChar

StartChar: Oslash
Encoding: 216 216 152
Width: 1500
GlyphClass: 2
Flags: W
LayerCount: 2
Fore
SplineSet
363 300 m 1,0,-1
 838 300 l 1,1,-1
 900 362 l 1,2,-1
 900 838 l 1,3,-1
 363 300 l 1,0,-1
837 1199 m 1,4,-1
 362 1199 l 1,5,-1
 300 1137 l 1,6,-1
 300 661 l 1,7,-1
 837 1199 l 1,4,-1
900 0 m 2,8,-1
 300 0 l 2,9,10
 242 0 242 0 194 44 c 2,11,-1
 45 193 l 2,12,13
 0 237 0 237 0 300 c 2,14,-1
 0 1199 l 2,15,16
 0 1257 0 1257 44 1305 c 2,17,-1
 193 1454 l 2,18,19
 237 1499 237 1499 300 1499 c 2,20,-1
 900 1499 l 2,21,22
 960 1499 960 1499 1006 1455 c 2,23,-1
 1155 1306 l 2,24,25
 1200 1262 1200 1262 1200 1199 c 2,26,-1
 1200 300 l 2,27,28
 1200 240 1200 240 1156 193 c 2,29,-1
 1007 44 l 2,30,31
 963 0 963 0 900 0 c 2,8,-1
EndSplineSet
EndChar

StartChar: Ugrave
Encoding: 217 217 153
Width: 1500
GlyphClass: 2
Flags: W
LayerCount: 2
Fore
SplineSet
900 0 m 2,0,-1
 300 0 l 2,1,2
 240 0 240 0 194 44 c 2,3,-1
 45 193 l 2,4,5
 0 237 0 237 0 300 c 2,6,-1
 0 1349 l 2,7,8
 0 1411 0 1411 44 1455 c 128,-1,9
 88 1499 88 1499 150 1499 c 256,10,11
 212 1499 212 1499 256 1455 c 128,-1,12
 300 1411 300 1411 300 1349 c 2,13,-1
 300 362 l 1,14,-1
 362 300 l 1,15,-1
 838 300 l 1,16,-1
 900 362 l 1,17,-1
 900 1349 l 2,18,19
 900 1411 900 1411 944 1455 c 128,-1,20
 988 1499 988 1499 1050 1499 c 256,21,22
 1112 1499 1112 1499 1156 1455 c 128,-1,23
 1200 1411 1200 1411 1200 1349 c 2,24,-1
 1200 300 l 2,25,26
 1200 240 1200 240 1156 193 c 2,27,-1
 1007 44 l 2,28,29
 963 0 963 0 900 0 c 2,0,-1
600 1609 m 256,30,31
 571 1609 571 1609 547 1631 c 2,32,-1
 472 1706 l 2,33,34
 450 1730 450 1730 450 1759 c 256,35,36
 450 1788 450 1788 472 1812 c 0,37,38
 496 1834 496 1834 525 1834 c 256,39,40
 554 1834 554 1834 578 1812 c 2,41,-1
 653 1737 l 2,42,43
 675 1713 675 1713 675 1684 c 256,44,45
 675 1655 675 1655 653 1631 c 0,46,47
 629 1609 629 1609 600 1609 c 256,30,31
EndSplineSet
EndChar

StartChar: Uacute
Encoding: 218 218 154
Width: 1500
GlyphClass: 2
Flags: W
LayerCount: 2
Fore
SplineSet
900 0 m 2,0,-1
 300 0 l 2,1,2
 240 0 240 0 194 44 c 2,3,-1
 45 193 l 2,4,5
 0 237 0 237 0 300 c 2,6,-1
 0 1349 l 2,7,8
 0 1411 0 1411 44 1455 c 128,-1,9
 88 1499 88 1499 150 1499 c 256,10,11
 212 1499 212 1499 256 1455 c 128,-1,12
 300 1411 300 1411 300 1349 c 2,13,-1
 300 362 l 1,14,-1
 362 300 l 1,15,-1
 838 300 l 1,16,-1
 900 362 l 1,17,-1
 900 1349 l 2,18,19
 900 1411 900 1411 944 1455 c 128,-1,20
 988 1499 988 1499 1050 1499 c 256,21,22
 1112 1499 1112 1499 1156 1455 c 128,-1,23
 1200 1411 1200 1411 1200 1349 c 2,24,-1
 1200 300 l 2,25,26
 1200 240 1200 240 1156 193 c 2,27,-1
 1007 44 l 2,28,29
 963 0 963 0 900 0 c 2,0,-1
675 1834 m 256,30,31
 704 1834 704 1834 728 1812 c 0,32,33
 750 1788 750 1788 750 1759 c 256,34,35
 750 1730 750 1730 728 1706 c 2,36,-1
 653 1631 l 2,37,38
 629 1609 629 1609 600 1609 c 256,39,40
 571 1609 571 1609 547 1631 c 0,41,42
 525 1656 525 1656 525 1684 c 0,43,44
 525 1713 525 1713 547 1737 c 2,45,-1
 622 1812 l 2,46,47
 646 1834 646 1834 675 1834 c 256,30,31
EndSplineSet
EndChar

StartChar: Ucircumflex
Encoding: 219 219 155
Width: 1500
GlyphClass: 2
Flags: W
LayerCount: 2
Fore
SplineSet
900 0 m 2,0,-1
 300 0 l 2,1,2
 240 0 240 0 194 44 c 2,3,-1
 45 193 l 2,4,5
 0 237 0 237 0 300 c 2,6,-1
 0 1349 l 2,7,8
 0 1411 0 1411 44 1455 c 128,-1,9
 88 1499 88 1499 150 1499 c 256,10,11
 212 1499 212 1499 256 1455 c 128,-1,12
 300 1411 300 1411 300 1349 c 2,13,-1
 300 362 l 1,14,-1
 362 300 l 1,15,-1
 838 300 l 1,16,-1
 900 362 l 1,17,-1
 900 1349 l 2,18,19
 900 1411 900 1411 944 1455 c 128,-1,20
 988 1499 988 1499 1050 1499 c 256,21,22
 1112 1499 1112 1499 1156 1455 c 128,-1,23
 1200 1411 1200 1411 1200 1349 c 2,24,-1
 1200 300 l 2,25,26
 1200 240 1200 240 1156 193 c 2,27,-1
 1007 44 l 2,28,29
 963 0 963 0 900 0 c 2,0,-1
675 1609 m 256,30,31
 646 1609 646 1609 622 1631 c 2,32,-1
 600 1653 l 1,33,-1
 578 1631 l 2,34,35
 554 1609 554 1609 525 1609 c 256,36,37
 496 1609 496 1609 472 1631 c 0,38,39
 450 1655 450 1655 450 1684 c 256,40,41
 450 1713 450 1713 472 1737 c 2,42,-1
 547 1812 l 2,43,44
 571 1834 571 1834 600 1834 c 256,45,46
 629 1834 629 1834 653 1812 c 2,47,-1
 728 1737 l 2,48,49
 750 1713 750 1713 750 1684 c 256,50,51
 750 1655 750 1655 728 1631 c 0,52,53
 704 1609 704 1609 675 1609 c 256,30,31
EndSplineSet
EndChar

StartChar: Udieresis
Encoding: 220 220 156
Width: 1500
GlyphClass: 2
Flags: W
LayerCount: 2
Fore
SplineSet
900 0 m 2,0,-1
 300 0 l 2,1,2
 240 0 240 0 194 44 c 2,3,-1
 45 193 l 2,4,5
 0 237 0 237 0 300 c 2,6,-1
 0 1349 l 2,7,8
 0 1411 0 1411 44 1455 c 128,-1,9
 88 1499 88 1499 150 1499 c 256,10,11
 212 1499 212 1499 256 1455 c 128,-1,12
 300 1411 300 1411 300 1349 c 2,13,-1
 300 362 l 1,14,-1
 362 300 l 1,15,-1
 838 300 l 1,16,-1
 900 362 l 1,17,-1
 900 1349 l 2,18,19
 900 1411 900 1411 944 1455 c 128,-1,20
 988 1499 988 1499 1050 1499 c 256,21,22
 1112 1499 1112 1499 1156 1455 c 128,-1,23
 1200 1411 1200 1411 1200 1349 c 2,24,-1
 1200 300 l 2,25,26
 1200 240 1200 240 1156 193 c 2,27,-1
 1007 44 l 2,28,29
 963 0 963 0 900 0 c 2,0,-1
513 1725 m 256,30,31
 539 1725 539 1725 557 1707 c 0,32,33
 575 1688 575 1688 575 1662 c 256,34,35
 575 1636 575 1636 557 1618 c 0,36,37
 538 1600 538 1600 513 1600 c 0,38,39
 486 1600 486 1600 468 1618 c 0,40,41
 450 1637 450 1637 450 1663 c 256,42,43
 450 1689 450 1689 468 1707 c 0,44,45
 487 1725 487 1725 513 1725 c 256,30,31
688 1725 m 256,46,47
 714 1725 714 1725 732 1707 c 0,48,49
 750 1688 750 1688 750 1662 c 256,50,51
 750 1636 750 1636 732 1618 c 0,52,53
 713 1600 713 1600 688 1600 c 0,54,55
 661 1600 661 1600 643 1618 c 0,56,57
 625 1637 625 1637 625 1663 c 256,58,59
 625 1689 625 1689 643 1707 c 0,60,61
 662 1725 662 1725 688 1725 c 256,46,47
EndSplineSet
EndChar

StartChar: Yacute
Encoding: 221 221 157
Width: 1500
GlyphClass: 2
Flags: W
LayerCount: 2
Fore
SplineSet
600 0 m 256,0,1
 538 0 538 0 494 44 c 128,-1,2
 450 88 450 88 450 150 c 2,3,-1
 450 688 l 1,4,-1
 45 1093 l 2,5,6
 0 1137 0 1137 0 1200 c 2,7,-1
 0 1350 l 2,8,9
 0 1412 0 1412 44 1456 c 128,-1,10
 88 1500 88 1500 150 1500 c 0,11,12
 213 1500 213 1500 256.5 1456 c 128,-1,13
 300 1412 300 1412 300 1350 c 2,14,-1
 300 1262 l 1,15,-1
 600 962 l 1,16,-1
 900 1262 l 1,17,-1
 900 1350 l 2,18,19
 900 1412 900 1412 944 1456 c 128,-1,20
 988 1500 988 1500 1050 1500 c 256,21,22
 1112 1500 1112 1500 1156 1456 c 128,-1,23
 1200 1412 1200 1412 1200 1350 c 2,24,-1
 1200 1200 l 2,25,26
 1200 1140 1200 1140 1156 1094 c 2,27,-1
 750 688 l 1,28,-1
 750 150 l 2,29,30
 750 88 750 88 706 44 c 128,-1,31
 662 0 662 0 600 0 c 256,0,1
600 1609 m 256,32,33
 571 1609 571 1609 547 1631 c 2,34,-1
 472 1706 l 2,35,36
 450 1730 450 1730 450 1759 c 256,37,38
 450 1788 450 1788 472 1812 c 0,39,40
 496 1834 496 1834 525 1834 c 256,41,42
 554 1834 554 1834 578 1812 c 2,43,-1
 653 1737 l 2,44,45
 675 1713 675 1713 675 1684 c 256,46,47
 675 1655 675 1655 653 1631 c 0,48,49
 629 1609 629 1609 600 1609 c 256,32,33
EndSplineSet
EndChar

StartChar: agrave
Encoding: 224 224 160
Width: 1500
GlyphClass: 2
Flags: W
LayerCount: 2
Fore
SplineSet
1050 0 m 2,0,-1
 150 0 l 2,1,2
 88 0 88 0 44 44 c 128,-1,3
 0 88 0 88 0 150 c 1,4,-1
 1 150 l 1,5,-1
 1 525 l 2,6,7
 1 576 1 576 30.5 615 c 128,-1,8
 60 654 60 654 108 668 c 2,9,-1
 803 900 l 1,10,-1
 300 900 l 1,11,12
 300 838 300 838 256 794 c 128,-1,13
 212 750 212 750 150 750 c 256,14,15
 88 750 88 750 44 793.5 c 128,-1,16
 0 837 0 837 0 900 c 2,17,-1
 0 1050 l 2,18,19
 0 1112 0 1112 44 1156 c 128,-1,20
 88 1200 88 1200 150 1200 c 2,21,-1
 1050 1200 l 2,22,23
 1112 1200 1112 1200 1156 1156 c 128,-1,24
 1200 1112 1200 1112 1200 1050 c 1,25,-1
 1199 1050 l 1,26,-1
 1199 913 l 2,27,28
 1200 906 1200 906 1200 150 c 0,29,30
 1200 88 1200 88 1156 44 c 128,-1,31
 1112 0 1112 0 1050 0 c 2,0,-1
900 300 m 1,32,-1
 900 617 l 1,33,-1
 299 417 l 1,34,-1
 299 300 l 1,35,-1
 900 300 l 1,32,-1
600 1310 m 256,36,37
 571 1310 571 1310 547 1332 c 2,38,-1
 472 1407 l 2,39,40
 450 1431 450 1431 450 1460 c 256,41,42
 450 1489 450 1489 472 1513 c 0,43,44
 496 1535 496 1535 525 1535 c 256,45,46
 554 1535 554 1535 578 1513 c 2,47,-1
 653 1438 l 2,48,49
 675 1414 675 1414 675 1385 c 256,50,51
 675 1356 675 1356 653 1332 c 0,52,53
 629 1310 629 1310 600 1310 c 256,36,37
EndSplineSet
EndChar

StartChar: aacute
Encoding: 225 225 161
Width: 1500
GlyphClass: 2
Flags: W
LayerCount: 2
Fore
SplineSet
1050 0 m 2,0,-1
 150 0 l 2,1,2
 88 0 88 0 44 44 c 128,-1,3
 0 88 0 88 0 150 c 1,4,-1
 1 150 l 1,5,-1
 1 525 l 2,6,7
 1 576 1 576 30.5 615 c 128,-1,8
 60 654 60 654 108 668 c 2,9,-1
 803 900 l 1,10,-1
 300 900 l 1,11,12
 300 838 300 838 256 794 c 128,-1,13
 212 750 212 750 150 750 c 256,14,15
 88 750 88 750 44 793.5 c 128,-1,16
 0 837 0 837 0 900 c 2,17,-1
 0 1050 l 2,18,19
 0 1112 0 1112 44 1156 c 128,-1,20
 88 1200 88 1200 150 1200 c 2,21,-1
 1050 1200 l 2,22,23
 1112 1200 1112 1200 1156 1156 c 128,-1,24
 1200 1112 1200 1112 1200 1050 c 1,25,-1
 1199 1050 l 1,26,-1
 1199 913 l 2,27,28
 1200 906 1200 906 1200 150 c 0,29,30
 1200 88 1200 88 1156 44 c 128,-1,31
 1112 0 1112 0 1050 0 c 2,0,-1
900 300 m 1,32,-1
 900 617 l 1,33,-1
 299 417 l 1,34,-1
 299 300 l 1,35,-1
 900 300 l 1,32,-1
675 1534 m 256,36,37
 704 1534 704 1534 728 1512 c 0,38,39
 750 1488 750 1488 750 1459 c 256,40,41
 750 1430 750 1430 728 1406 c 2,42,-1
 653 1331 l 2,43,44
 629 1309 629 1309 600 1309 c 256,45,46
 571 1309 571 1309 547 1331 c 0,47,48
 525 1356 525 1356 525 1384 c 0,49,50
 525 1413 525 1413 547 1437 c 2,51,-1
 622 1512 l 2,52,53
 646 1534 646 1534 675 1534 c 256,36,37
EndSplineSet
EndChar

StartChar: acircumflex
Encoding: 226 226 162
Width: 1500
GlyphClass: 2
Flags: W
LayerCount: 2
Fore
SplineSet
1050 0 m 2,0,-1
 150 0 l 2,1,2
 88 0 88 0 44 44 c 128,-1,3
 0 88 0 88 0 150 c 1,4,-1
 1 150 l 1,5,-1
 1 525 l 2,6,7
 1 576 1 576 30.5 615 c 128,-1,8
 60 654 60 654 108 668 c 2,9,-1
 803 900 l 1,10,-1
 300 900 l 1,11,12
 300 838 300 838 256 794 c 128,-1,13
 212 750 212 750 150 750 c 256,14,15
 88 750 88 750 44 793.5 c 128,-1,16
 0 837 0 837 0 900 c 2,17,-1
 0 1050 l 2,18,19
 0 1112 0 1112 44 1156 c 128,-1,20
 88 1200 88 1200 150 1200 c 2,21,-1
 1050 1200 l 2,22,23
 1112 1200 1112 1200 1156 1156 c 128,-1,24
 1200 1112 1200 1112 1200 1050 c 1,25,-1
 1199 1050 l 1,26,-1
 1199 913 l 2,27,28
 1200 906 1200 906 1200 150 c 0,29,30
 1200 88 1200 88 1156 44 c 128,-1,31
 1112 0 1112 0 1050 0 c 2,0,-1
900 300 m 1,32,-1
 900 617 l 1,33,-1
 299 417 l 1,34,-1
 299 300 l 1,35,-1
 900 300 l 1,32,-1
675 1309 m 256,36,37
 646 1309 646 1309 622 1331 c 2,38,-1
 600 1353 l 1,39,-1
 578 1331 l 2,40,41
 554 1309 554 1309 525 1309 c 256,42,43
 496 1309 496 1309 472 1331 c 0,44,45
 450 1355 450 1355 450 1384 c 256,46,47
 450 1413 450 1413 472 1437 c 2,48,-1
 547 1512 l 2,49,50
 571 1534 571 1534 600 1534 c 256,51,52
 629 1534 629 1534 653 1512 c 2,53,-1
 728 1437 l 2,54,55
 750 1413 750 1413 750 1384 c 256,56,57
 750 1355 750 1355 728 1331 c 0,58,59
 704 1309 704 1309 675 1309 c 256,36,37
EndSplineSet
EndChar

StartChar: atilde
Encoding: 227 227 163
Width: 1500
GlyphClass: 2
Flags: W
LayerCount: 2
Fore
SplineSet
1050 0 m 2,0,-1
 150 0 l 2,1,2
 88 0 88 0 44 44 c 128,-1,3
 0 88 0 88 0 150 c 1,4,-1
 1 150 l 1,5,-1
 1 525 l 2,6,7
 1 576 1 576 30.5 615 c 128,-1,8
 60 654 60 654 108 668 c 2,9,-1
 803 900 l 1,10,-1
 300 900 l 1,11,12
 300 838 300 838 256 794 c 128,-1,13
 212 750 212 750 150 750 c 256,14,15
 88 750 88 750 44 793.5 c 128,-1,16
 0 837 0 837 0 900 c 2,17,-1
 0 1050 l 2,18,19
 0 1112 0 1112 44 1156 c 128,-1,20
 88 1200 88 1200 150 1200 c 2,21,-1
 1050 1200 l 2,22,23
 1112 1200 1112 1200 1156 1156 c 128,-1,24
 1200 1112 1200 1112 1200 1050 c 1,25,-1
 1199 1050 l 1,26,-1
 1199 913 l 2,27,28
 1200 906 1200 906 1200 150 c 0,29,30
 1200 88 1200 88 1156 44 c 128,-1,31
 1112 0 1112 0 1050 0 c 2,0,-1
900 300 m 1,32,-1
 900 617 l 1,33,-1
 299 417 l 1,34,-1
 299 300 l 1,35,-1
 900 300 l 1,32,-1
630 1300 m 256,36,37
 607 1300 607 1300 588 1318 c 2,38,-1
 570 1335 l 1,39,-1
 552 1318 l 2,40,41
 533 1300 533 1300 510 1300 c 256,42,43
 487 1300 487 1300 468 1318 c 0,44,45
 450 1337 450 1337 450 1360 c 256,46,47
 450 1383 450 1383 468 1402 c 2,48,-1
 528 1462 l 2,49,50
 546 1480 546 1480 570 1480 c 256,51,52
 594 1480 594 1480 612 1462 c 2,53,-1
 630 1445 l 1,54,-1
 648 1462 l 2,55,56
 667 1480 667 1480 690 1480 c 256,57,58
 713 1480 713 1480 732 1462 c 0,59,60
 750 1443 750 1443 750 1420 c 256,61,62
 750 1397 750 1397 732 1378 c 2,63,-1
 672 1318 l 2,64,65
 653 1300 653 1300 630 1300 c 256,36,37
EndSplineSet
EndChar

StartChar: adieresis
Encoding: 228 228 164
Width: 1500
GlyphClass: 2
Flags: W
LayerCount: 2
Fore
SplineSet
1050 0 m 2,0,-1
 150 0 l 2,1,2
 88 0 88 0 44 44 c 128,-1,3
 0 88 0 88 0 150 c 1,4,-1
 1 150 l 1,5,-1
 1 525 l 2,6,7
 1 576 1 576 30.5 615 c 128,-1,8
 60 654 60 654 108 668 c 2,9,-1
 803 900 l 1,10,-1
 300 900 l 1,11,12
 300 838 300 838 256 794 c 128,-1,13
 212 750 212 750 150 750 c 256,14,15
 88 750 88 750 44 793.5 c 128,-1,16
 0 837 0 837 0 900 c 2,17,-1
 0 1050 l 2,18,19
 0 1112 0 1112 44 1156 c 128,-1,20
 88 1200 88 1200 150 1200 c 2,21,-1
 1050 1200 l 2,22,23
 1112 1200 1112 1200 1156 1156 c 128,-1,24
 1200 1112 1200 1112 1200 1050 c 1,25,-1
 1199 1050 l 1,26,-1
 1199 913 l 2,27,28
 1200 906 1200 906 1200 150 c 0,29,30
 1200 88 1200 88 1156 44 c 128,-1,31
 1112 0 1112 0 1050 0 c 2,0,-1
900 300 m 1,32,-1
 900 617 l 1,33,-1
 299 417 l 1,34,-1
 299 300 l 1,35,-1
 900 300 l 1,32,-1
513 1425 m 256,36,37
 539 1425 539 1425 557 1407 c 0,38,39
 575 1388 575 1388 575 1362 c 256,40,41
 575 1336 575 1336 557 1318 c 0,42,43
 538 1300 538 1300 513 1300 c 0,44,45
 486 1300 486 1300 468 1318 c 0,46,47
 450 1337 450 1337 450 1363 c 256,48,49
 450 1389 450 1389 468 1407 c 0,50,51
 487 1425 487 1425 513 1425 c 256,36,37
688 1425 m 256,52,53
 714 1425 714 1425 732 1407 c 0,54,55
 750 1388 750 1388 750 1362 c 256,56,57
 750 1336 750 1336 732 1318 c 0,58,59
 713 1300 713 1300 688 1300 c 0,60,61
 661 1300 661 1300 643 1318 c 0,62,63
 625 1337 625 1337 625 1363 c 256,64,65
 625 1389 625 1389 643 1407 c 0,66,67
 662 1425 662 1425 688 1425 c 256,52,53
EndSplineSet
EndChar

StartChar: aring
Encoding: 229 229 165
Width: 1500
GlyphClass: 2
Flags: W
LayerCount: 2
Fore
SplineSet
1050 0 m 2,0,-1
 150 0 l 2,1,2
 88 0 88 0 44 44 c 128,-1,3
 0 88 0 88 0 150 c 1,4,-1
 1 150 l 1,5,-1
 1 525 l 2,6,7
 1 576 1 576 30.5 615 c 128,-1,8
 60 654 60 654 108 668 c 2,9,-1
 803 900 l 1,10,-1
 300 900 l 1,11,12
 300 838 300 838 256 794 c 128,-1,13
 212 750 212 750 150 750 c 256,14,15
 88 750 88 750 44 793.5 c 128,-1,16
 0 837 0 837 0 900 c 2,17,-1
 0 1050 l 2,18,19
 0 1112 0 1112 44 1156 c 128,-1,20
 88 1200 88 1200 150 1200 c 2,21,-1
 1050 1200 l 2,22,23
 1112 1200 1112 1200 1156 1156 c 128,-1,24
 1200 1112 1200 1112 1200 1050 c 1,25,-1
 1199 1050 l 1,26,-1
 1199 913 l 2,27,28
 1200 906 1200 906 1200 150 c 0,29,30
 1200 88 1200 88 1156 44 c 128,-1,31
 1112 0 1112 0 1050 0 c 2,0,-1
900 300 m 1,32,-1
 900 617 l 1,33,-1
 299 417 l 1,34,-1
 299 300 l 1,35,-1
 900 300 l 1,32,-1
600 1525 m 0,36,37
 647 1525 647 1525 680 1492 c 128,-1,38
 713 1459 713 1459 713 1411 c 0,39,40
 713 1365 713 1365 680 1332.5 c 128,-1,41
 647 1300 647 1300 600 1300 c 256,42,43
 553 1300 553 1300 520.5 1332.5 c 128,-1,44
 488 1365 488 1365 488 1413 c 0,45,46
 488 1459 488 1459 521 1492 c 128,-1,47
 554 1525 554 1525 600 1525 c 0,36,37
600 1463 m 256,48,49
 579 1463 579 1463 564.5 1448 c 128,-1,50
 550 1433 550 1433 550 1413 c 0,51,52
 550 1392 550 1392 564.5 1377.5 c 128,-1,53
 579 1363 579 1363 600 1363 c 256,54,55
 621 1363 621 1363 635.5 1377.5 c 128,-1,56
 650 1392 650 1392 650 1412 c 0,57,58
 650 1433 650 1433 635.5 1448 c 128,-1,59
 621 1463 621 1463 600 1463 c 256,48,49
EndSplineSet
EndChar

StartChar: ae
Encoding: 230 230 166
Width: 2399
GlyphClass: 2
Flags: W
LayerCount: 2
Fore
SplineSet
900 300 m 1,0,-1
 900 617 l 1,1,-1
 299 417 l 1,2,-1
 299 300 l 1,3,-1
 900 300 l 1,0,-1
1200 582 m 1,4,-1
 1800 782 l 1,5,-1
 1800 900 l 1,6,-1
 1200 900 l 1,7,-1
 1200 582 l 1,4,-1
150 0 m 2,8,9
 88 0 88 0 44 44 c 128,-1,10
 0 88 0 88 0 150 c 1,11,-1
 1 150 l 1,12,-1
 1 525 l 2,13,14
 1 576 1 576 30.5 615 c 128,-1,15
 60 654 60 654 108 668 c 2,16,-1
 803 900 l 1,17,-1
 300 900 l 1,18,19
 300 838 300 838 256 794 c 128,-1,20
 212 750 212 750 150 750 c 256,21,22
 88 750 88 750 44 793.5 c 128,-1,23
 0 837 0 837 0 900 c 2,24,-1
 0 1050 l 2,25,26
 0 1112 0 1112 44 1156 c 128,-1,27
 88 1200 88 1200 150 1200 c 2,28,-1
 1949 1200 l 2,29,30
 2012 1200 2012 1200 2055.5 1156 c 128,-1,31
 2099 1112 2099 1112 2099 1050 c 2,32,-1
 2099 675 l 2,33,34
 2099 624 2099 624 2069 585 c 128,-1,35
 2039 546 2039 546 1991 531 c 2,36,-1
 1297 300 l 1,37,-1
 1799 300 l 1,38,39
 1799 362 1799 362 1843 406 c 128,-1,40
 1887 450 1887 450 1949 450 c 0,41,42
 2012 450 2012 450 2055.5 406 c 128,-1,43
 2099 362 2099 362 2099 300 c 2,44,-1
 2099 150 l 2,45,46
 2099 88 2099 88 2055.5 44 c 128,-1,47
 2012 0 2012 0 1949 0 c 2,48,-1
 150 0 l 2,8,9
EndSplineSet
EndChar

StartChar: ccedilla
Encoding: 231 231 167
Width: 1500
GlyphClass: 2
Flags: W
LayerCount: 2
Fore
SplineSet
551 0 m 1,0,-1
 300 0 l 2,1,2
 237 0 237 0 193 45 c 2,3,-1
 44 194 l 2,4,5
 0 242 0 242 0 300 c 2,6,-1
 0 900 l 2,7,8
 0 962 0 962 45 1007 c 2,9,-1
 194 1156 l 2,10,11
 243 1200 243 1200 300 1200 c 2,12,-1
 1050 1200 l 2,13,14
 1112 1200 1112 1200 1156 1156 c 128,-1,15
 1200 1112 1200 1112 1200 1050 c 2,16,-1
 1200 900 l 2,17,18
 1200 837 1200 837 1156 793.5 c 128,-1,19
 1112 750 1112 750 1050 750 c 256,20,21
 988 750 988 750 944 794 c 128,-1,22
 900 838 900 838 900 900 c 1,23,-1
 362 900 l 1,24,-1
 300 838 l 1,25,-1
 300 362 l 1,26,-1
 362 300 l 1,27,-1
 909 300 l 1,28,29
 952 400 952 400 1050 400 c 0,30,31
 1112 400 1112 400 1156 356 c 128,-1,32
 1200 312 1200 312 1200 250 c 2,33,-1
 1200 150 l 2,34,35
 1200 88 1200 88 1156 44 c 128,-1,36
 1112 0 1112 0 1050 0 c 2,37,-1
 651 0 l 1,38,-1
 651 -8 l 1,39,40
 682 -19 682 -19 706 -44 c 0,41,42
 750 -88 750 -88 750 -152 c 0,43,44
 750 -213 750 -213 706 -256.5 c 128,-1,45
 662 -300 662 -300 600 -300 c 0,46,47
 537 -300 537 -300 494 -256 c 0,48,49
 450 -213 450 -213 450 -150 c 1,50,-1
 550 -150 l 1,51,52
 550 -171 550 -171 564.5 -185.5 c 128,-1,53
 579 -200 579 -200 600 -200 c 256,54,55
 621 -200 621 -200 635.5 -185.5 c 128,-1,56
 650 -171 650 -171 650 -151 c 0,57,58
 650 -130 650 -130 635.5 -115 c 128,-1,59
 621 -100 621 -100 600 -100 c 1,60,-1
 551 0 l 1,0,-1
EndSplineSet
EndChar

StartChar: egrave
Encoding: 232 232 168
Width: 1499
GlyphClass: 2
Flags: W
LayerCount: 2
Fore
SplineSet
1049 0 m 2,0,-1
 150 0 l 2,1,2
 88 0 88 0 44 44 c 128,-1,3
 0 88 0 88 0 150 c 2,4,-1
 0 1050 l 2,5,6
 0 1112 0 1112 43.5 1156 c 128,-1,7
 87 1200 87 1200 150 1200 c 2,8,-1
 1049 1200 l 2,9,10
 1112 1200 1112 1200 1155.5 1156 c 128,-1,11
 1199 1112 1199 1112 1199 1050 c 2,12,-1
 1199 675 l 2,13,14
 1199 624 1199 624 1169 585 c 128,-1,15
 1139 546 1139 546 1091 531 c 2,16,-1
 397 300 l 1,17,-1
 899 300 l 1,18,19
 899 362 899 362 943 406 c 128,-1,20
 987 450 987 450 1049 450 c 0,21,22
 1112 450 1112 450 1155.5 406 c 128,-1,23
 1199 362 1199 362 1199 300 c 2,24,-1
 1199 150 l 2,25,26
 1199 88 1199 88 1155.5 44 c 128,-1,27
 1112 0 1112 0 1049 0 c 2,0,-1
300 582 m 1,28,-1
 900 782 l 1,29,-1
 900 900 l 1,30,-1
 300 900 l 1,31,-1
 300 582 l 1,28,-1
600 1309 m 256,32,33
 571 1309 571 1309 547 1331 c 2,34,-1
 472 1406 l 2,35,36
 450 1430 450 1430 450 1459 c 256,37,38
 450 1488 450 1488 472 1512 c 0,39,40
 496 1534 496 1534 525 1534 c 256,41,42
 554 1534 554 1534 578 1512 c 2,43,-1
 653 1437 l 2,44,45
 675 1413 675 1413 675 1384 c 256,46,47
 675 1355 675 1355 653 1331 c 0,48,49
 629 1309 629 1309 600 1309 c 256,32,33
EndSplineSet
EndChar

StartChar: eacute
Encoding: 233 233 169
Width: 1499
GlyphClass: 2
Flags: W
LayerCount: 2
Fore
SplineSet
1049 0 m 2,0,-1
 150 0 l 2,1,2
 88 0 88 0 44 44 c 128,-1,3
 0 88 0 88 0 150 c 2,4,-1
 0 1050 l 2,5,6
 0 1112 0 1112 43.5 1156 c 128,-1,7
 87 1200 87 1200 150 1200 c 2,8,-1
 1049 1200 l 2,9,10
 1112 1200 1112 1200 1155.5 1156 c 128,-1,11
 1199 1112 1199 1112 1199 1050 c 2,12,-1
 1199 675 l 2,13,14
 1199 624 1199 624 1169 585 c 128,-1,15
 1139 546 1139 546 1091 531 c 2,16,-1
 397 300 l 1,17,-1
 899 300 l 1,18,19
 899 362 899 362 943 406 c 128,-1,20
 987 450 987 450 1049 450 c 0,21,22
 1112 450 1112 450 1155.5 406 c 128,-1,23
 1199 362 1199 362 1199 300 c 2,24,-1
 1199 150 l 2,25,26
 1199 88 1199 88 1155.5 44 c 128,-1,27
 1112 0 1112 0 1049 0 c 2,0,-1
300 582 m 1,28,-1
 900 782 l 1,29,-1
 900 900 l 1,30,-1
 300 900 l 1,31,-1
 300 582 l 1,28,-1
675 1534 m 256,32,33
 704 1534 704 1534 728 1512 c 0,34,35
 750 1488 750 1488 750 1459 c 256,36,37
 750 1430 750 1430 728 1406 c 2,38,-1
 653 1331 l 2,39,40
 629 1309 629 1309 600 1309 c 256,41,42
 571 1309 571 1309 547 1331 c 0,43,44
 525 1356 525 1356 525 1384 c 0,45,46
 525 1413 525 1413 547 1437 c 2,47,-1
 622 1512 l 2,48,49
 646 1534 646 1534 675 1534 c 256,32,33
EndSplineSet
EndChar

StartChar: ecircumflex
Encoding: 234 234 170
Width: 1499
GlyphClass: 2
Flags: W
LayerCount: 2
Fore
SplineSet
1049 0 m 2,0,-1
 150 0 l 2,1,2
 88 0 88 0 44 44 c 128,-1,3
 0 88 0 88 0 150 c 2,4,-1
 0 1050 l 2,5,6
 0 1112 0 1112 43.5 1156 c 128,-1,7
 87 1200 87 1200 150 1200 c 2,8,-1
 1049 1200 l 2,9,10
 1112 1200 1112 1200 1155.5 1156 c 128,-1,11
 1199 1112 1199 1112 1199 1050 c 2,12,-1
 1199 675 l 2,13,14
 1199 624 1199 624 1169 585 c 128,-1,15
 1139 546 1139 546 1091 531 c 2,16,-1
 397 300 l 1,17,-1
 899 300 l 1,18,19
 899 362 899 362 943 406 c 128,-1,20
 987 450 987 450 1049 450 c 0,21,22
 1112 450 1112 450 1155.5 406 c 128,-1,23
 1199 362 1199 362 1199 300 c 2,24,-1
 1199 150 l 2,25,26
 1199 88 1199 88 1155.5 44 c 128,-1,27
 1112 0 1112 0 1049 0 c 2,0,-1
300 582 m 1,28,-1
 900 782 l 1,29,-1
 900 900 l 1,30,-1
 300 900 l 1,31,-1
 300 582 l 1,28,-1
675 1309 m 256,32,33
 646 1309 646 1309 622 1331 c 2,34,-1
 600 1353 l 1,35,-1
 578 1331 l 2,36,37
 554 1309 554 1309 525 1309 c 256,38,39
 496 1309 496 1309 472 1331 c 0,40,41
 450 1355 450 1355 450 1384 c 256,42,43
 450 1413 450 1413 472 1437 c 2,44,-1
 547 1512 l 2,45,46
 571 1534 571 1534 600 1534 c 256,47,48
 629 1534 629 1534 653 1512 c 2,49,-1
 728 1437 l 2,50,51
 750 1413 750 1413 750 1384 c 256,52,53
 750 1355 750 1355 728 1331 c 0,54,55
 704 1309 704 1309 675 1309 c 256,32,33
EndSplineSet
EndChar

StartChar: edieresis
Encoding: 235 235 171
Width: 1499
GlyphClass: 2
Flags: W
LayerCount: 2
Fore
SplineSet
1049 0 m 2,0,-1
 150 0 l 2,1,2
 88 0 88 0 44 44 c 128,-1,3
 0 88 0 88 0 150 c 2,4,-1
 0 1050 l 2,5,6
 0 1112 0 1112 43.5 1156 c 128,-1,7
 87 1200 87 1200 150 1200 c 2,8,-1
 1049 1200 l 2,9,10
 1112 1200 1112 1200 1155.5 1156 c 128,-1,11
 1199 1112 1199 1112 1199 1050 c 2,12,-1
 1199 675 l 2,13,14
 1199 624 1199 624 1169 585 c 128,-1,15
 1139 546 1139 546 1091 531 c 2,16,-1
 397 300 l 1,17,-1
 899 300 l 1,18,19
 899 362 899 362 943 406 c 128,-1,20
 987 450 987 450 1049 450 c 0,21,22
 1112 450 1112 450 1155.5 406 c 128,-1,23
 1199 362 1199 362 1199 300 c 2,24,-1
 1199 150 l 2,25,26
 1199 88 1199 88 1155.5 44 c 128,-1,27
 1112 0 1112 0 1049 0 c 2,0,-1
300 582 m 1,28,-1
 900 782 l 1,29,-1
 900 900 l 1,30,-1
 300 900 l 1,31,-1
 300 582 l 1,28,-1
513 1425 m 256,32,33
 539 1425 539 1425 557 1407 c 0,34,35
 575 1388 575 1388 575 1362 c 256,36,37
 575 1336 575 1336 557 1318 c 0,38,39
 538 1300 538 1300 513 1300 c 0,40,41
 486 1300 486 1300 468 1318 c 0,42,43
 450 1337 450 1337 450 1363 c 256,44,45
 450 1389 450 1389 468 1407 c 0,46,47
 487 1425 487 1425 513 1425 c 256,32,33
688 1425 m 256,48,49
 714 1425 714 1425 732 1407 c 0,50,51
 750 1388 750 1388 750 1362 c 256,52,53
 750 1336 750 1336 732 1318 c 0,54,55
 713 1300 713 1300 688 1300 c 0,56,57
 661 1300 661 1300 643 1318 c 0,58,59
 625 1337 625 1337 625 1363 c 256,60,61
 625 1389 625 1389 643 1407 c 0,62,63
 662 1425 662 1425 688 1425 c 256,48,49
EndSplineSet
EndChar

StartChar: igrave
Encoding: 236 236 172
Width: 600
GlyphClass: 2
Flags: W
LayerCount: 2
Fore
SplineSet
150 0 m 256,0,1
 88 0 88 0 44 44 c 128,-1,2
 0 88 0 88 0 150 c 2,3,-1
 0 900 l 2,4,5
 0 962 0 962 44 1006 c 128,-1,6
 88 1050 88 1050 150 1050 c 256,7,8
 212 1050 212 1050 256 1006 c 128,-1,9
 300 962 300 962 300 900 c 2,10,-1
 300 150 l 2,11,12
 300 88 300 88 256 44 c 128,-1,13
 212 0 212 0 150 0 c 256,0,1
150 1309 m 256,14,15
 121 1309 121 1309 97 1331 c 2,16,-1
 22 1406 l 2,17,18
 0 1430 0 1430 0 1459 c 256,19,20
 0 1488 0 1488 22 1512 c 0,21,22
 46 1534 46 1534 75 1534 c 256,23,24
 104 1534 104 1534 128 1512 c 2,25,-1
 203 1437 l 2,26,27
 225 1413 225 1413 225 1384 c 256,28,29
 225 1355 225 1355 203 1331 c 0,30,31
 179 1309 179 1309 150 1309 c 256,14,15
EndSplineSet
EndChar

StartChar: iacute
Encoding: 237 237 173
Width: 600
GlyphClass: 2
Flags: W
LayerCount: 2
Fore
SplineSet
150 0 m 256,0,1
 88 0 88 0 44 44 c 128,-1,2
 0 88 0 88 0 150 c 2,3,-1
 0 900 l 2,4,5
 0 962 0 962 44 1006 c 128,-1,6
 88 1050 88 1050 150 1050 c 256,7,8
 212 1050 212 1050 256 1006 c 128,-1,9
 300 962 300 962 300 900 c 2,10,-1
 300 150 l 2,11,12
 300 88 300 88 256 44 c 128,-1,13
 212 0 212 0 150 0 c 256,0,1
225 1534 m 256,14,15
 254 1534 254 1534 278 1512 c 0,16,17
 300 1488 300 1488 300 1459 c 256,18,19
 300 1430 300 1430 278 1406 c 2,20,-1
 203 1331 l 2,21,22
 179 1309 179 1309 150 1309 c 256,23,24
 121 1309 121 1309 97 1331 c 0,25,26
 75 1356 75 1356 75 1384 c 0,27,28
 75 1413 75 1413 97 1437 c 2,29,-1
 172 1512 l 2,30,31
 196 1534 196 1534 225 1534 c 256,14,15
EndSplineSet
EndChar

StartChar: icircumflex
Encoding: 238 238 174
Width: 600
GlyphClass: 2
Flags: W
LayerCount: 2
Fore
SplineSet
150 0 m 256,0,1
 88 0 88 0 44 44 c 128,-1,2
 0 88 0 88 0 150 c 2,3,-1
 0 900 l 2,4,5
 0 962 0 962 44 1006 c 128,-1,6
 88 1050 88 1050 150 1050 c 256,7,8
 212 1050 212 1050 256 1006 c 128,-1,9
 300 962 300 962 300 900 c 2,10,-1
 300 150 l 2,11,12
 300 88 300 88 256 44 c 128,-1,13
 212 0 212 0 150 0 c 256,0,1
225 1309 m 256,14,15
 196 1309 196 1309 172 1331 c 2,16,-1
 150 1353 l 1,17,-1
 128 1331 l 2,18,19
 104 1309 104 1309 75 1309 c 256,20,21
 46 1309 46 1309 22 1331 c 0,22,23
 0 1355 0 1355 0 1384 c 256,24,25
 0 1413 0 1413 22 1437 c 2,26,-1
 97 1512 l 2,27,28
 121 1534 121 1534 150 1534 c 256,29,30
 179 1534 179 1534 203 1512 c 2,31,-1
 278 1437 l 2,32,33
 300 1413 300 1413 300 1384 c 256,34,35
 300 1355 300 1355 278 1331 c 0,36,37
 254 1309 254 1309 225 1309 c 256,14,15
EndSplineSet
EndChar

StartChar: idieresis
Encoding: 239 239 175
Width: 600
GlyphClass: 2
Flags: W
LayerCount: 2
Fore
SplineSet
150 0 m 256,0,1
 88 0 88 0 44 44 c 128,-1,2
 0 88 0 88 0 150 c 2,3,-1
 0 900 l 2,4,5
 0 962 0 962 44 1006 c 128,-1,6
 88 1050 88 1050 150 1050 c 256,7,8
 212 1050 212 1050 256 1006 c 128,-1,9
 300 962 300 962 300 900 c 2,10,-1
 300 150 l 2,11,12
 300 88 300 88 256 44 c 128,-1,13
 212 0 212 0 150 0 c 256,0,1
63 1425 m 256,14,15
 89 1425 89 1425 107 1407 c 0,16,17
 125 1388 125 1388 125 1362 c 256,18,19
 125 1336 125 1336 107 1318 c 0,20,21
 88 1300 88 1300 63 1300 c 0,22,23
 36 1300 36 1300 18 1318 c 0,24,25
 0 1337 0 1337 0 1363 c 256,26,27
 0 1389 0 1389 18 1407 c 0,28,29
 37 1425 37 1425 63 1425 c 256,14,15
238 1425 m 256,30,31
 264 1425 264 1425 282 1407 c 0,32,33
 300 1388 300 1388 300 1362 c 256,34,35
 300 1336 300 1336 282 1318 c 0,36,37
 263 1300 263 1300 238 1300 c 0,38,39
 211 1300 211 1300 193 1318 c 0,40,41
 175 1337 175 1337 175 1363 c 256,42,43
 175 1389 175 1389 193 1407 c 0,44,45
 212 1425 212 1425 238 1425 c 256,30,31
EndSplineSet
EndChar

StartChar: ntilde
Encoding: 241 241 177
Width: 1499
GlyphClass: 2
Flags: W
LayerCount: 2
Fore
SplineSet
1049 0 m 256,0,1
 987 0 987 0 943 44 c 128,-1,2
 899 88 899 88 899 150 c 2,3,-1
 899 838 l 1,4,-1
 837 900 l 1,5,-1
 299 900 l 1,6,-1
 299 150 l 2,7,8
 299 88 299 88 255.5 44 c 128,-1,9
 212 0 212 0 150 0 c 0,10,11
 87 0 87 0 43.5 44 c 128,-1,12
 0 88 0 88 0 150 c 2,13,-1
 0 1050 l 2,14,15
 0 1112 0 1112 43.5 1156 c 128,-1,16
 87 1200 87 1200 150 1200 c 2,17,-1
 899 1200 l 2,18,19
 962 1200 962 1200 1006 1155 c 2,20,-1
 1155 1006 l 2,21,22
 1199 957 1199 957 1199 900 c 2,23,-1
 1199 150 l 2,24,25
 1199 88 1199 88 1155 44 c 128,-1,26
 1111 0 1111 0 1049 0 c 256,0,1
630 1300 m 256,27,28
 607 1300 607 1300 588 1318 c 2,29,-1
 570 1335 l 1,30,-1
 552 1318 l 2,31,32
 533 1300 533 1300 510 1300 c 256,33,34
 487 1300 487 1300 468 1318 c 0,35,36
 450 1337 450 1337 450 1360 c 256,37,38
 450 1383 450 1383 468 1402 c 2,39,-1
 528 1462 l 2,40,41
 546 1480 546 1480 570 1480 c 256,42,43
 594 1480 594 1480 612 1462 c 2,44,-1
 630 1445 l 1,45,-1
 648 1462 l 2,46,47
 667 1480 667 1480 690 1480 c 256,48,49
 713 1480 713 1480 732 1462 c 0,50,51
 750 1443 750 1443 750 1420 c 256,52,53
 750 1397 750 1397 732 1378 c 2,54,-1
 672 1318 l 2,55,56
 653 1300 653 1300 630 1300 c 256,27,28
EndSplineSet
EndChar

StartChar: ograve
Encoding: 242 242 178
Width: 1500
GlyphClass: 2
Flags: W
LayerCount: 2
Fore
SplineSet
900 688 m 1,0,-1
 512 300 l 1,1,-1
 838 300 l 1,2,-1
 900 362 l 1,3,-1
 900 688 l 1,0,-1
300 512 m 1,4,-1
 688 900 l 1,5,-1
 362 900 l 1,6,-1
 300 838 l 1,7,-1
 300 512 l 1,4,-1
900 0 m 2,8,-1
 300 0 l 2,9,10
 242 0 242 0 194 44 c 2,11,-1
 45 193 l 2,12,13
 0 237 0 237 0 300 c 2,14,-1
 0 900 l 2,15,16
 0 957 0 957 44 1006 c 2,17,-1
 193 1155 l 2,18,19
 237 1200 237 1200 300 1200 c 2,20,-1
 900 1200 l 2,21,22
 957 1200 957 1200 1006 1156 c 2,23,-1
 1155 1007 l 2,24,25
 1200 962 1200 962 1200 900 c 2,26,-1
 1200 300 l 2,27,28
 1200 242 1200 242 1156 194 c 2,29,-1
 1007 45 l 2,30,31
 963 0 963 0 900 0 c 2,8,-1
600 1309 m 256,32,33
 571 1309 571 1309 547 1331 c 2,34,-1
 472 1406 l 2,35,36
 450 1430 450 1430 450 1459 c 256,37,38
 450 1488 450 1488 472 1512 c 0,39,40
 496 1534 496 1534 525 1534 c 256,41,42
 554 1534 554 1534 578 1512 c 2,43,-1
 653 1437 l 2,44,45
 675 1413 675 1413 675 1384 c 256,46,47
 675 1355 675 1355 653 1331 c 0,48,49
 629 1309 629 1309 600 1309 c 256,32,33
EndSplineSet
EndChar

StartChar: oacute
Encoding: 243 243 179
Width: 1500
GlyphClass: 2
Flags: W
LayerCount: 2
Fore
SplineSet
838 300 m 1,0,-1
 900 362 l 1,1,-1
 900 838 l 1,2,-1
 838 900 l 1,3,-1
 362 900 l 1,4,-1
 300 838 l 1,5,-1
 300 362 l 1,6,-1
 362 300 l 1,7,-1
 838 300 l 1,0,-1
900 0 m 2,8,-1
 300 0 l 2,9,10
 242 0 242 0 194 44 c 2,11,-1
 45 193 l 2,12,13
 0 237 0 237 0 300 c 2,14,-1
 0 900 l 2,15,16
 0 957 0 957 44 1006 c 2,17,-1
 193 1155 l 2,18,19
 237 1200 237 1200 300 1200 c 2,20,-1
 900 1200 l 2,21,22
 957 1200 957 1200 1006 1156 c 2,23,-1
 1155 1007 l 2,24,25
 1200 962 1200 962 1200 900 c 2,26,-1
 1200 300 l 2,27,28
 1200 242 1200 242 1156 194 c 2,29,-1
 1007 45 l 2,30,31
 963 0 963 0 900 0 c 2,8,-1
675 1534 m 256,32,33
 704 1534 704 1534 728 1512 c 0,34,35
 750 1488 750 1488 750 1459 c 256,36,37
 750 1430 750 1430 728 1406 c 2,38,-1
 653 1331 l 2,39,40
 629 1309 629 1309 600 1309 c 256,41,42
 571 1309 571 1309 547 1331 c 0,43,44
 525 1356 525 1356 525 1384 c 0,45,46
 525 1413 525 1413 547 1437 c 2,47,-1
 622 1512 l 2,48,49
 646 1534 646 1534 675 1534 c 256,32,33
EndSplineSet
EndChar

StartChar: ocircumflex
Encoding: 244 244 180
Width: 1500
GlyphClass: 2
Flags: W
LayerCount: 2
Fore
SplineSet
838 300 m 1,0,-1
 900 362 l 1,1,-1
 900 838 l 1,2,-1
 838 900 l 1,3,-1
 362 900 l 1,4,-1
 300 838 l 1,5,-1
 300 362 l 1,6,-1
 362 300 l 1,7,-1
 838 300 l 1,0,-1
900 0 m 2,8,-1
 300 0 l 2,9,10
 242 0 242 0 194 44 c 2,11,-1
 45 193 l 2,12,13
 0 237 0 237 0 300 c 2,14,-1
 0 900 l 2,15,16
 0 957 0 957 44 1006 c 2,17,-1
 193 1155 l 2,18,19
 237 1200 237 1200 300 1200 c 2,20,-1
 900 1200 l 2,21,22
 957 1200 957 1200 1006 1156 c 2,23,-1
 1155 1007 l 2,24,25
 1200 962 1200 962 1200 900 c 2,26,-1
 1200 300 l 2,27,28
 1200 242 1200 242 1156 194 c 2,29,-1
 1007 45 l 2,30,31
 963 0 963 0 900 0 c 2,8,-1
675 1309 m 256,32,33
 646 1309 646 1309 622 1331 c 2,34,-1
 600 1353 l 1,35,-1
 578 1331 l 2,36,37
 554 1309 554 1309 525 1309 c 256,38,39
 496 1309 496 1309 472 1331 c 0,40,41
 450 1355 450 1355 450 1384 c 256,42,43
 450 1413 450 1413 472 1437 c 2,44,-1
 547 1512 l 2,45,46
 571 1534 571 1534 600 1534 c 256,47,48
 629 1534 629 1534 653 1512 c 2,49,-1
 728 1437 l 2,50,51
 750 1413 750 1413 750 1384 c 256,52,53
 750 1355 750 1355 728 1331 c 0,54,55
 704 1309 704 1309 675 1309 c 256,32,33
EndSplineSet
EndChar

StartChar: otilde
Encoding: 245 245 181
Width: 1500
GlyphClass: 2
Flags: W
LayerCount: 2
Fore
SplineSet
838 300 m 1,0,-1
 900 362 l 1,1,-1
 900 838 l 1,2,-1
 838 900 l 1,3,-1
 362 900 l 1,4,-1
 300 838 l 1,5,-1
 300 362 l 1,6,-1
 362 300 l 1,7,-1
 838 300 l 1,0,-1
900 0 m 2,8,-1
 300 0 l 2,9,10
 242 0 242 0 194 44 c 2,11,-1
 45 193 l 2,12,13
 0 237 0 237 0 300 c 2,14,-1
 0 900 l 2,15,16
 0 957 0 957 44 1006 c 2,17,-1
 193 1155 l 2,18,19
 237 1200 237 1200 300 1200 c 2,20,-1
 900 1200 l 2,21,22
 957 1200 957 1200 1006 1156 c 2,23,-1
 1155 1007 l 2,24,25
 1200 962 1200 962 1200 900 c 2,26,-1
 1200 300 l 2,27,28
 1200 242 1200 242 1156 194 c 2,29,-1
 1007 45 l 2,30,31
 963 0 963 0 900 0 c 2,8,-1
630 1300 m 256,32,33
 607 1300 607 1300 588 1318 c 2,34,-1
 570 1335 l 1,35,-1
 552 1318 l 2,36,37
 533 1300 533 1300 510 1300 c 256,38,39
 487 1300 487 1300 468 1318 c 0,40,41
 450 1337 450 1337 450 1360 c 256,42,43
 450 1383 450 1383 468 1402 c 2,44,-1
 528 1462 l 2,45,46
 546 1480 546 1480 570 1480 c 256,47,48
 594 1480 594 1480 612 1462 c 2,49,-1
 630 1445 l 1,50,-1
 648 1462 l 2,51,52
 667 1480 667 1480 690 1480 c 256,53,54
 713 1480 713 1480 732 1462 c 0,55,56
 750 1443 750 1443 750 1420 c 256,57,58
 750 1397 750 1397 732 1378 c 2,59,-1
 672 1318 l 2,60,61
 653 1300 653 1300 630 1300 c 256,32,33
EndSplineSet
EndChar

StartChar: odieresis
Encoding: 246 246 182
Width: 1500
GlyphClass: 2
Flags: W
LayerCount: 2
Fore
SplineSet
838 300 m 1,0,-1
 900 362 l 1,1,-1
 900 838 l 1,2,-1
 838 900 l 1,3,-1
 362 900 l 1,4,-1
 300 838 l 1,5,-1
 300 362 l 1,6,-1
 362 300 l 1,7,-1
 838 300 l 1,0,-1
900 0 m 2,8,-1
 300 0 l 2,9,10
 242 0 242 0 194 44 c 2,11,-1
 45 193 l 2,12,13
 0 237 0 237 0 300 c 2,14,-1
 0 900 l 2,15,16
 0 957 0 957 44 1006 c 2,17,-1
 193 1155 l 2,18,19
 237 1200 237 1200 300 1200 c 2,20,-1
 900 1200 l 2,21,22
 957 1200 957 1200 1006 1156 c 2,23,-1
 1155 1007 l 2,24,25
 1200 962 1200 962 1200 900 c 2,26,-1
 1200 300 l 2,27,28
 1200 242 1200 242 1156 194 c 2,29,-1
 1007 45 l 2,30,31
 963 0 963 0 900 0 c 2,8,-1
513 1425 m 256,32,33
 539 1425 539 1425 557 1407 c 0,34,35
 575 1388 575 1388 575 1362 c 256,36,37
 575 1336 575 1336 557 1318 c 0,38,39
 538 1300 538 1300 513 1300 c 0,40,41
 486 1300 486 1300 468 1318 c 0,42,43
 450 1337 450 1337 450 1363 c 256,44,45
 450 1389 450 1389 468 1407 c 0,46,47
 487 1425 487 1425 513 1425 c 256,32,33
688 1425 m 256,48,49
 714 1425 714 1425 732 1407 c 0,50,51
 750 1388 750 1388 750 1362 c 256,52,53
 750 1336 750 1336 732 1318 c 0,54,55
 713 1300 713 1300 688 1300 c 0,56,57
 661 1300 661 1300 643 1318 c 0,58,59
 625 1337 625 1337 625 1363 c 256,60,61
 625 1389 625 1389 643 1407 c 0,62,63
 662 1425 662 1425 688 1425 c 256,48,49
EndSplineSet
EndChar

StartChar: oslash
Encoding: 248 248 184
Width: 1500
GlyphClass: 2
Flags: W
LayerCount: 2
Fore
SplineSet
838 300 m 1,0,-1
 900 362 l 1,1,-1
 900 838 l 1,2,-1
 838 900 l 1,3,-1
 362 900 l 1,4,-1
 300 838 l 1,5,-1
 300 362 l 1,6,-1
 362 300 l 1,7,-1
 838 300 l 1,0,-1
900 0 m 2,8,-1
 300 0 l 2,9,10
 242 0 242 0 194 44 c 2,11,-1
 45 193 l 2,12,13
 0 237 0 237 0 300 c 2,14,-1
 0 900 l 2,15,16
 0 957 0 957 44 1006 c 2,17,-1
 193 1155 l 2,18,19
 237 1200 237 1200 300 1200 c 2,20,-1
 900 1200 l 2,21,22
 957 1200 957 1200 1006 1156 c 2,23,-1
 1155 1007 l 2,24,25
 1200 962 1200 962 1200 900 c 2,26,-1
 1200 300 l 2,27,28
 1200 242 1200 242 1156 194 c 2,29,-1
 1007 45 l 2,30,31
 963 0 963 0 900 0 c 2,8,-1
EndSplineSet
EndChar

StartChar: ugrave
Encoding: 249 249 185
Width: 1500
GlyphClass: 2
Flags: W
LayerCount: 2
Fore
SplineSet
900 0 m 2,0,-1
 300 0 l 2,1,2
 243 0 243 0 194 44 c 2,3,-1
 45 193 l 2,4,5
 0 237 0 237 0 300 c 2,6,-1
 0 1050 l 2,7,8
 0 1112 0 1112 44 1156 c 128,-1,9
 88 1200 88 1200 150 1200 c 256,10,11
 212 1200 212 1200 256 1156 c 128,-1,12
 300 1112 300 1112 300 1050 c 2,13,-1
 300 362 l 1,14,-1
 362 300 l 1,15,-1
 838 300 l 1,16,-1
 900 362 l 1,17,-1
 900 1050 l 2,18,19
 900 1112 900 1112 944 1156 c 128,-1,20
 988 1200 988 1200 1050 1200 c 256,21,22
 1112 1200 1112 1200 1156 1156 c 128,-1,23
 1200 1112 1200 1112 1200 1050 c 2,24,-1
 1200 300 l 2,25,26
 1200 242 1200 242 1156 194 c 2,27,-1
 1007 45 l 2,28,29
 963 0 963 0 900 0 c 2,0,-1
600 1309 m 256,30,31
 571 1309 571 1309 547 1331 c 2,32,-1
 472 1406 l 2,33,34
 450 1430 450 1430 450 1459 c 256,35,36
 450 1488 450 1488 472 1512 c 0,37,38
 496 1534 496 1534 525 1534 c 256,39,40
 554 1534 554 1534 578 1512 c 2,41,-1
 653 1437 l 2,42,43
 675 1413 675 1413 675 1384 c 256,44,45
 675 1355 675 1355 653 1331 c 0,46,47
 629 1309 629 1309 600 1309 c 256,30,31
EndSplineSet
EndChar

StartChar: uacute
Encoding: 250 250 186
Width: 1500
GlyphClass: 2
Flags: W
LayerCount: 2
Fore
SplineSet
900 0 m 2,0,-1
 300 0 l 2,1,2
 243 0 243 0 194 44 c 2,3,-1
 45 193 l 2,4,5
 0 237 0 237 0 300 c 2,6,-1
 0 1050 l 2,7,8
 0 1112 0 1112 44 1156 c 128,-1,9
 88 1200 88 1200 150 1200 c 256,10,11
 212 1200 212 1200 256 1156 c 128,-1,12
 300 1112 300 1112 300 1050 c 2,13,-1
 300 362 l 1,14,-1
 362 300 l 1,15,-1
 838 300 l 1,16,-1
 900 362 l 1,17,-1
 900 1050 l 2,18,19
 900 1112 900 1112 944 1156 c 128,-1,20
 988 1200 988 1200 1050 1200 c 256,21,22
 1112 1200 1112 1200 1156 1156 c 128,-1,23
 1200 1112 1200 1112 1200 1050 c 2,24,-1
 1200 300 l 2,25,26
 1200 242 1200 242 1156 194 c 2,27,-1
 1007 45 l 2,28,29
 963 0 963 0 900 0 c 2,0,-1
675 1534 m 256,30,31
 704 1534 704 1534 728 1512 c 0,32,33
 750 1488 750 1488 750 1459 c 256,34,35
 750 1430 750 1430 728 1406 c 2,36,-1
 653 1331 l 2,37,38
 629 1309 629 1309 600 1309 c 256,39,40
 571 1309 571 1309 547 1331 c 0,41,42
 525 1356 525 1356 525 1384 c 0,43,44
 525 1413 525 1413 547 1437 c 2,45,-1
 622 1512 l 2,46,47
 646 1534 646 1534 675 1534 c 256,30,31
EndSplineSet
EndChar

StartChar: ucircumflex
Encoding: 251 251 187
Width: 1500
GlyphClass: 2
Flags: W
LayerCount: 2
Fore
SplineSet
900 0 m 2,0,-1
 300 0 l 2,1,2
 243 0 243 0 194 44 c 2,3,-1
 45 193 l 2,4,5
 0 237 0 237 0 300 c 2,6,-1
 0 1050 l 2,7,8
 0 1112 0 1112 44 1156 c 128,-1,9
 88 1200 88 1200 150 1200 c 256,10,11
 212 1200 212 1200 256 1156 c 128,-1,12
 300 1112 300 1112 300 1050 c 2,13,-1
 300 362 l 1,14,-1
 362 300 l 1,15,-1
 838 300 l 1,16,-1
 900 362 l 1,17,-1
 900 1050 l 2,18,19
 900 1112 900 1112 944 1156 c 128,-1,20
 988 1200 988 1200 1050 1200 c 256,21,22
 1112 1200 1112 1200 1156 1156 c 128,-1,23
 1200 1112 1200 1112 1200 1050 c 2,24,-1
 1200 300 l 2,25,26
 1200 242 1200 242 1156 194 c 2,27,-1
 1007 45 l 2,28,29
 963 0 963 0 900 0 c 2,0,-1
675 1309 m 256,30,31
 646 1309 646 1309 622 1331 c 2,32,-1
 600 1353 l 1,33,-1
 578 1331 l 2,34,35
 554 1309 554 1309 525 1309 c 256,36,37
 496 1309 496 1309 472 1331 c 0,38,39
 450 1355 450 1355 450 1384 c 256,40,41
 450 1413 450 1413 472 1437 c 2,42,-1
 547 1512 l 2,43,44
 571 1534 571 1534 600 1534 c 256,45,46
 629 1534 629 1534 653 1512 c 2,47,-1
 728 1437 l 2,48,49
 750 1413 750 1413 750 1384 c 256,50,51
 750 1355 750 1355 728 1331 c 0,52,53
 704 1309 704 1309 675 1309 c 256,30,31
EndSplineSet
EndChar

StartChar: udieresis
Encoding: 252 252 188
Width: 1500
GlyphClass: 2
Flags: W
LayerCount: 2
Fore
SplineSet
900 0 m 2,0,-1
 300 0 l 2,1,2
 243 0 243 0 194 44 c 2,3,-1
 45 193 l 2,4,5
 0 237 0 237 0 300 c 2,6,-1
 0 1050 l 2,7,8
 0 1112 0 1112 44 1156 c 128,-1,9
 88 1200 88 1200 150 1200 c 256,10,11
 212 1200 212 1200 256 1156 c 128,-1,12
 300 1112 300 1112 300 1050 c 2,13,-1
 300 362 l 1,14,-1
 362 300 l 1,15,-1
 838 300 l 1,16,-1
 900 362 l 1,17,-1
 900 1050 l 2,18,19
 900 1112 900 1112 944 1156 c 128,-1,20
 988 1200 988 1200 1050 1200 c 256,21,22
 1112 1200 1112 1200 1156 1156 c 128,-1,23
 1200 1112 1200 1112 1200 1050 c 2,24,-1
 1200 300 l 2,25,26
 1200 242 1200 242 1156 194 c 2,27,-1
 1007 45 l 2,28,29
 963 0 963 0 900 0 c 2,0,-1
513 1425 m 256,30,31
 539 1425 539 1425 557 1407 c 0,32,33
 575 1388 575 1388 575 1362 c 256,34,35
 575 1336 575 1336 557 1318 c 0,36,37
 538 1300 538 1300 513 1300 c 0,38,39
 486 1300 486 1300 468 1318 c 0,40,41
 450 1337 450 1337 450 1363 c 256,42,43
 450 1389 450 1389 468 1407 c 0,44,45
 487 1425 487 1425 513 1425 c 256,30,31
688 1425 m 256,46,47
 714 1425 714 1425 732 1407 c 0,48,49
 750 1388 750 1388 750 1362 c 256,50,51
 750 1336 750 1336 732 1318 c 0,52,53
 713 1300 713 1300 688 1300 c 0,54,55
 661 1300 661 1300 643 1318 c 0,56,57
 625 1337 625 1337 625 1363 c 256,58,59
 625 1389 625 1389 643 1407 c 0,60,61
 662 1425 662 1425 688 1425 c 256,46,47
EndSplineSet
EndChar

StartChar: yacute
Encoding: 253 253 189
Width: 1500
GlyphClass: 2
Flags: W
LayerCount: 2
Fore
SplineSet
900 -750 m 2,0,-1
 150 -750 l 2,1,2
 88 -750 88 -750 44 -706 c 128,-1,3
 0 -662 0 -662 0 -600 c 2,4,-1
 0 -500 l 2,5,6
 0 -438 0 -438 44 -394 c 128,-1,7
 88 -350 88 -350 150 -350 c 0,8,9
 248 -350 248 -350 292 -450 c 1,10,-1
 838 -450 l 1,11,-1
 900 -388 l 1,12,-1
 900 0 l 1,13,-1
 300 0 l 2,14,15
 243 0 243 0 194 44 c 2,16,-1
 45 193 l 2,17,18
 0 237 0 237 0 300 c 2,19,-1
 0 1050 l 2,20,21
 0 1112 0 1112 44 1156 c 128,-1,22
 88 1200 88 1200 150 1200 c 0,23,24
 213 1200 213 1200 256.5 1156 c 128,-1,25
 300 1112 300 1112 300 1050 c 2,26,-1
 300 362 l 1,27,-1
 362 300 l 1,28,-1
 838 300 l 1,29,-1
 900 362 l 1,30,-1
 900 1050 l 2,31,32
 900 1112 900 1112 944 1156 c 128,-1,33
 988 1200 988 1200 1050 1200 c 256,34,35
 1112 1200 1112 1200 1156 1156 c 128,-1,36
 1200 1112 1200 1112 1200 1050 c 2,37,-1
 1200 -450 l 2,38,39
 1200 -508 1200 -508 1156 -556 c 2,40,-1
 1007 -705 l 2,41,42
 963 -750 963 -750 900 -750 c 2,0,-1
600 1309 m 256,43,44
 571 1309 571 1309 547 1331 c 2,45,-1
 472 1406 l 2,46,47
 450 1430 450 1430 450 1459 c 256,48,49
 450 1488 450 1488 472 1512 c 0,50,51
 496 1534 496 1534 525 1534 c 256,52,53
 554 1534 554 1534 578 1512 c 2,54,-1
 653 1437 l 2,55,56
 675 1413 675 1413 675 1384 c 256,57,58
 675 1355 675 1355 653 1331 c 0,59,60
 629 1309 629 1309 600 1309 c 256,43,44
EndSplineSet
EndChar

StartChar: ydieresis
Encoding: 255 255 191
Width: 1500
GlyphClass: 2
Flags: W
LayerCount: 2
Fore
SplineSet
900 -750 m 2,0,-1
 150 -750 l 2,1,2
 88 -750 88 -750 44 -706 c 128,-1,3
 0 -662 0 -662 0 -600 c 2,4,-1
 0 -500 l 2,5,6
 0 -438 0 -438 44 -394 c 128,-1,7
 88 -350 88 -350 150 -350 c 0,8,9
 248 -350 248 -350 292 -450 c 1,10,-1
 838 -450 l 1,11,-1
 900 -388 l 1,12,-1
 900 0 l 1,13,-1
 300 0 l 2,14,15
 243 0 243 0 194 44 c 2,16,-1
 45 193 l 2,17,18
 0 237 0 237 0 300 c 2,19,-1
 0 1050 l 2,20,21
 0 1112 0 1112 44 1156 c 128,-1,22
 88 1200 88 1200 150 1200 c 0,23,24
 213 1200 213 1200 256.5 1156 c 128,-1,25
 300 1112 300 1112 300 1050 c 2,26,-1
 300 362 l 1,27,-1
 362 300 l 1,28,-1
 838 300 l 1,29,-1
 900 362 l 1,30,-1
 900 1050 l 2,31,32
 900 1112 900 1112 944 1156 c 128,-1,33
 988 1200 988 1200 1050 1200 c 256,34,35
 1112 1200 1112 1200 1156 1156 c 128,-1,36
 1200 1112 1200 1112 1200 1050 c 2,37,-1
 1200 -450 l 2,38,39
 1200 -508 1200 -508 1156 -556 c 2,40,-1
 1007 -705 l 2,41,42
 963 -750 963 -750 900 -750 c 2,0,-1
513 1425 m 256,43,44
 539 1425 539 1425 557 1407 c 0,45,46
 575 1388 575 1388 575 1362 c 256,47,48
 575 1336 575 1336 557 1318 c 0,49,50
 538 1300 538 1300 513 1300 c 0,51,52
 486 1300 486 1300 468 1318 c 0,53,54
 450 1337 450 1337 450 1363 c 256,55,56
 450 1389 450 1389 468 1407 c 0,57,58
 487 1425 487 1425 513 1425 c 256,43,44
688 1425 m 256,59,60
 714 1425 714 1425 732 1407 c 0,61,62
 750 1388 750 1388 750 1362 c 256,63,64
 750 1336 750 1336 732 1318 c 0,65,66
 713 1300 713 1300 688 1300 c 0,67,68
 661 1300 661 1300 643 1318 c 0,69,70
 625 1337 625 1337 625 1363 c 256,71,72
 625 1389 625 1389 643 1407 c 0,73,74
 662 1425 662 1425 688 1425 c 256,59,60
EndSplineSet
EndChar

